<?xml version="1.0" standalone="no"?>
<!DOCTYPE svg PUBLIC "-//W3C//DTD SVG 1.1//EN" "http://www.w3.org/Graphics/SVG/1.1/DTD/svg11.dtd" >
<svg xmlns="http://www.w3.org/2000/svg" xmlns:xlink="http://www.w3.org/1999/xlink" version="1.1">
<metadata></metadata>
<defs>
<font id="colaborate-boldregular" horiz-adv-x="1309" >
<font-face units-per-em="2048" ascent="1638" descent="-410" />
<missing-glyph horiz-adv-x="654" />
<glyph horiz-adv-x="0" />
<glyph horiz-adv-x="682" />
<glyph unicode=" "  horiz-adv-x="654" />
<glyph unicode="&#x09;" horiz-adv-x="654" />
<glyph unicode="&#xa0;" horiz-adv-x="654" />
<glyph unicode="!" horiz-adv-x="654" d="M164 0v285h324v-285h-324zM172 435v1062h312v-1062h-312z" />
<glyph unicode="&#x22;" horiz-adv-x="654" d="M170 1497h270l-19 -501h-233zM534 1497h267l-19 -501h-229z" />
<glyph unicode="#" d="M42 373v212h252l51 309h-213v212h254l67 391h256l-68 -391h156l66 391h255l-67 -391h219v-212h-261l-51 -309h222v-212h-261l-65 -373h-255l65 373h-152l-68 -373h-254l64 373h-212zM548 585h154l53 309h-154z" />
<glyph unicode="$" d="M81 1109q0 74 23.5 137t64 108.5t96.5 80.5t119 56t135 32v204h238v-199q87 -7 187.5 -25.5t164.5 -40.5l-107 -294q0 1 -19 9t-22.5 9.5t-21.5 9.5t-24 10t-23 9t-26.5 10t-25.5 8t-27.5 8t-26.5 7t-29 6v-368q50 -19 87 -35.5t83 -41.5t79 -51.5t66.5 -64.5t54 -81 t33.5 -100.5t13 -122.5q0 -85 -20 -152t-55.5 -112.5t-88.5 -78t-114 -50.5t-138 -29v-194h-238v181q-162 2 -426 74l106 294q17 -7 74 -29t86.5 -33t75.5 -22.5t84 -12.5v409q-58 23 -90.5 36.5t-85.5 40.5t-84 50.5t-69 60.5t-59 76.5t-35.5 93.5t-14.5 117zM426 1109 q0 -72 99 -128v262q-28 -9 -48 -24t-29.5 -28.5t-15 -32t-6 -27.5t-0.5 -22zM750 252q41 19 59.5 51t18.5 81q0 73 -78 139v-271z" />
<glyph unicode="%" horiz-adv-x="2027" d="M88 1131q0 203 88 301t266 98q126 0 205.5 -44.5t115.5 -131.5t36 -223q0 -207 -86 -311.5t-273 -104.5q-186 0 -269 103.5t-83 312.5zM310 1131q0 -60 2.5 -98.5t10 -71.5t22.5 -50t38 -26.5t57 -9.5q75 0 104.5 61t29.5 195q0 93 -11.5 143t-40 73t-80.5 23 q-34 0 -57.5 -10.5t-38 -28.5t-23 -49.5t-11 -66t-2.5 -84.5zM453 0l839 1455h265l-839 -1455h-265zM1234 384q0 136 39.5 224t117.5 131t197 43q187 0 269 -97t82 -301q0 -208 -83 -312.5t-271 -104.5q-186 0 -268.5 104t-82.5 313zM1455 384q0 -60 3 -98.5t10.5 -71 t22 -50t37.5 -27t57 -9.5q76 0 105.5 61t29.5 195q0 137 -27.5 188t-104.5 51q-28 0 -49 -7t-35.5 -21t-24 -33t-15 -47.5t-7.5 -58.5t-2 -72z" />
<glyph unicode="&#x26;" d="M106 428q0 30 2 56t7.5 61t15.5 65.5t28 66t42.5 65t61 59.5t82.5 53q-5 4 -24.5 19t-30.5 24t-31 27.5t-32.5 33.5t-28 37.5t-24.5 44t-15 49.5t-6 57q0 81 26 150t78.5 124t141.5 86t206 31q215 0 332.5 -100.5t117.5 -288.5q0 -38 -16.5 -76t-41.5 -69t-64 -62 t-75 -54t-82.5 -47.5t-78.5 -39.5t-72 -32q-59 -25 -97.5 -58.5t-59.5 -77t-29 -90t-8 -109.5q0 -29 3.5 -55.5t12 -53.5t24 -49t37 -39.5t53.5 -27t71 -9.5q17 0 34.5 4t30.5 8t29.5 15.5t25 17t25.5 23t22.5 23t24.5 27t24 25.5v133h-186v221h500v-372q0 -56 22.5 -183 t23.5 -141h-301l-41 95q-11 -14 -27.5 -28.5t-35.5 -27.5t-41 -25t-44.5 -21.5t-44.5 -17t-42 -11.5t-37 -4q-72 0 -137 12.5t-131 45t-113 83.5t-77 135t-30 192zM466 1148q0 -22 6 -42t18.5 -39t21.5 -31t26.5 -30t21.5 -23q33 15 53 25t47 27t42.5 33t26.5 37.5t11 44.5 q0 27 -5.5 50t-19.5 47t-44 37.5t-72 13.5q-68 0 -100.5 -42.5t-32.5 -107.5z" />
<glyph unicode="'" horiz-adv-x="654" d="M192 1497h271l-19 -501h-234z" />
<glyph unicode="(" horiz-adv-x="775" d="M125 588q0 157 13 277.5t44 228t71 196.5t105 207h289q-121 -225 -165.5 -419t-44.5 -490q0 -86 3.5 -154.5t12.5 -141.5t25 -139t40.5 -138.5t59.5 -149t82 -161.5h-289q-100 172 -152 306.5t-73 266t-21 311.5z" />
<glyph unicode=")" horiz-adv-x="775" d="M128 -296q69 127 113 235.5t67.5 215.5t32 205t8.5 228q0 296 -44 490t-166 419h287q66 -119 105.5 -207.5t71 -196t44.5 -228t13 -277.5q0 -180 -20.5 -311.5t-73 -266t-151.5 -306.5h-287z" />
<glyph unicode="*" horiz-adv-x="1040" d="M18 1071l61 183l354 -130l22 20l-15 362h178l-13 -369l20 -15l349 128l46 -181l-353 -84l-3 -25l232 -305l-148 -105l-202 316h-27l-212 -320l-148 116l237 298l-10 25z" />
<glyph unicode="+" d="M139 402v234h386v369h259v-369h387v-234h-387v-402h-259v402h-386z" />
<glyph unicode="," horiz-adv-x="654" d="M64 -238l100 412h326l-187 -412h-239z" />
<glyph unicode="-" horiz-adv-x="837" d="M60 371v258h717v-258h-717z" />
<glyph unicode="." horiz-adv-x="654" d="M164 0v287h326v-287h-326z" />
<glyph unicode="/" horiz-adv-x="746" d="M-2 -26l492 1547h260l-487 -1547h-265z" />
<glyph unicode="0" d="M88 713q0 373 136 550t429 177q158 0 267.5 -44.5t176 -137.5t96 -225.5t29.5 -319.5q0 -150 -18.5 -266.5t-60 -210t-107.5 -154t-162.5 -92.5t-223.5 -32q-126 0 -221 32t-160 91.5t-105.5 153t-58 210t-17.5 268.5zM440 713q0 -55 0.5 -93.5t2 -82.5t5 -74.5 t9.5 -63.5t14 -55t19.5 -44t27 -35.5t35 -24t43.5 -15.5t54 -5q46 0 80.5 14.5t58.5 45t40 70.5t25 98t12.5 120.5t3.5 144.5q0 75 -2 128t-7.5 104.5t-15.5 86t-26 64.5t-39 46.5t-54.5 25.5t-72.5 9q-33 0 -60 -7t-48 -19t-37 -33.5t-27 -43.5t-18.5 -55.5t-12 -63.5 t-7 -73.5t-3 -80t-0.5 -88.5z" />
<glyph unicode="1" d="M267 1127l374 278h342v-1407h-351v1082l-261 -201z" />
<glyph unicode="2" d="M123 287q55 35 85.5 54.5t95.5 62.5t107 73t103.5 76t102 82t86.5 81.5t73 83.5t45.5 78.5t18.5 75.5q0 46 -8 83t-22.5 61t-32.5 40.5t-41 25.5t-45 12.5t-48 3.5q-74 0 -159 -27t-208 -93l-100 285q200 66 274.5 81.5t196.5 15.5q58 0 111 -6t108 -21.5t102 -39.5 t88.5 -61.5t70.5 -86.5t46 -116.5t17 -147.5q0 -81 -40 -169t-103 -164.5t-143.5 -149.5t-157.5 -127t-149 -94h620v-259h-999z" />
<glyph unicode="3" d="M97 20l102 285q28 -19 152.5 -52t224.5 -33q59 0 104 18t69.5 47t37 60.5t12.5 63.5q0 31 -6.5 56.5t-17 45t-30 34.5t-39 25.5t-51 17.5t-59.5 11.5t-70.5 6.5t-77.5 2.5t-88 0.5v259h42q63 0 98 0.5t80 4t68.5 10t49.5 18t38 29t20 43t8 59.5q0 47 -21 80t-61 50.5 t-97 17.5q-138 0 -360 -109l-102 285q71 35 224.5 60.5t251.5 25.5q516 0 516 -405q0 -54 -17.5 -100t-48 -79t-72 -58t-87.5 -39.5t-97 -20.5q52 -8 100 -23.5t95.5 -43t83 -63.5t57 -88.5t21.5 -114.5q0 -59 -11.5 -110.5t-32 -92t-50 -74.5t-64 -59t-75.5 -44.5t-83 -32 t-88 -21t-89 -12t-87 -3.5q-292 0 -473 62z" />
<glyph unicode="4" d="M16 629l629 776h392v-776h222v-263h-222v-366h-348v366h-559zM303 629h386v470z" />
<glyph unicode="5" d="M102 16l99 285q80 -33 194 -57t195 -24q67 0 115.5 15.5t74.5 38.5t41.5 58t19.5 65t4 69q0 47 -9.5 82t-25.5 55.5t-40.5 32.5t-48.5 15.5t-57 3.5q-38 0 -72 -4.5t-57 -10.5t-49 -18t-38.5 -19.5t-36.5 -23t-34 -21.5l-218 80v767h976v-261h-628v-248q27 12 59 18 t53 6.5t73 0.5q85 0 159 -16t137.5 -51.5t108.5 -88.5t70 -130.5t25 -173.5q0 -95 -32.5 -177t-89.5 -141t-133.5 -101.5t-165 -63t-183.5 -20.5q-123 0 -260.5 14.5t-225.5 43.5z" />
<glyph unicode="6" d="M104 655q0 82 11 161t35 157.5t59.5 147t88.5 128t118 102t151 67t186 24.5q67 0 177 -14t179 -32l-100 -285q-130 69 -245 69q-56 0 -103.5 -13.5t-80.5 -35.5t-59 -53t-42 -64t-26 -71t-14 -71.5t-4 -68.5q22 43 62 74t83 44t73 18.5t51 5.5q499 0 499 -528 q0 -84 -29.5 -158.5t-81 -128.5t-119 -93.5t-144.5 -59t-158 -19.5q-567 0 -567 697zM455 539q0 -82 12 -141.5t30.5 -93t48.5 -53t59 -25.5t68 -6q28 0 53 6t48.5 20.5t40.5 36.5t27 56t10 78q0 6 1 28.5t1 38.5q0 199 -178 199q-94 0 -143.5 -37t-77.5 -107z" />
<glyph unicode="7" d="M134 1146v256h915l106 -214l-484 -1188h-370l539 1146h-706z" />
<glyph unicode="8" d="M90 366q0 154 86 248.5t250 125.5q-5 2 -16 6q-27 9 -43 15.5t-48 21.5t-52.5 30t-47 39.5t-42.5 51.5t-27 64.5t-11 80.5q0 186 131 289.5t394 103.5q145 0 246 -24t162 -74t88.5 -121.5t27.5 -171.5q0 -61 -23 -113t-57 -85.5t-77 -59t-78.5 -38t-66.5 -17.5 q169 -38 252.5 -124.5t83.5 -247.5q0 -90 -27 -160t-75 -116.5t-120 -76t-157 -42.5t-190 -13q-104 0 -187.5 12.5t-155 41.5t-119 75.5t-74.5 116.5t-27 162zM433 375q0 -29 10 -54.5t32.5 -50t68 -38.5t109.5 -14q224 0 224 157q0 51 -15.5 90t-46 67t-67 47t-88.5 37 q-47 -17 -76 -30t-61 -33t-49.5 -43t-29 -57.5t-11.5 -77.5zM479 1034q0 -23 5.5 -42.5t13.5 -34t23 -28t26.5 -22t32.5 -18t33 -14.5t34 -13q6 -2 8 -3q36 13 56.5 22t50 25t45 32.5t27 41.5t11.5 54q0 19 -0.5 30t-4 28.5t-10 28.5t-20 24t-32 20.5t-47.5 12.5t-67 5 q-41 0 -72.5 -5.5t-51.5 -16.5t-32.5 -23.5t-18.5 -31t-8 -34.5t-2 -38z" />
<glyph unicode="9" d="M108 981q0 84 31.5 158.5t84.5 129t121.5 94t144 59.5t151.5 20q100 0 182 -21t139.5 -57t101.5 -89t70.5 -111.5t43 -131t22.5 -141t6 -146.5q0 -82 -11 -161t-34.5 -157.5t-59 -147t-88 -128t-117.5 -102t-150.5 -67t-185.5 -24.5q-43 0 -108.5 6t-135 17t-115.5 24 l100 284q130 -69 247 -69q78 0 138 25.5t94.5 64t57 91t30 99.5t7.5 97q-23 -43 -62.5 -73.5t-82 -44t-72.5 -19t-51 -5.5q-499 0 -499 526zM455 919q0 -30 3.5 -54t14.5 -53t29.5 -48.5t53 -32.5t80.5 -13q65 0 109.5 19.5t67.5 48.5t41 75q0 82 -11.5 141.5t-30 93t-48 53 t-58 25.5t-68.5 6q-35 0 -65.5 -10.5t-57 -32.5t-41.5 -62t-15 -94q0 -5 -2 -26.5t-2 -35.5z" />
<glyph unicode=":" horiz-adv-x="654" d="M164 0v287h326v-287h-326zM164 759v287h326v-287h-326z" />
<glyph unicode=";" horiz-adv-x="654" d="M64 -238l102 412h324l-187 -412h-239zM166 759v287h327v-287h-327z" />
<glyph unicode="&#x3c;" d="M115 421v324l1079 322v-299l-763 -185l763 -181v-298z" />
<glyph unicode="=" d="M115 128v230h1079v-230h-1079zM115 528v231h1079v-231h-1079z" />
<glyph unicode="&#x3e;" d="M115 104v298l764 186l-764 180v299l1079 -314v-327z" />
<glyph unicode="?" horiz-adv-x="1122" d="M118 1451q73 26 213 48t225 22q47 0 85 -2t91.5 -11.5t94.5 -25t85 -46t73 -72t47.5 -104.5t18.5 -142q0 -56 -21.5 -105.5t-55.5 -86t-75 -69.5t-82.5 -63t-75.5 -59.5t-55.5 -66t-21.5 -76.5v-171h-310v184q0 56 15.5 104.5t40.5 83t57.5 66t66 54t66 47.5t57.5 46.5 t40.5 50.5t15.5 61q0 34 -6 57t-22.5 40.5t-48 26t-80.5 8.5q-70 0 -204 -26t-193 -56zM347 0v285h324v-285h-324z" />
<glyph unicode="@" horiz-adv-x="2151" d="M183 740q0 119 26.5 222t74.5 183t116.5 144t151 109t180 74.5t202.5 43.5t219 14q70 0 142.5 -8.5t154 -30t155 -54.5t141 -85t116.5 -117t78.5 -156t29.5 -198q0 -100 -24 -183t-65 -143t-100.5 -106.5t-126 -76t-147 -48t-157.5 -25.5t-162 -7q-285 0 -426.5 116.5 t-141.5 339.5q0 75 16 138.5t53.5 119.5t94.5 95t143.5 61.5t196.5 22.5q49 0 109.5 -6t104.5 -13t64 -13v-308l31 -5l82 -224l-397 -28v347q-5 2 -9 5.5t-6.5 5t-5.5 1.5h-21q-148 0 -148 -202q0 -60 17.5 -104t41.5 -67t59 -36t60 -16t53 -3h33q48 0 75 0.5t69.5 2.5t67 7 t59.5 14t55.5 22.5t45.5 33t39 46t27 60.5t18.5 78t5.5 96q0 58 -10 108t-28 88t-44.5 69t-56 52.5t-66 38t-71.5 26.5t-75.5 16t-76 8t-73.5 2q-48 0 -86.5 -2t-110.5 -13t-127.5 -31t-121 -60.5t-108.5 -96.5t-72.5 -144.5t-29.5 -199.5q0 -543 658 -543h11q177 0 495 70 l110 -260q-299 -53 -612 -53q-168 0 -313 28t-268 89t-210 152t-136 222.5t-49 294.5z" />
<glyph unicode="A" horiz-adv-x="1630" d="M62 0l609 1497h334l565 -1497h-390l-120 377h-495l-125 -377h-378zM662 643h308l-148 475z" />
<glyph unicode="B" horiz-adv-x="1497" d="M212 0v1497h591q71 0 133 -9t119.5 -28.5t102.5 -52.5t79 -78.5t52 -110t18 -142.5q0 -114 -65.5 -189t-172.5 -103q144 -14 226 -99.5t82 -240.5q0 -100 -27 -177.5t-73 -127t-111 -81.5t-135 -45t-152 -13h-667zM565 271h301q27 0 53.5 10t49 30t36 54.5t13.5 78.5 q0 97 -49 144.5t-129 47.5h-275v-365zM565 905h270q54 0 85 44.5t31 124.5q0 16 -2.5 33.5t-12 39.5t-24.5 39t-43.5 28.5t-65.5 11.5h-238v-321z" />
<glyph unicode="C" horiz-adv-x="1367" d="M132 748q0 92 11 175t36.5 162.5t64.5 145.5t97 122t132 95t172.5 60.5t215.5 21.5q97 0 212 -17.5t199 -45.5l-106 -294q-55 24 -76.5 32.5t-67.5 24.5t-84 22.5t-77 6.5q-192 0 -279 -123t-87 -386q0 -278 81.5 -401.5t271.5 -123.5q37 0 70.5 4.5t70.5 16.5t59.5 20 t68.5 28t66 28l106 -294q-107 -38 -207 -56t-228 -18q-156 0 -277.5 36.5t-204.5 103.5t-137 166.5t-78.5 219.5t-24.5 268z" />
<glyph unicode="D" horiz-adv-x="1607" d="M212 0v1497h550q143 0 254 -24.5t199 -79t145 -140.5t87 -210.5t30 -287.5q0 -208 -43 -352.5t-133.5 -233.5t-221.5 -129t-317 -40h-550zM565 271h217q41 0 72.5 3.5t68 15.5t62.5 32.5t51.5 56.5t41.5 86t25.5 123t9.5 165q0 77 -7.5 140.5t-18.5 110t-31.5 82.5 t-38.5 59t-47 39.5t-49 24.5t-54 12t-52 4.5t-52 0.5h-1h-197v-955z" />
<glyph unicode="E" horiz-adv-x="1394" d="M212 0v1497h919v-271h-566v-316h518v-272h-518v-367h588v-271h-941z" />
<glyph unicode="F" horiz-adv-x="1246" d="M212 0v1497h919v-273h-566v-323h539v-269h-539v-632h-353z" />
<glyph unicode="G" horiz-adv-x="1510" d="M132 750q0 117 19 218.5t57.5 189t99.5 156t142 117t188 74t234 25.5q49 0 124 -10t144.5 -24t125.5 -29l-107 -294q-4 2 -37 16.5t-42 18t-37.5 15t-43 15.5t-38.5 10.5t-44.5 8.5t-41.5 2q-47 0 -85.5 -5.5t-78.5 -19.5t-71 -38t-59 -63t-46.5 -91.5t-29 -126 t-10.5 -165.5q0 -111 11.5 -193.5t37 -146.5t68 -104t103.5 -60.5t144 -20.5q84 0 123 7t85 35v293h-331v271h644v-741q-121 -74 -236.5 -105t-291.5 -31q-121 0 -221.5 23t-173.5 63.5t-130 99.5t-93 126.5t-59.5 149t-33 163t-9.5 171.5z" />
<glyph unicode="H" horiz-adv-x="1652" d="M212 0v1497h353v-587h523v587h352v-1497h-352v636h-523v-636h-353z" />
<glyph unicode="I" horiz-adv-x="720" d="M185 0v1497h352v-1497h-352z" />
<glyph unicode="J" horiz-adv-x="1075" d="M28 0q18 4 55 10q58 11 88 17.5t83 23t82.5 35t68 51.5t58.5 74t34.5 102t14.5 136v1048h351v-1025q0 -109 -24.5 -201.5t-62 -160t-100.5 -126t-120.5 -96.5t-142 -74t-145 -56t-148.5 -45z" />
<glyph unicode="K" horiz-adv-x="1605" d="M212 0v1497h353v-607l499 607h398l-568 -700l682 -797h-454l-557 662v-662h-353z" />
<glyph unicode="L" horiz-adv-x="1168" d="M212 0v1497h353v-1219h592v-278h-945z" />
<glyph unicode="M" horiz-adv-x="2237" d="M212 0v1497h591l324 -1029l335 1029h567v-1497h-349v1122l-377 -1122h-378l-375 1122v-1122h-338z" />
<glyph unicode="N" horiz-adv-x="1742" d="M212 0v1497h528l443 -1080v1080h347v-1497h-532l-448 1080v-1080h-338z" />
<glyph unicode="O" horiz-adv-x="1727" d="M132 742q0 136 24 251t79 215.5t139 170.5t210 110.5t286 40.5q157 0 280 -37.5t206 -105t137.5 -167t79 -217t24.5 -261.5q0 -137 -23.5 -252.5t-77.5 -216t-136.5 -170.5t-207.5 -109.5t-284 -39.5q-118 0 -217 20t-174 57t-133.5 91.5t-98 120t-65 146.5t-37 167.5 t-11.5 185.5zM495 742q0 -89 8.5 -160.5t23.5 -125t39.5 -93.5t54 -66.5t69 -42.5t82.5 -22.5t96 -6.5q189 0 277.5 122t88.5 395q0 118 -16.5 206.5t-46 147.5t-76 95.5t-101.5 52t-126 15.5q-92 0 -158.5 -26t-116 -85t-74 -160t-24.5 -246z" />
<glyph unicode="P" horiz-adv-x="1438" d="M212 0v1497h572q96 0 174.5 -13.5t149 -46t118 -84t75.5 -132t28 -184.5q0 -474 -519 -474h-245v-563h-353zM565 833h226q34 0 64.5 10t57.5 32.5t43 64t16 97.5q0 40 -7.5 70.5t-17 50t-27.5 33.5t-32 20.5t-37.5 10t-35.5 4t-35 0.5h-215v-393z" />
<glyph unicode="Q" horiz-adv-x="1727" d="M132 742q0 136 23.5 250.5t78.5 215.5t138.5 171t210 110.5t287.5 40.5q157 0 280 -37.5t206 -105t137.5 -167t79 -217t24.5 -261.5q0 -137 -23.5 -252.5t-77.5 -216t-136.5 -170.5t-207.5 -109.5t-284 -39.5q-118 0 -217 20t-174 57t-133.5 91.5t-98 120t-65 146.5 t-37 167.5t-11.5 185.5zM495 742q0 -89 8.5 -160.5t23.5 -125t39.5 -93.5t54 -66.5t69 -42.5t82.5 -22.5t96 -6.5q189 0 277.5 122t88.5 395q0 118 -16.5 206.5t-46 147.5t-76 95.5t-101.5 52t-126 15.5q-92 0 -158.5 -26t-116 -85t-74 -160t-24.5 -246zM755 -296l117 192 l539 -51l-117 -222z" />
<glyph unicode="R" horiz-adv-x="1550" d="M212 0v1497h607q55 0 104.5 -5t103 -18.5t98 -34.5t85.5 -56.5t69 -81t44.5 -110t16.5 -142.5q0 -60 -10.5 -114t-35.5 -106.5t-63.5 -94t-98 -74t-134.5 -49.5l455 -611h-433l-435 599h-20v-599h-353zM565 870h268q68 0 109 50t41 129q0 80 -37 128.5t-115 48.5h-266 v-356z" />
<glyph unicode="S" horiz-adv-x="1424" d="M144 28l106 294q5 -2 36.5 -14t41 -15.5t39 -14t43 -14.5t40 -12t44 -11.5t40.5 -8t43.5 -6t40.5 -1.5q52 0 90 2t75 8t61.5 17.5t43.5 28.5t28 43t9 60q0 46 -26.5 83t-72 64t-104 50.5t-123.5 48t-129.5 52t-123 66.5t-104 87t-72 118t-26.5 156q0 73 25 135.5t69 108 t101.5 80t125.5 55.5t137.5 31.5t139.5 10.5q31 0 71 -3t85.5 -9t91.5 -14t91 -19t81 -23l-107 -294q-12 6 -49.5 23.5t-58.5 25.5t-56.5 20t-72.5 17t-78 5q-62 0 -109 -12t-71 -28t-38.5 -38.5t-18.5 -39t-4 -32.5q0 -28 15.5 -52t35 -40.5t61.5 -36t70 -30t86 -30.5 q66 -23 101.5 -36t98.5 -41.5t99.5 -53.5t83 -67t71.5 -87.5t43.5 -109t18.5 -136.5q0 -79 -19.5 -142.5t-52 -108.5t-82.5 -78t-104.5 -53t-125 -32.5t-137 -16.5t-146.5 -4q-92 0 -230 23t-242 51z" />
<glyph unicode="T" horiz-adv-x="1237" d="M46 1224v273h1146v-273h-395v-1224h-355v1224h-396z" />
<glyph unicode="U" horiz-adv-x="1723" d="M212 553v944h353v-921q0 -65 10 -117.5t26.5 -88.5t41.5 -63t51 -42.5t59 -24.5t61.5 -12t62.5 -3q58 0 106 18t89 57t64 109.5t23 166.5v921h352v-949q0 -293 -166 -443.5t-468 -150.5q-329 0 -497 150t-168 449z" />
<glyph unicode="V" horiz-adv-x="1563" d="M62 1497h389l348 -1073l325 1073h378l-548 -1497h-327z" />
<glyph unicode="W" horiz-adv-x="2339" d="M77 1497h372l215 -1078l317 1016h445l243 -1014l247 1076h347l-377 -1497h-442l-271 974l-333 -974h-442z" />
<glyph unicode="X" horiz-adv-x="1524" d="M67 0l500 773l-439 724h404l241 -417l259 417h377l-455 -715l490 -782h-415l-274 490l-311 -490h-377z" />
<glyph unicode="Y" horiz-adv-x="1499" d="M31 1497h400l326 -523l329 523h383l-550 -824v-673h-352v664z" />
<glyph unicode="Z" horiz-adv-x="1323" d="M97 282l751 942h-665v273h956l87 -282l-745 -942h727v-273h-1023z" />
<glyph unicode="[" horiz-adv-x="742" d="M192 -294v1858h442v-219h-183v-1412h183v-227h-442z" />
<glyph unicode="\" horiz-adv-x="746" d="M-2 1521h259l493 -1547h-266z" />
<glyph unicode="]" horiz-adv-x="742" d="M141 -67h183v1409h-183v220h442v-1858h-442v229z" />
<glyph unicode="^" d="M69 623l419 874h322l428 -874h-284l-301 669l-306 -669h-278z" />
<glyph unicode="_" horiz-adv-x="1157" d="M-2 -44h1161v-241h-1161v241z" />
<glyph unicode="`" horiz-adv-x="614" d="M44 1497h305l223 -271h-208z" />
<glyph unicode="a" horiz-adv-x="1256" d="M95 278q0 67 17.5 124t60 108.5t108 87.5t168 57t234.5 21h81v35q0 15 -0.5 24t-3 25t-6.5 26.5t-13 23t-21.5 20t-32 13t-44.5 5.5q-70 0 -145.5 -13.5t-138.5 -34t-116 -45.5l-109 259q58 19 125.5 34t136 24t136.5 13.5t132 4.5q74 0 137 -12.5t115.5 -39.5t89 -66.5 t57 -95t20.5 -123.5v-429q0 -48 20.5 -167.5t25.5 -156.5h-303q-1 0 -23 54l-19 43q-3 -2 -21 -16t-24.5 -19t-25 -18.5t-29.5 -20t-29 -17t-32.5 -16t-32 -12t-35 -9t-34.5 -2.5q-426 0 -426 311zM424 292q0 -23 10.5 -38.5t25.5 -24t39 -13t42.5 -5.5t43.5 -1 q77 0 181 117v122h-51q-103 0 -168 -18t-94 -52.5t-29 -86.5z" />
<glyph unicode="b" horiz-adv-x="1274" d="M118 0q3 27 8.5 67t8.5 63t6.5 56t5 66.5t1.5 71.5v1197h318v-593q26 35 52 62t59 51t73 36.5t86 12.5q93 0 168.5 -29.5t126 -81t84.5 -122.5t49.5 -151.5t15.5 -171.5t-20 -175t-60.5 -155.5t-97.5 -124t-137 -82.5t-173 -30q-48 0 -89.5 14t-70 35.5t-46 41.5 t-27.5 39l-47 -97h-294zM461 375q69 -165 175 -165q33 0 60 6t58 26.5t52.5 53.5t36 93t14.5 141q0 44 -3.5 82t-9.5 67.5t-15 53.5t-19.5 41t-23.5 30t-26.5 21.5t-29.5 13.5t-31 7t-32 2q-20 0 -38 -7t-36 -23t-31.5 -30.5t-32.5 -43.5t-30 -47t-32 -54q-4 -8 -6 -11v-257 z" />
<glyph unicode="c" horiz-adv-x="1102" d="M95 521q0 129 35.5 233.5t104 179.5t175 115.5t243.5 40.5q67 0 184.5 -25.5t180.5 -50.5l-108 -259q-4 2 -13 6q-53 27 -84 41.5t-79.5 30t-83.5 15.5q-47 0 -80.5 -8t-63.5 -29.5t-48 -57.5t-28.5 -94t-10.5 -138q0 -311 228 -311q93 0 274 93l108 -259 q-57 -28 -187 -52.5t-197 -24.5q-132 0 -236.5 41t-173 114.5t-104.5 175t-36 223.5z" />
<glyph unicode="d" horiz-adv-x="1274" d="M95 534q0 90 16 170.5t50.5 151.5t85 123t124.5 81.5t163 29.5q154 0 276 -162v593h317v-1197q0 -47 3 -92.5t5.5 -70.5t10.5 -80t11 -81h-294l-46 97q-10 -19 -28 -39t-46.5 -41.5t-70.5 -35.5t-89 -14q-107 0 -191 30.5t-139 82t-91 125t-51.5 154.5t-15.5 175z M419 530q0 -82 10.5 -140.5t28 -93t47 -54t60 -26t73.5 -6.5q108 0 177 165v257q-5 8 -16 26l-30 49.5t-28 43.5t-31 40.5t-30.5 28.5t-35.5 21.5t-37 6.5q-33 0 -58 -6.5t-50.5 -26.5t-42 -54t-27 -92.5t-10.5 -138.5z" />
<glyph unicode="e" horiz-adv-x="1250" d="M95 519q0 55 7 109t25 111.5t45 107.5t69 95.5t95 78t126 51t158 18.5q151 0 253 -40t164 -127.5t89 -215.5t27 -314h-727q14 -68 48.5 -112t79 -62t101.5 -18q69 0 155.5 24.5t170.5 66.5l105 -241q-63 -28 -140 -47t-154.5 -28t-155.5 -9q-103 0 -191.5 29t-152 80.5 t-108.5 121t-67 151t-22 170.5zM428 627h407q-5 52 -18.5 91t-33 63t-46 39.5t-54 21.5t-60.5 6q-20 0 -38.5 -3t-48 -15.5t-51 -34.5t-38.5 -65.5t-19 -102.5z" />
<glyph unicode="f" horiz-adv-x="772" d="M20 815v243h161v25q0 86 23.5 154t65 116t107.5 84.5t140 59.5t172 42l112 -256q-61 -8 -106.5 -18t-84 -26t-62.5 -38.5t-37.5 -55t-13.5 -74.5v-13h195v-243h-195v-815h-316v815h-161z" />
<glyph unicode="g" horiz-adv-x="1316" d="M88 -166q0 36 11.5 66.5t25 48.5t38 36t37 24.5t34.5 16.5q-70 33 -98 84t-28 122q0 53 37.5 103t95.5 89q-100 125 -100 261q0 20 2.5 41t7.5 48t15 53t24.5 54t36.5 53t49.5 49t65 43t82 34t101.5 22.5t122 7.5q28 0 53.5 -1.5t41 -4t42 -6.5t42.5 -7q337 27 433 31 l-76 -206h-121q97 -116 97 -216q0 -39 -6 -77t-22 -79.5t-41 -77t-65 -68t-91 -55t-123 -36.5t-158 -14q-41 0 -118.5 9t-117.5 25q-18 -1 -30 -18t-12 -44q0 -21 11.5 -34t48.5 -23.5t94.5 -17t159.5 -13.5q135 -10 229.5 -27t156.5 -41.5t96.5 -61.5t48.5 -80.5t14 -105.5 q0 -59 -23 -107t-64 -81.5t-94.5 -58.5t-118.5 -39t-131 -20.5t-136 -6.5q-110 0 -198 10t-151 29.5t-108 46t-71.5 61.5t-38.5 74t-12 85zM409 -155q0 -21 26 -39.5t65 -29.5t83 -17t84 -6q75 0 120.5 3.5t74.5 13.5t39.5 26.5t10.5 44.5q0 12 -12 23t-45 22t-84 19.5 t-136 14t-195 5.5q-31 -34 -31 -80zM459 680q0 -168 196 -168q51 0 89.5 17t58.5 44.5t29.5 56.5t9.5 59q0 165 -189 165q-19 0 -32 -0.5t-35 -4t-37.5 -10t-33.5 -19.5t-29.5 -31t-19 -46t-7.5 -63z" />
<glyph unicode="h" horiz-adv-x="1261" d="M148 0v1521h318v-593q3 3 23.5 27.5t41 44t51 43t69 37t80.5 13.5q69 0 124 -11t95.5 -30.5t70.5 -49.5t49.5 -65t31 -80.5t16 -92.5t4.5 -104v-660h-316v704q0 25 -1.5 41t-8.5 38.5t-20 35.5t-38.5 23t-61.5 10q-19 0 -37.5 -6.5t-33.5 -16t-31.5 -27.5t-28 -32.5 t-28 -41t-26 -42.5t-25.5 -45v-641h-318z" />
<glyph unicode="i" horiz-adv-x="614" d="M144 1248v249h328v-249h-328zM150 0v1058h316v-1058h-316z" />
<glyph unicode="j" horiz-adv-x="610" d="M-75 -238q121 26 168.5 77t47.5 154v1065h318v-1044q0 -88 -24 -161t-62 -124.5t-95.5 -95.5t-113 -72.5t-127.5 -55.5zM132 1248v249h336v-249h-336z" />
<glyph unicode="k" horiz-adv-x="1179" d="M148 0v1521h318v-871l296 408h340l-338 -459l393 -599h-360l-331 519v-519h-318z" />
<glyph unicode="l" horiz-adv-x="612" d="M148 0v1521h318v-1521h-318z" />
<glyph unicode="m" horiz-adv-x="1919" d="M118 1058h294l43 -133q11 16 30 36t47.5 43.5t59 43t68 32.5t71.5 13q94 0 147.5 -11.5t96 -42t99.5 -97.5q45 74 127.5 112.5t196.5 38.5q190 0 282.5 -102.5t92.5 -314.5v-676h-318v671q0 57 -7.5 94.5t-23.5 55.5t-33.5 24.5t-43.5 6.5q-43 0 -81 -19.5t-66.5 -52.5 t-49.5 -70t-37 -81v-629h-316v671q0 42 -3 71.5t-10 49.5t-16 32t-25 18t-32 8t-42 2q-18 0 -36.5 -7.5t-33 -17.5t-31.5 -28.5t-27.5 -31.5t-25 -36t-20 -33.5t-17 -31.5t-12.5 -23v-643h-318v815q0 50 -14 132.5t-16 110.5z" />
<glyph unicode="n" horiz-adv-x="1270" d="M118 1058h294l47 -130q5 5 31.5 32.5t46.5 45t51.5 40.5t68.5 35t76 12q69 0 124 -11t95 -31t70 -50t49 -64.5t30.5 -79.5t16 -90t4.5 -100v-667h-316v687q0 22 -0.5 33.5t-3 31.5t-7 31.5t-14 26.5t-23 23t-34.5 13.5t-48 5.5q-20 0 -39 -6.5t-35 -17t-32.5 -28 t-29 -33.5t-27 -40t-24.5 -42t-23 -44v-641h-318v833q0 40 -4.5 76t-14 85.5t-11.5 63.5z" />
<glyph unicode="o" horiz-adv-x="1288" d="M95 534q0 91 19 171.5t61.5 152t105.5 123.5t156.5 82t207.5 30q117 0 210.5 -29t156 -79t104.5 -121.5t60 -153t18 -176.5q0 -93 -19 -175.5t-61 -155.5t-105 -125t-156 -82.5t-208 -30.5t-208.5 30t-156.5 82.5t-105 125t-61 155.5t-19 176zM419 534q0 -328 226 -328 q225 0 225 328q0 96 -14 159t-44 97.5t-69.5 48t-97.5 13.5q-44 0 -77 -8t-62 -29t-47.5 -56.5t-29 -91.5t-10.5 -133z" />
<glyph unicode="p" horiz-adv-x="1274" d="M118 1058h294l51 -130q16 21 21.5 28t24.5 29t31.5 32.5t35 27.5t42 25.5t46 15.5t54.5 7q97 0 175.5 -30.5t131 -82.5t88 -125t51.5 -155.5t16 -176.5q0 -90 -16.5 -171t-52 -152t-86.5 -123t-125.5 -82t-163.5 -30q-68 0 -147.5 35t-122.5 95v-512h-318v1146 q0 51 -3 96t-6 71.5t-10 77t-11 84.5zM459 380q42 -83 99 -128.5t111 -45.5q32 0 57 6.5t50.5 27t42.5 55t27.5 94t10.5 139.5q0 83 -11 142.5t-29 94.5t-48 55t-60.5 26t-74.5 6q-19 0 -38.5 -12t-34 -27t-33.5 -45t-29.5 -49.5t-29.5 -56.5q-7 -13 -10 -19v-263z" />
<glyph unicode="q" horiz-adv-x="1274" d="M95 523q0 77 12.5 148t37 135t63.5 116.5t89 90.5t117 59t144 21q28 0 54.5 -7t46 -15.5t42 -25.5t34.5 -27.5t31 -32.5t24.5 -29t21.5 -28l51 130h294q-4 -34 -11 -84.5t-10.5 -77t-6 -71.5t-2.5 -96v-1146h-317v512q-43 -60 -124 -95t-149 -35q-99 0 -176 30t-126 81.5 t-81.5 124t-45.5 151.5t-13 171zM419 528q0 -80 10.5 -139.5t27.5 -94t42.5 -55t50.5 -27t57 -6.5q53 0 109.5 45.5t98.5 128.5v263q-5 10 -15 29l-24 45t-22.5 40.5t-25.5 39t-25.5 28t-29 21t-30.5 6.5q-38 0 -65 -4.5t-54.5 -16.5t-45 -34.5t-32 -58t-21 -88t-6.5 -122.5 z" />
<glyph unicode="r" horiz-adv-x="929" d="M118 1058h294l47 -146q17 28 37.5 55t50.5 57.5t67.5 49.5t74.5 19q111 0 207 -29l-107 -256q-29 25 -59 34.5t-72 9.5q-23 0 -44 -9t-37 -21.5t-31.5 -33t-25.5 -37.5t-21.5 -42t-16.5 -37.5t-12 -33.5q-3 -7 -4 -11v-627h-318v822q0 46 -6 91t-14.5 87.5t-9.5 57.5z " />
<glyph unicode="s" horiz-adv-x="1084" d="M84 42l108 259q31 -11 79.5 -31t79.5 -32t75 -22t86 -10q44 0 75 5t47 12t25 18.5t10.5 20t1.5 20.5v7q0 14 -9.5 25t-34 21t-44 15.5t-60.5 16.5q-34 9 -52.5 14t-53.5 16t-56.5 20.5t-53.5 24.5t-52.5 32t-46 39t-40.5 48.5t-29.5 57.5t-21 69.5t-6.5 82.5 q0 56 14.5 102.5t38.5 79.5t60.5 58t76 40.5t88.5 25t95 13t99 3.5q163 0 380 -66l-106 -256q-47 21 -62 27.5t-50 21t-54.5 19t-48 9t-57.5 4.5q-81 0 -115.5 -18t-34.5 -57q0 -21 15.5 -39t42.5 -30t63 -24.5t76.5 -23.5t83 -27.5t83 -35t76 -47t62.5 -63.5t43 -85 t16 -110q0 -77 -29 -135.5t-75 -94t-111.5 -58t-131.5 -31t-142 -8.5q-87 0 -205.5 22.5t-217.5 54.5z" />
<glyph unicode="t" horiz-adv-x="735" d="M26 815v245h159v289h314v-289h205v-245h-205v-581q0 -52 12 -87.5t39.5 -62.5t67 -45t102.5 -37l-119 -256q-59 22 -107.5 46.5t-97.5 57.5t-85.5 73.5t-65.5 90.5t-44.5 114t-15.5 139v548h-159z" />
<glyph unicode="u" horiz-adv-x="1254" d="M148 391v667h318v-687q0 -28 1 -46t8 -43t19 -39.5t36 -25.5t58 -11q19 0 37 6.5t32 15t29.5 26t26 31t25 38.5t22.5 39.5t22 42.5q5 8 7 12v641h317v-833q0 -31 3.5 -64t7.5 -55t10.5 -55t9.5 -51h-295l-45 130q-8 -7 -22 -22.5t-27.5 -29.5t-31.5 -31.5t-37.5 -31 t-42.5 -25.5t-50 -18.5t-56 -6.5q-89 0 -156.5 21.5t-110 58t-69 92t-36.5 116.5t-10 138z" />
<glyph unicode="v" horiz-adv-x="1297" d="M79 1058h338l241 -694l228 694h333l-411 -1058h-320z" />
<glyph unicode="w" horiz-adv-x="1943" d="M60 1058h336l220 -674l226 586h315l218 -588l180 676h329l-345 -1058h-336l-210 599l-238 -599h-336z" />
<glyph unicode="x" horiz-adv-x="1193" d="M51 0l382 534l-356 524h349l181 -294l190 294h327l-362 -508l382 -550h-351l-199 312l-212 -312h-331z" />
<glyph unicode="y" horiz-adv-x="1276" d="M79 1058h338l217 -658l232 658h333l-466 -1228q-21 -58 -48 -108.5t-65.5 -101.5t-84.5 -92t-108 -77t-135 -60l-109 258q91 24 138 61.5t65 88.5l93 245z" />
<glyph unicode="z" horiz-adv-x="1066" d="M49 259l609 556h-526v243h780l106 -259l-599 -556h557v-243h-819z" />
<glyph unicode="{" horiz-adv-x="939" d="M111 495v238q42 2 73 19t48 38.5t30 66t17.5 73.5t11.5 89q7 54 11 82t14.5 79t25 80.5t37.5 71t55.5 65.5t76.5 48.5t104 37t133 14.5v-238q-41 0 -71 -14.5t-46.5 -39.5t-28 -59t-16 -73.5t-10.5 -83.5t-11.5 -87.5t-19 -87t-33 -80.5t-53.5 -69.5t-79 -53.5 q51 -18 88 -52.5t56 -76t31 -90.5t17 -98.5t10 -97.5t14.5 -89.5t26 -73.5t48 -50t77.5 -18v-238q-64 1 -118.5 12t-95 26t-73.5 42t-55.5 49.5t-40.5 61t-28 64.5t-18.5 71.5t-12 70.5t-9.5 72q-6 51 -10 76.5t-12.5 66t-21 62t-31 45.5t-46.5 35t-65 14z" />
<glyph unicode="|" horiz-adv-x="654" d="M194 -384v2009h267v-2009h-267z" />
<glyph unicode="}" horiz-adv-x="939" d="M194 -35q47 0 78.5 18t47.5 50t25.5 73.5t14 89.5t9.5 97.5t16.5 98.5t31 90.5t56 76t87.5 52.5q-64 29 -104.5 81t-57 110.5t-25.5 123.5t-15.5 123.5t-21 106t-49.5 75.5t-93 28v238q66 -2 121 -13.5t95.5 -27t74 -43t56 -50.5t40.5 -62.5t28 -66t19 -72.5t12.5 -70.5 t8.5 -72.5q7 -60 11.5 -89t17 -73.5t29.5 -66t48 -38.5t73 -19v-238q-37 -3 -64.5 -14t-46.5 -35t-31 -45.5t-20.5 -62t-12.5 -66t-10 -76.5q-5 -47 -8.5 -72t-12 -70.5t-18.5 -71.5t-28 -64.5t-40 -61t-55 -49.5t-73 -42t-94.5 -26t-119.5 -12v238z" />
<glyph unicode="~" d="M71 497q0 60 21 114.5t61 99.5t106 72t150 27q70 0 138 -22t115.5 -54t85 -63.5t61.5 -54t31 -22.5q42 0 67.5 5.5t47.5 23t31.5 53.5t9.5 95l245 -133q0 -59 -20.5 -113t-60 -99.5t-107.5 -72t-155 -26.5q-61 0 -123 22.5t-108.5 54.5t-85.5 64.5t-68 55t-43 22.5 q-41 0 -67.5 -6.5t-47.5 -25.5t-30.5 -55.5t-9.5 -94.5z" />
<glyph unicode="&#xa1;" horiz-adv-x="654" d="M164 1212v285h324v-285h-324zM172 0v1062h312v-1062h-312z" />
<glyph unicode="&#xa2;" horiz-adv-x="1102" d="M95 521q0 228 107.5 373.5t313.5 183.5v220h250v-220q68 -12 141 -30.5t111 -33.5l-108 -259l-42 21t-54.5 27t-47.5 21v-592q49 19 155 71l108 -259q-72 -37 -263 -64v-212h-250v212q-203 37 -312 181t-109 360zM419 521q0 -113 26.5 -176.5t70.5 -106.5v586 q-31 -23 -51 -55.5t-33 -95t-13 -152.5z" />
<glyph unicode="&#xa3;" d="M97 655v239h179l2 53q0 271 189 430.5t553 181.5l91 -287q-73 0 -120.5 -2t-104 -10t-92 -23.5t-71.5 -43t-55.5 -67.5t-32 -98.5t-12.5 -133.5h328v-239h-324v-377h634v-278h-1129v278h144v377h-179z" />
<glyph unicode="&#xa5;" d="M-7 1497h391l278 -537l285 537h369l-428 -717h205v-236h-269v-95h269v-234h-269v-215h-352v215h-271v234h271v95h-271v236h204z" />
<glyph unicode="&#xa7;" horiz-adv-x="1036" d="M53 773q0 80 32 141.5t85 94.5q-80 83 -80 199q0 57 15 103.5t39.5 79t61.5 58t77 40.5t89.5 24.5t96 13t98.5 3.5q141 0 358 -66l-108 -254q-18 8 -45.5 21t-47.5 21.5t-45.5 18t-52.5 14t-56 4.5q-42 0 -71.5 -4.5t-49 -13.5t-28.5 -23t-9 -33q0 -22 16 -40t43.5 -30 t64 -25t77.5 -24t84.5 -27.5t84.5 -35.5t77.5 -48t64 -64t43.5 -85.5t16 -111.5q0 -148 -93 -234q45 -82 45 -201q0 -76 -28 -134.5t-73.5 -94t-109.5 -58t-129.5 -31t-141.5 -8.5q-153 0 -386 77l109 256q20 -9 62 -29.5t67.5 -31.5t68 -21.5t85.5 -10.5q42 0 72 5t45.5 11 t24.5 16.5t11 18.5t2 19v14q0 20 -16 36t-43 26.5t-62.5 21.5t-76 21t-83 25.5t-83 34t-76.5 48.5t-63 66.5t-42.5 89.5t-15.5 117zM368 773q0 -14 8 -26.5t25 -24t34 -20t46.5 -19t51 -17.5t58 -18.5t56.5 -18.5q22 22 22 60v33q0 25 -18.5 47.5t-53.5 41.5t-76.5 34.5 t-96.5 31.5q-56 -27 -56 -104z" />
<glyph unicode="&#xa8;" horiz-adv-x="614" d="M-18 1259v238h277v-238h-277zM358 1259v238h278v-238h-278z" />
<glyph unicode="&#xa9;" horiz-adv-x="1665" d="M58 750.5q0 160.5 60.5 304t164 246t247 162.5t303.5 60q162 0 306 -59.5t247 -161.5t162.5 -245.5t59.5 -306.5q0 -160 -60.5 -303.5t-164 -246t-247 -163t-303.5 -60.5t-303.5 60.5t-247 163t-164 246t-60.5 304zM241 750q0 -97 29.5 -188.5t84 -166t127 -131 t163 -87.5t188.5 -31q121 0 231.5 48.5t189.5 130t125.5 193t46.5 232.5q0 123 -46 234t-124.5 192.5t-189 129.5t-233.5 48q-124 0 -234.5 -48t-188.5 -129t-123.5 -192t-45.5 -235zM421 745q0 78 12.5 144.5t43.5 128t78.5 104t122 68t170.5 25.5q60 0 127 -9.5t115 -25.5 l-65 -173q-38 17 -59 25.5t-54.5 17t-63.5 8.5q-113 0 -163.5 -75t-50.5 -235q0 -169 48 -245.5t160 -76.5q18 0 37.5 3t30.5 5t33.5 10t28 10.5t34 15t31.5 14.5l62 -174q-110 -41 -254 -41q-114 0 -197 33t-132 97t-72 149t-23 197z" />
<glyph unicode="&#xaa;" d="M342 1058q0 30 7.5 57t23.5 52.5t43.5 45.5t65.5 35.5t92 23.5t120 8h46v25q0 12 -0.5 18t-4 15.5t-10.5 14t-21.5 8.5t-34.5 4q-122 0 -238 -53l-65 150q131 44 317 44q75 0 133 -19t94.5 -61.5t36.5 -104.5v-238q0 -21 4.5 -50t12 -67.5t10.5 -60.5h-197l-9 23 q-12 32 -13 32q-28 -20 -45 -31.5t-51 -26t-62 -14.5q-255 0 -255 170zM541 1067q0 -17 10.5 -25.5t23 -10.5t34.5 -2h25q58 0 111 54v65h-32q-96 0 -134 -18.5t-38 -62.5z" />
<glyph unicode="&#xab;" horiz-adv-x="1001" d="M42 625l215 421h287l-224 -417l221 -417h-284zM461 625l215 421h284l-224 -417l222 -417h-282z" />
<glyph unicode="&#xac;" d="M81 579v233h1136v-631h-259v398h-877z" />
<glyph unicode="&#xad;" horiz-adv-x="837" d="M60 371v258h717v-258h-717z" />
<glyph unicode="&#xae;" horiz-adv-x="1665" d="M58 750.5q0 160.5 60.5 304t164 246t247 162.5t303.5 60q162 0 306 -59.5t247 -161.5t162.5 -245.5t59.5 -306.5q0 -160 -60.5 -303.5t-164 -246t-247 -163t-303.5 -60.5t-303.5 60.5t-247 163t-164 246t-60.5 304zM241 750q0 -97 29.5 -188.5t84 -166t127 -131 t163 -87.5t188.5 -31q121 0 231.5 48.5t189.5 130t125.5 193t46.5 232.5q0 123 -46 234t-124.5 192.5t-189 129.5t-233.5 48q-124 0 -234.5 -48t-188.5 -129t-123.5 -192t-45.5 -235zM490 298v903h358q45 0 85 -6.5t82 -24.5t72 -47.5t49 -79.5t19 -115q0 -37 -6 -69.5 t-21 -63.5t-37 -55.5t-56.5 -43.5t-78.5 -29l263 -369h-252l-254 364h-15v-364h-208zM698 819h159q39 0 63.5 30t24.5 79t-23.5 80.5t-67.5 31.5h-156v-221z" />
<glyph unicode="&#xaf;" horiz-adv-x="614" d="M-7 1234v219h630v-219h-630z" />
<glyph unicode="&#xb0;" horiz-adv-x="1040" d="M99 1013.5q0 116.5 57.5 212.5t154 149t210.5 53t209.5 -53t152 -149t56.5 -212q0 -117 -57 -211t-153 -145t-210 -51t-210 51t-153 145t-57 210.5zM292 1014q0 -94 68 -162t159 -68q90 0 159.5 68t69.5 162q0 102 -64 168t-163 66q-100 0 -164.5 -66t-64.5 -168z" />
<glyph unicode="&#xb1;" d="M115 -2v234h1079v-234h-1079zM139 541v234h386v230h259v-230h387v-234h-387v-263h-259v263h-386z" />
<glyph unicode="&#xb4;" horiz-adv-x="614" d="M44 1226l223 271h305l-318 -271h-210z" />
<glyph unicode="&#xb5;" d="M176 -417v1475h317v-687q0 -27 1 -45.5t8 -43t19.5 -39.5t36.5 -26t58 -11q19 0 37 6.5t32 15t30 26t26 31t25 38.5t22.5 39.5t22.5 42.5l6 12v641h318v-833q0 -25 1.5 -50t5 -48.5t7 -42.5t8 -43.5t7.5 -40.5h-294l-46 130q-8 -7 -31 -33t-43.5 -45t-50 -41t-65.5 -34 t-76 -12h-65v-382h-317z" />
<glyph unicode="&#xb6;" horiz-adv-x="1248" d="M46 1020q0 39 4 77.5t16.5 87t32.5 91t54.5 84t80 71.5t113 48t148.5 18h737v-1932h-260v1694h-232q-110 0 -181 -75t-71 -208q0 -51 21 -101.5t54 -88.5t73 -65.5t79 -37.5v-1118h-262v972q-86 16 -155.5 53.5t-115.5 86t-77.5 107.5t-45 118t-13.5 118z" />
<glyph unicode="&#xb7;" horiz-adv-x="654" d="M185 472v285h285v-285h-285z" />
<glyph unicode="&#xb8;" horiz-adv-x="614" d="M-5 -516l65 211q20 -3 52 -7t50 -6.5t40 -4t39 -1.5q48 0 79 20.5t31 69.5q0 26 -5.5 40.5t-25 25.5t-56 15.5t-98.5 4.5l49 183h244l-24 -88q32 0 59.5 -12t45.5 -30.5t30.5 -42t18 -47t5.5 -44.5q0 -61 -21.5 -112.5t-56.5 -86.5t-80.5 -59.5t-92 -35.5t-91.5 -11 q-123 0 -257 18z" />
<glyph unicode="&#xba;" d="M318 1222q0 62 20 116.5t60.5 98t107 68.5t152.5 25q59 0 108.5 -11t87 -31.5t65.5 -48t46 -62.5t26.5 -73.5t8.5 -81.5q0 -51 -12.5 -97t-40 -86t-67 -69t-96.5 -46t-126 -17q-50 0 -94 9t-78 24.5t-62 38t-47.5 49.5t-33 58.5t-19.5 65t-6 70.5zM519 1222 q0 -171 139 -171q27 0 49 7t43.5 24.5t34 53t12.5 86.5t-10.5 85t-31 51.5t-43.5 24t-54 6.5t-54 -6.5t-43.5 -24t-31 -52t-10.5 -84.5z" />
<glyph unicode="&#xbb;" horiz-adv-x="1001" d="M44 1046h287l215 -421l-215 -413h-285l223 417zM463 1046h285l215 -421l-215 -413h-282l221 417z" />
<glyph unicode="&#xbf;" horiz-adv-x="1122" d="M118 380q0 49 16.5 93.5t43.5 77t62 64.5t71 57t70.5 53t62 54t44 58.5t16.5 67.5v171h308v-182q0 -57 -15 -105.5t-40 -83t-57.5 -66t-66 -54t-65.5 -47.5t-57 -47t-40.5 -51t-15.5 -60q0 -35 6.5 -57.5t23.5 -40.5t48.5 -26.5t80.5 -8.5q70 0 203 26t192 56l42 -283 q-73 -25 -212.5 -47t-224.5 -22q-48 0 -85.5 2t-91.5 11.5t-95 25t-85.5 45.5t-73 71.5t-47 105t-18.5 142.5zM497 1212v285h325v-285h-325z" />
<glyph unicode="&#xc0;" horiz-adv-x="1630" d="M62 0l609 1497h334l565 -1497h-390l-120 377h-495l-125 -377h-378zM548 1879h306l222 -271h-208zM662 643h308l-148 475z" />
<glyph unicode="&#xc1;" horiz-adv-x="1630" d="M62 0l609 1497h334l565 -1497h-390l-120 377h-495l-125 -377h-378zM581 1610l222 271h306l-318 -271h-210zM662 643h308l-148 475z" />
<glyph unicode="&#xc2;" horiz-adv-x="1630" d="M62 0l609 1497h334l565 -1497h-390l-120 377h-495l-125 -377h-378zM493 1601l240 278h204l231 -278h-219l-114 139l-120 -139h-222zM662 643h308l-148 475z" />
<glyph unicode="&#xc3;" horiz-adv-x="1630" d="M62 0l609 1497h334l565 -1497h-390l-120 377h-495l-125 -377h-378zM440 1643q45 104 110.5 144.5t173.5 40.5q30 0 58 -11.5t49.5 -28t41.5 -33t42 -28.5t43 -12q45 0 79.5 36t45.5 73l158 -77q-31 -95 -108 -149t-170 -54q-39 0 -72 11t-54 27.5t-39.5 33t-37.5 27.5 t-38 11q-93 0 -123 -84zM662 643h308l-148 475z" />
<glyph unicode="&#xc4;" horiz-adv-x="1630" d="M62 0l609 1497h334l565 -1497h-390l-120 377h-495l-125 -377h-378zM499 1548v239h278v-239h-278zM662 643h308l-148 475zM877 1548v239h278v-239h-278z" />
<glyph unicode="&#xc5;" horiz-adv-x="1630" d="M62 0l609 1497h334l565 -1497h-390l-120 377h-495l-125 -377h-378zM662 643h308l-148 475zM664 1742q0 80 56.5 135t136.5 55q81 0 136.5 -54t55.5 -136q0 -79 -56.5 -134t-135.5 -55t-136 56t-57 133zM766 1745q0 -21 11.5 -42t32.5 -35t47 -14q42 0 65 26.5t23 64.5 t-24 64t-64 26q-26 0 -47 -13.5t-32.5 -34t-11.5 -42.5z" />
<glyph unicode="&#xc6;" horiz-adv-x="2387" d="M62 0l850 1497h1212v-271h-766l44 -316h674v-272h-627l62 -367h634v-271h-933l-50 377h-495l-199 -377h-406zM810 643h312l-60 481z" />
<glyph unicode="&#xc7;" horiz-adv-x="1367" d="M132 748q0 92 11 175t36.5 163t64.5 146t97 122.5t132 95.5t172.5 60.5t215.5 21.5q96 0 210.5 -18.5t200.5 -46.5l-106 -294q-10 4 -35.5 15.5t-38 16.5t-36 14.5t-38 14.5t-37 11.5t-40 10t-39 5.5t-41.5 2q-192 0 -279 -124.5t-87 -388.5q0 -279 82 -404.5t271 -125.5 q45 0 93 10.5t75 21t85.5 36t81.5 34.5l106 -294q-109 -38 -209 -57.5t-226 -19.5v-4q40 0 73.5 -17.5t53.5 -45t31 -57t11 -56.5q0 -61 -23 -112.5t-60 -86.5t-84 -59.5t-94.5 -35.5t-92.5 -11q-123 0 -257 18l65 215q26 -3 66.5 -9t67 -9t47.5 -3q110 0 110 88 q0 34 -12 51t-52 26t-121 9l33 122q-129 33 -222.5 102t-150.5 169.5t-84 225t-27 277.5z" />
<glyph unicode="&#xc8;" horiz-adv-x="1394" d="M212 0v1497h919v-271h-566v-316h518v-272h-518v-367h588v-271h-941zM382 1879h305l223 -271h-208z" />
<glyph unicode="&#xc9;" horiz-adv-x="1394" d="M212 0v1497h919v-271h-566v-316h518v-272h-518v-367h588v-271h-941zM324 1566l222 271h306l-318 -271h-210z" />
<glyph unicode="&#xca;" horiz-adv-x="1394" d="M212 0v1497h919v-271h-566v-316h518v-272h-518v-367h588v-271h-941zM324 1603l241 278h203l232 -278h-220l-113 139l-121 -139h-222z" />
<glyph unicode="&#xcb;" horiz-adv-x="1394" d="M212 0v1497h919v-271h-566v-316h518v-272h-518v-367h588v-271h-941zM377 1548v239h278v-239h-278zM755 1548v239h277v-239h-277z" />
<glyph unicode="&#xcc;" horiz-adv-x="720" d="M113 1872h306l222 -271h-208zM185 0v1497h352v-1497h-352z" />
<glyph unicode="&#xcd;" horiz-adv-x="720" d="M111 1601l222 271h305l-316 -271h-211zM183 0v1497h351v-1497h-351z" />
<glyph unicode="&#xce;" horiz-adv-x="720" d="M23 1583l240 278h205l230 -278h-219l-113 139l-121 -139h-222zM185 0v1497h352v-1497h-352z" />
<glyph unicode="&#xcf;" horiz-adv-x="720" d="M35 1671v239h277v-239h-277zM176 0v1497h352v-1497h-352zM412 1671v239h277v-239h-277z" />
<glyph unicode="&#xd0;" horiz-adv-x="1607" d="M67 715v241h145v541h550q143 0 254 -24.5t199 -79t145 -140.5t87 -210.5t30 -287.5q0 -208 -43 -352.5t-133.5 -233.5t-221.5 -129t-317 -40h-550v715h-145zM565 271h217q41 0 72.5 3.5t68 15.5t62.5 32.5t51.5 56.5t41.5 86t25.5 123t9.5 165q0 77 -7.5 140.5t-18.5 110 t-31.5 82.5t-38.5 59t-47 39.5t-49 24.5t-54 12t-52 4.5t-52 0.5h-1h-197v-270h177v-241h-177v-444z" />
<glyph unicode="&#xd1;" horiz-adv-x="1742" d="M212 0v1497h528l443 -1080v1080h347v-1497h-532l-448 1080v-1080h-338zM484 1645q45 104 110.5 145t173.5 41q30 0 58.5 -12t49.5 -28.5t41.5 -33t42 -28t42.5 -11.5q31 0 59 19.5t43.5 43t22.5 45.5l158 -77q-31 -95 -108 -149t-170 -54q-29 0 -54 6t-43.5 16 t-34.5 21.5t-29 23.5t-25.5 21.5t-26.5 16t-28 6.5q-93 0 -123 -85z" />
<glyph unicode="&#xd2;" horiz-adv-x="1727" d="M132 742q0 136 24 251t79 215.5t139 170.5t210 110.5t286 40.5q157 0 280 -37.5t206 -105t137.5 -167t79 -217t24.5 -261.5q0 -137 -23.5 -252.5t-77.5 -216t-136.5 -170.5t-207.5 -109.5t-284 -39.5q-118 0 -217 20t-174 57t-133.5 91.5t-98 120t-65 146.5t-37 167.5 t-11.5 185.5zM493 1879h306l221 -271h-208zM495 742q0 -89 8.5 -160.5t23.5 -125t39.5 -93.5t54 -66.5t69 -42.5t82.5 -22.5t96 -6.5q189 0 277.5 122t88.5 395q0 118 -16.5 206.5t-46 147.5t-76 95.5t-101.5 52t-126 15.5q-92 0 -158.5 -26t-116 -85t-74 -160t-24.5 -246z " />
<glyph unicode="&#xd3;" horiz-adv-x="1727" d="M132 742q0 136 24 251t79 215.5t139 170.5t210 110.5t286 40.5q157 0 280 -37.5t206 -105t137.5 -167t79 -217t24.5 -261.5q0 -137 -23.5 -252.5t-77.5 -216t-136.5 -170.5t-207.5 -109.5t-284 -39.5q-118 0 -217 20t-174 57t-133.5 91.5t-98 120t-65 146.5t-37 167.5 t-11.5 185.5zM495 742q0 -89 8.5 -160.5t23.5 -125t39.5 -93.5t54 -66.5t69 -42.5t82.5 -22.5t96 -6.5q189 0 277.5 122t88.5 395q0 118 -16.5 206.5t-46 147.5t-76 95.5t-101.5 52t-126 15.5q-92 0 -158.5 -26t-116 -85t-74 -160t-24.5 -246zM592 1610l223 271h305 l-317 -271h-211z" />
<glyph unicode="&#xd4;" horiz-adv-x="1727" d="M132 742q0 136 24 251t79 215.5t139 170.5t210 110.5t286 40.5q157 0 280 -37.5t206 -105t137.5 -167t79 -217t24.5 -261.5q0 -137 -23.5 -252.5t-77.5 -216t-136.5 -170.5t-207.5 -109.5t-284 -39.5q-118 0 -217 20t-174 57t-133.5 91.5t-98 120t-65 146.5t-37 167.5 t-11.5 185.5zM495 742q0 -89 8.5 -160.5t23.5 -125t39.5 -93.5t54 -66.5t69 -42.5t82.5 -22.5t96 -6.5q189 0 277.5 122t88.5 395q0 118 -16.5 206.5t-46 147.5t-76 95.5t-101.5 52t-126 15.5q-92 0 -158.5 -26t-116 -85t-74 -160t-24.5 -246zM519 1603l240 278h204 l231 -278h-220l-113 139l-121 -139h-221z" />
<glyph unicode="&#xd5;" horiz-adv-x="1727" d="M132 742q0 136 24 251t79 215.5t139 170.5t210 110.5t286 40.5q157 0 280 -37.5t206 -105t137.5 -167t79 -217t24.5 -261.5q0 -137 -23.5 -252.5t-77.5 -216t-136.5 -170.5t-207.5 -109.5t-284 -39.5q-118 0 -217 20t-174 57t-133.5 91.5t-98 120t-65 146.5t-37 167.5 t-11.5 185.5zM486 1645q45 104 110.5 145t174.5 41q30 0 58 -12t49.5 -28.5t41.5 -33t42 -28t43 -11.5q45 0 79 35.5t45 72.5l158 -77q-30 -95 -107.5 -149t-170.5 -54q-39 0 -71.5 11.5t-54 27.5t-39.5 32.5t-37 28t-39 11.5q-93 0 -123 -85zM495 742q0 -89 8.5 -160.5 t23.5 -125t39.5 -93.5t54 -66.5t69 -42.5t82.5 -22.5t96 -6.5q189 0 277.5 122t88.5 395q0 118 -16.5 206.5t-46 147.5t-76 95.5t-101.5 52t-126 15.5q-92 0 -158.5 -26t-116 -85t-74 -160t-24.5 -246z" />
<glyph unicode="&#xd6;" horiz-adv-x="1727" d="M132 742q0 136 24 251t79 215.5t139 170.5t210 110.5t286 40.5q157 0 280 -37.5t206 -105t137.5 -167t79 -217t24.5 -261.5q0 -137 -23.5 -252.5t-77.5 -216t-136.5 -170.5t-207.5 -109.5t-284 -39.5q-118 0 -217 20t-174 57t-133.5 91.5t-98 120t-65 146.5t-37 167.5 t-11.5 185.5zM495 742q0 -89 8.5 -160.5t23.5 -125t39.5 -93.5t54 -66.5t69 -42.5t82.5 -22.5t96 -6.5q189 0 277.5 122t88.5 395q0 118 -16.5 206.5t-46 147.5t-76 95.5t-101.5 52t-126 15.5q-92 0 -158.5 -26t-116 -85t-74 -160t-24.5 -246zM541 1548v239h278v-239h-278z M919 1548v239h278v-239h-278z" />
<glyph unicode="&#xd8;" horiz-adv-x="1727" d="M37 -2l208 245q-113 187 -113 499q0 136 24 251t79 215.5t139 170.5t210 110.5t286 40.5q240 0 407 -84l167 195l227 -208l-176 -209q102 -186 102 -482q0 -137 -23.5 -252.5t-77.5 -216t-136.5 -170.5t-207.5 -109.5t-284 -39.5q-234 0 -400 72l-201 -236zM495 742 q0 -113 7 -196l572 664q-80 49 -206 49q-92 0 -158.5 -26t-116 -85t-74 -160t-24.5 -246zM662 254q65 -29 206 -29q189 0 277.5 122t88.5 395q0 36 -1 93.5t-1 80.5z" />
<glyph unicode="&#xd9;" horiz-adv-x="1723" d="M212 553v944h353v-921q0 -65 10 -117.5t26.5 -88.5t41.5 -63t51 -42.5t59 -24.5t61.5 -12t62.5 -3q58 0 106 18t89 57t64 109.5t23 166.5v921h352v-949q0 -293 -166 -443.5t-468 -150.5q-329 0 -497 150t-168 449zM486 1879h305l223 -271h-208z" />
<glyph unicode="&#xda;" horiz-adv-x="1723" d="M212 553v944h353v-921q0 -65 10 -117.5t26.5 -88.5t41.5 -63t51 -42.5t59 -24.5t61.5 -12t62.5 -3q58 0 106 18t89 57t64 109.5t23 166.5v921h352v-949q0 -293 -166 -443.5t-468 -150.5q-329 0 -497 150t-168 449zM667 1564l221 271h306l-317 -271h-210z" />
<glyph unicode="&#xdb;" horiz-adv-x="1723" d="M212 553v944h353v-921q0 -65 10 -117.5t26.5 -88.5t41.5 -63t51 -42.5t59 -24.5t61.5 -12t62.5 -3q58 0 106 18t89 57t64 109.5t23 166.5v921h352v-949q0 -293 -166 -443.5t-468 -150.5q-329 0 -497 150t-168 449zM530 1603l241 278h203l232 -278h-221l-113 139 l-119 -139h-223z" />
<glyph unicode="&#xdc;" horiz-adv-x="1723" d="M212 553v944h353v-921q0 -65 10 -117.5t26.5 -88.5t41.5 -63t51 -42.5t59 -24.5t61.5 -12t62.5 -3q58 0 106 18t89 57t64 109.5t23 166.5v921h352v-949q0 -293 -166 -443.5t-468 -150.5q-329 0 -497 150t-168 449zM548 1548v239h278v-239h-278zM925 1548v239h278v-239 h-278z" />
<glyph unicode="&#xdd;" horiz-adv-x="1499" d="M31 1497h400l326 -523l329 523h383l-550 -824v-673h-352v664zM360 1601l223 271h305l-316 -271h-212z" />
<glyph unicode="&#xde;" horiz-adv-x="1438" d="M212 0v1497h353v-265h219q96 0 174.5 -13.5t149 -46.5t118 -85t75.5 -132t28 -184q0 -475 -519 -475h-245v-296h-353zM565 567h226q35 0 65 10.5t57 32.5t43 63t16 98q0 39 -7 70t-17 50.5t-28 33.5t-32 20.5t-37 10.5t-36 4h-35h-215v-393z" />
<glyph unicode="&#xdf;" horiz-adv-x="1290" d="M148 0v1090q0 107 33 190t92 135.5t139 79t178 26.5q46 0 87 -3.5t89.5 -14t88.5 -27.5t78 -46.5t64.5 -68t42 -95t15.5 -125.5q0 -59 -12 -109t-33.5 -85t-46 -62.5t-54 -47.5t-53 -33t-48 -24.5t-33.5 -17.5q16 -7 52.5 -19.5t65 -22.5t68 -30t69.5 -42t62 -58 t52.5 -78.5t34 -104t13.5 -134.5q0 -81 -22.5 -152.5t-62 -125.5t-94.5 -98t-119 -74t-136 -50.5t-144.5 -30t-145.5 -9.5l111 267q60 0 110 19t82 48.5t54 67t31.5 73.5t9.5 70q0 54 -10 98.5t-24.5 74.5t-39 54.5t-46.5 38.5t-54.5 26t-55.5 17.5t-57 13.5t-51 13v247 q3 2 22 14.5t26 17t26 18t27.5 22t25 24.5t24.5 29.5t19.5 32.5t17 38t9.5 42.5t4 48.5q0 57 -39 93t-100 36q-20 0 -38.5 -6.5t-39.5 -22t-33.5 -50t-12.5 -83.5v-1115h-318z" />
<glyph unicode="&#xe0;" horiz-adv-x="1256" d="M95 278q0 67 17.5 124t60 108.5t108 87.5t168 57t234.5 21h81v35q0 15 -0.5 24t-3 25t-6.5 26.5t-13 23t-21.5 20t-32 13t-44.5 5.5q-70 0 -145.5 -13.5t-138.5 -34t-116 -45.5l-109 259q58 19 125.5 34t136 24t136.5 13.5t132 4.5q74 0 137 -12.5t115.5 -39.5t89 -66.5 t57 -95t20.5 -123.5v-429q0 -48 20.5 -167.5t25.5 -156.5h-303q-1 0 -23 54l-19 43q-3 -2 -21 -16t-24.5 -19t-25 -18.5t-29.5 -20t-29 -17t-32.5 -16t-32 -12t-35 -9t-34.5 -2.5q-426 0 -426 311zM261 1497h306l222 -271h-208zM424 292q0 -23 10.5 -38.5t25.5 -24t39 -13 t42.5 -5.5t43.5 -1q77 0 181 117v122h-51q-103 0 -168 -18t-94 -52.5t-29 -86.5z" />
<glyph unicode="&#xe1;" horiz-adv-x="1256" d="M95 278q0 67 17.5 124t60 108.5t108 87.5t168 57t234.5 21h81v35q0 15 -0.5 24t-3 25t-6.5 26.5t-13 23t-21.5 20t-32 13t-44.5 5.5q-70 0 -145.5 -13.5t-138.5 -34t-116 -45.5l-109 259q58 19 125.5 34t136 24t136.5 13.5t132 4.5q74 0 137 -12.5t115.5 -39.5t89 -66.5 t57 -95t20.5 -123.5v-429q0 -48 20.5 -167.5t25.5 -156.5h-303q-1 0 -23 54l-19 43q-3 -2 -21 -16t-24.5 -19t-25 -18.5t-29.5 -20t-29 -17t-32.5 -16t-32 -12t-35 -9t-34.5 -2.5q-426 0 -426 311zM345 1226l222 271h305l-316 -271h-211zM424 292q0 -23 10.5 -38.5t25.5 -24 t39 -13t42.5 -5.5t43.5 -1q77 0 181 117v122h-51q-103 0 -168 -18t-94 -52.5t-29 -86.5z" />
<glyph unicode="&#xe2;" horiz-adv-x="1256" d="M95 278q0 67 17.5 124t60 108.5t108 87.5t168 57t234.5 21h81v35q0 15 -0.5 24t-3 25t-6.5 26.5t-13 23t-21.5 20t-32 13t-44.5 5.5q-70 0 -145.5 -13.5t-138.5 -34t-116 -45.5l-109 259q58 19 125.5 34t136 24t136.5 13.5t132 4.5q74 0 137 -12.5t115.5 -39.5t89 -66.5 t57 -95t20.5 -123.5v-429q0 -48 20.5 -167.5t25.5 -156.5h-303q-1 0 -23 54l-19 43q-3 -2 -21 -16t-24.5 -19t-25 -18.5t-29.5 -20t-29 -17t-32.5 -16t-32 -12t-35 -9t-34.5 -2.5q-426 0 -426 311zM243 1219l241 278h203l232 -278h-221l-113 139l-119 -139h-223zM424 292 q0 -23 10.5 -38.5t25.5 -24t39 -13t42.5 -5.5t43.5 -1q77 0 181 117v122h-51q-103 0 -168 -18t-94 -52.5t-29 -86.5z" />
<glyph unicode="&#xe3;" horiz-adv-x="1256" d="M95 278q0 67 17.5 124t60 108.5t108 87.5t168 57t234.5 21h81v35q0 15 -0.5 24t-3 25t-6.5 26.5t-13 23t-21.5 20t-32 13t-44.5 5.5q-70 0 -145.5 -13.5t-138.5 -34t-116 -45.5l-109 259q58 19 125.5 34t136 24t136.5 13.5t132 4.5q74 0 137 -12.5t115.5 -39.5t89 -66.5 t57 -95t20.5 -123.5v-429q0 -48 20.5 -167.5t25.5 -156.5h-303q-1 0 -23 54l-19 43q-3 -2 -21 -16t-24.5 -19t-25 -18.5t-29.5 -20t-29 -17t-32.5 -16t-32 -12t-35 -9t-34.5 -2.5q-426 0 -426 311zM192 1257q46 103 111 144t174 41q30 0 58 -11.5t49.5 -28.5t41.5 -33.5 t42 -28t43 -11.5q31 0 59 19.5t43.5 43t21.5 45.5l158 -76q-30 -95 -107.5 -149.5t-170.5 -54.5q-39 0 -71.5 11.5t-54 27.5t-39.5 32.5t-37 28t-38 11.5q-93 0 -124 -85zM424 292q0 -23 10.5 -38.5t25.5 -24t39 -13t42.5 -5.5t43.5 -1q77 0 181 117v122h-51 q-103 0 -168 -18t-94 -52.5t-29 -86.5z" />
<glyph unicode="&#xe4;" horiz-adv-x="1256" d="M95 278q0 67 17.5 124t60 108.5t108 87.5t168 57t234.5 21h81v35q0 15 -0.5 24t-3 25t-6.5 26.5t-13 23t-21.5 20t-32 13t-44.5 5.5q-70 0 -145.5 -13.5t-138.5 -34t-116 -45.5l-109 259q58 19 125.5 34t136 24t136.5 13.5t132 4.5q74 0 137 -12.5t115.5 -39.5t89 -66.5 t57 -95t20.5 -123.5v-429q0 -48 20.5 -167.5t25.5 -156.5h-303q-1 0 -23 54l-19 43q-3 -2 -21 -16t-24.5 -19t-25 -18.5t-29.5 -20t-29 -17t-32.5 -16t-32 -12t-35 -9t-34.5 -2.5q-426 0 -426 311zM285 1206v252h280v-252h-280zM424 292q0 -23 10.5 -38.5t25.5 -24t39 -13 t42.5 -5.5t43.5 -1q77 0 181 117v122h-51q-103 0 -168 -18t-94 -52.5t-29 -86.5zM664 1206v252h281v-252h-281z" />
<glyph unicode="&#xe5;" horiz-adv-x="1256" d="M95 278q0 67 17.5 124t60 108.5t108 87.5t168 57t234.5 21h81v35q0 15 -0.5 24t-3 25t-6.5 26.5t-13 23t-21.5 20t-32 13t-44.5 5.5q-70 0 -145.5 -13.5t-138.5 -34t-116 -45.5l-109 259q58 19 125.5 34t136 24t136.5 13.5t132 4.5q74 0 137 -12.5t115.5 -39.5t89 -66.5 t57 -95t20.5 -123.5v-429q0 -48 20.5 -167.5t25.5 -156.5h-303q-1 0 -23 54l-19 43q-3 -2 -21 -16t-24.5 -19t-25 -18.5t-29.5 -20t-29 -17t-32.5 -16t-32 -12t-35 -9t-34.5 -2.5q-426 0 -426 311zM407 1363q0 79 56 134.5t136 55.5q81 0 136.5 -54.5t55.5 -135.5 q0 -80 -56 -135t-136 -55q-51 0 -95.5 25.5t-70.5 69.5t-26 95zM424 292q0 -23 10.5 -38.5t25.5 -24t39 -13t42.5 -5.5t43.5 -1q77 0 181 117v122h-51q-103 0 -168 -18t-94 -52.5t-29 -86.5zM510 1365q0 -33 25.5 -61.5t63.5 -28.5q42 0 65 26t23 64t-24 64t-64 26 q-38 0 -63.5 -27.5t-25.5 -62.5z" />
<glyph unicode="&#xe6;" horiz-adv-x="1904" d="M95 278q0 67 17.5 124t60 108.5t108 87.5t168 57t234.5 21h79v39q0 21 -1.5 35t-8 34.5t-18 32.5t-35 21.5t-56.5 9.5q-70 0 -145.5 -13.5t-138.5 -34t-116 -45.5l-109 259q108 37 251 56.5t279 19.5q158 0 306 -90q145 90 305 90q121 0 209.5 -26.5t150.5 -79t99 -137.5 t54 -195t17 -259h-725q20 -100 81 -146t149 -46q69 0 155.5 24.5t170.5 66.5l104 -241q-94 -42 -211.5 -63t-236.5 -21q-144 0 -255.5 54t-146.5 129q-183 -183 -369 -183q-426 0 -426 311zM424 292q0 -23 10.5 -38.5t25.5 -24t39 -13t42.5 -5.5t43.5 -1q16 0 31.5 3.5 t27 7.5t26 14t22 15.5t21.5 19t18 18t17.5 19.5t15.5 17v125h-49q-103 0 -168 -18t-94 -52.5t-29 -86.5zM1080 627h410q-5 64 -24.5 108.5t-49.5 68t-63.5 34t-75.5 10.5q-19 0 -38 -3t-49 -15.5t-51.5 -34.5t-39 -65.5t-19.5 -102.5z" />
<glyph unicode="&#xe7;" horiz-adv-x="1102" d="M95 521q0 130 34 234t102 180t175 117t247 41q67 0 188 -28.5t188 -55.5l-117 -252q-12 5 -77.5 35.5t-107.5 44t-77 13.5q-47 0 -81 -8t-64 -29.5t-48 -58.5t-28 -95t-10 -138q0 -90 17.5 -153t49.5 -97t71.5 -48.5t89.5 -14.5q83 0 274 90l121 -249 q-46 -25 -148.5 -47.5t-189.5 -32.5l-10 -27q40 0 72 -16.5t50.5 -42.5t28 -55t9.5 -57q0 -63 -21.5 -115.5t-56 -87t-79.5 -58.5t-91 -34t-92 -10q-124 0 -257 18l74 204q28 -3 64.5 -9t61 -9t45.5 -3q47 0 82.5 25t35.5 74q0 33 -13.5 50.5t-55 26.5t-123.5 9l35 137 q-180 49 -274 190t-94 342z" />
<glyph unicode="&#xe8;" horiz-adv-x="1250" d="M95 519q0 55 7 109t25 111.5t45 107.5t69 95.5t95 78t126 51t158 18.5q151 0 253 -40t164 -127.5t89 -215.5t27 -314h-727q14 -68 48.5 -112t79 -62t101.5 -18q69 0 155.5 24.5t170.5 66.5l105 -241q-63 -28 -140 -47t-154.5 -28t-155.5 -9q-103 0 -191.5 29t-152 80.5 t-108.5 121t-67 151t-22 170.5zM285 1497h305l222 -271h-207zM428 627h407q-5 52 -18.5 91t-33 63t-46 39.5t-54 21.5t-60.5 6q-20 0 -38.5 -3t-48 -15.5t-51 -34.5t-38.5 -65.5t-19 -102.5z" />
<glyph unicode="&#xe9;" horiz-adv-x="1250" d="M95 519q0 55 7 109t25 111.5t45 107.5t69 95.5t95 78t126 51t158 18.5q151 0 253 -40t164 -127.5t89 -215.5t27 -314h-727q14 -68 48.5 -112t79 -62t101.5 -18q69 0 155.5 24.5t170.5 66.5l105 -241q-63 -28 -140 -47t-154.5 -28t-155.5 -9q-103 0 -191.5 29t-152 80.5 t-108.5 121t-67 151t-22 170.5zM428 627h407q-5 52 -18.5 91t-33 63t-46 39.5t-54 21.5t-60.5 6q-20 0 -38.5 -3t-48 -15.5t-51 -34.5t-38.5 -65.5t-19 -102.5zM446 1226l223 271h305l-316 -271h-212z" />
<glyph unicode="&#xea;" horiz-adv-x="1250" d="M95 519q0 55 7 109t25 111.5t45 107.5t69 95.5t95 78t126 51t158 18.5q151 0 253 -40t164 -127.5t89 -215.5t27 -314h-727q14 -68 48.5 -112t79 -62t101.5 -18q69 0 155.5 24.5t170.5 66.5l105 -241q-63 -28 -140 -47t-154.5 -28t-155.5 -9q-103 0 -191.5 29t-152 80.5 t-108.5 121t-67 151t-22 170.5zM318 1219l240 278h204l231 -278h-220l-113 139l-121 -139h-221zM428 627h407q-5 52 -18.5 91t-33 63t-46 39.5t-54 21.5t-60.5 6q-20 0 -38.5 -3t-48 -15.5t-51 -34.5t-38.5 -65.5t-19 -102.5z" />
<glyph unicode="&#xeb;" horiz-adv-x="1250" d="M95 519q0 55 7 109t25 111.5t45 107.5t69 95.5t95 78t126 51t158 18.5q151 0 253 -40t164 -127.5t89 -215.5t27 -314h-727q14 -68 48.5 -112t79 -62t101.5 -18q69 0 155.5 24.5t170.5 66.5l105 -241q-63 -28 -140 -47t-154.5 -28t-155.5 -9q-103 0 -191.5 29t-152 80.5 t-108.5 121t-67 151t-22 170.5zM324 1212v239h277v-239h-277zM428 627h407q-5 52 -18.5 91t-33 63t-46 39.5t-54 21.5t-60.5 6q-20 0 -38.5 -3t-48 -15.5t-51 -34.5t-38.5 -65.5t-19 -102.5zM702 1212v239h277v-239h-277z" />
<glyph unicode="&#xec;" horiz-adv-x="614" d="M49 1497h305l222 -271h-208zM197 0v1058h315v-1058h-315z" />
<glyph unicode="&#xed;" horiz-adv-x="614" d="M40 1226l221 271h306l-317 -271h-210zM150 0v1058h316v-1058h-316z" />
<glyph unicode="&#xee;" horiz-adv-x="614" d="M-31 1219l241 278h205l230 -278h-219l-114 139l-120 -139h-223zM150 0v1058h316v-1058h-316z" />
<glyph unicode="&#xef;" horiz-adv-x="614" d="M-18 1275v238h277v-238h-277zM150 0v1058h316v-1058h-316zM358 1275v238h278v-238h-278z" />
<glyph unicode="&#xf0;" d="M108 417q0 528 499 528q21 0 51 -5.5t72.5 -18.5t82 -44t62.5 -74q0 143 -61.5 243t-168.5 144l-170 -114l-214 125l107 71h-17q-66 0 -141 -13l-97 280h61q287 0 484 -64l126 91l207 -124l-114 -79q329 -206 329 -708q0 -78 -6.5 -146.5t-24 -140.5t-45 -131t-71.5 -112 t-101.5 -89t-138.5 -57t-178 -21q-81 0 -158 19.5t-145 59t-119 93.5t-81 128.5t-30 158.5zM455 479q0 -14 2 -35.5t2 -26.5q0 -54 15 -93.5t41.5 -61.5t57 -32t65.5 -10q40 0 68.5 6t58 25.5t48 53t30 93t11.5 141.5q-18 46 -41 75.5t-67.5 49t-109.5 19.5 q-181 0 -181 -204z" />
<glyph unicode="&#xf1;" horiz-adv-x="1270" d="M118 1058h294l47 -130q5 5 31.5 32.5t46.5 45t51.5 40.5t68.5 35t76 12q69 0 124 -11t95 -31t70 -50t49 -64.5t30.5 -79.5t16 -90t4.5 -100v-667h-316v687q0 22 -0.5 33.5t-3 31.5t-7 31.5t-14 26.5t-23 23t-34.5 13.5t-48 5.5q-20 0 -39 -6.5t-35 -17t-32.5 -28 t-29 -33.5t-27 -40t-24.5 -42t-23 -44v-641h-318v833q0 40 -4.5 76t-14 85.5t-11.5 63.5zM212 1257q46 103 111.5 144t173.5 41q30 0 58 -11.5t49.5 -28.5t41.5 -33.5t42 -28t43 -11.5q45 0 80 36t46 72l157 -76q-31 -95 -108.5 -149.5t-169.5 -54.5q-40 0 -72.5 11.5 t-54 27.5t-39.5 32.5t-37 28t-38 11.5q-92 0 -122 -85z" />
<glyph unicode="&#xf2;" horiz-adv-x="1288" d="M95 534q0 91 19 171.5t61.5 152t105.5 123.5t156.5 82t207.5 30q117 0 210.5 -29t156 -79t104.5 -121.5t60 -153t18 -176.5q0 -93 -19 -175.5t-61 -155.5t-105 -125t-156 -82.5t-208 -30.5t-208.5 30t-156.5 82.5t-105 125t-61 155.5t-19 176zM336 1497h305l222 -271 h-208zM419 534q0 -328 226 -328q225 0 225 328q0 96 -14 159t-44 97.5t-69.5 48t-97.5 13.5q-44 0 -77 -8t-62 -29t-47.5 -56.5t-29 -91.5t-10.5 -133z" />
<glyph unicode="&#xf3;" horiz-adv-x="1288" d="M95 534q0 91 19 171.5t61.5 152t105.5 123.5t156.5 82t207.5 30q117 0 210.5 -29t156 -79t104.5 -121.5t60 -153t18 -176.5q0 -93 -19 -175.5t-61 -155.5t-105 -125t-156 -82.5t-208 -30.5t-208.5 30t-156.5 82.5t-105 125t-61 155.5t-19 176zM419 534q0 -328 226 -328 q225 0 225 328q0 96 -14 159t-44 97.5t-69.5 48t-97.5 13.5q-44 0 -77 -8t-62 -29t-47.5 -56.5t-29 -91.5t-10.5 -133zM428 1226l222 271h306l-318 -271h-210z" />
<glyph unicode="&#xf4;" horiz-adv-x="1288" d="M95 534q0 91 19 171.5t61.5 152t105.5 123.5t156.5 82t207.5 30q117 0 210.5 -29t156 -79t104.5 -121.5t60 -153t18 -176.5q0 -93 -19 -175.5t-61 -155.5t-105 -125t-156 -82.5t-208 -30.5t-208.5 30t-156.5 82.5t-105 125t-61 155.5t-19 176zM307 1219l241 278h205 l230 -278h-219l-114 139l-120 -139h-223zM419 534q0 -328 226 -328q225 0 225 328q0 96 -14 159t-44 97.5t-69.5 48t-97.5 13.5q-44 0 -77 -8t-62 -29t-47.5 -56.5t-29 -91.5t-10.5 -133z" />
<glyph unicode="&#xf5;" horiz-adv-x="1288" d="M95 534q0 91 19 171.5t61.5 152t105.5 123.5t156.5 82t207.5 30q117 0 210.5 -29t156 -79t104.5 -121.5t60 -153t18 -176.5q0 -93 -19 -175.5t-61 -155.5t-105 -125t-156 -82.5t-208 -30.5t-208.5 30t-156.5 82.5t-105 125t-61 155.5t-19 176zM232 1257q45 103 110.5 144 t173.5 41q30 0 58.5 -11.5t49.5 -28.5t41.5 -33.5t42 -28t42.5 -11.5q45 0 79.5 35.5t45.5 72.5l157 -76q-31 -95 -108 -149.5t-169 -54.5q-39 0 -72 11.5t-54 27.5t-39.5 32.5t-37.5 28t-38 11.5q-93 0 -123 -85zM419 534q0 -328 226 -328q225 0 225 328q0 96 -14 159 t-44 97.5t-69.5 48t-97.5 13.5q-44 0 -77 -8t-62 -29t-47.5 -56.5t-29 -91.5t-10.5 -133z" />
<glyph unicode="&#xf6;" horiz-adv-x="1288" d="M95 534q0 91 19 171.5t61.5 152t105.5 123.5t156.5 82t207.5 30q117 0 210.5 -29t156 -79t104.5 -121.5t60 -153t18 -176.5q0 -93 -19 -175.5t-61 -155.5t-105 -125t-156 -82.5t-208 -30.5t-208.5 30t-156.5 82.5t-105 125t-61 155.5t-19 176zM331 1212v239h278v-239 h-278zM419 534q0 -328 226 -328q225 0 225 328q0 96 -14 159t-44 97.5t-69.5 48t-97.5 13.5q-44 0 -77 -8t-62 -29t-47.5 -56.5t-29 -91.5t-10.5 -133zM709 1212v239h276v-239h-276z" />
<glyph unicode="&#xf7;" d="M115 409v202h1079v-202h-1079zM490 9v287h327v-287h-327zM490 713v287h327v-287h-327z" />
<glyph unicode="&#xf8;" horiz-adv-x="1288" d="M40 97l117 135q-62 127 -62 302q0 91 19 171.5t61.5 152t105.5 123.5t156.5 82t207.5 30q163 0 267 -35l108 115l206 -201l-104 -115q72 -129 72 -323q0 -93 -19 -175.5t-61 -155.5t-105 -125t-156 -82.5t-208 -30.5q-162 0 -287 55l-111 -124zM412 504l321 355 q-4 0 -38 -3.5t-50 -3.5q-44 0 -77 -8t-62 -29t-47.5 -56.5t-29 -91.5t-10.5 -133q0 -13 -7 -30zM544 223q49 -17 101 -17q225 0 225 328q0 33 2 49z" />
<glyph unicode="&#xf9;" horiz-adv-x="1254" d="M148 391v667h318v-687q0 -28 1 -46t8 -43t19 -39.5t36 -25.5t58 -11q19 0 37 6.5t32 15t29.5 26t26 31t25 38.5t22.5 39.5t22 42.5q5 8 7 12v641h317v-833q0 -31 3.5 -64t7.5 -55t10.5 -55t9.5 -51h-295l-45 130q-8 -7 -22 -22.5t-27.5 -29.5t-31.5 -31.5t-37.5 -31 t-42.5 -25.5t-50 -18.5t-56 -6.5q-89 0 -156.5 21.5t-110 58t-69 92t-36.5 116.5t-10 138zM292 1497h305l222 -271h-208z" />
<glyph unicode="&#xfa;" horiz-adv-x="1254" d="M148 391v667h318v-687q0 -28 1 -46t8 -43t19 -39.5t36 -25.5t58 -11q19 0 37 6.5t32 15t29.5 26t26 31t25 38.5t22.5 39.5t22 42.5q5 8 7 12v641h317v-833q0 -31 3.5 -64t7.5 -55t10.5 -55t9.5 -51h-295l-45 130q-8 -7 -22 -22.5t-27.5 -29.5t-31.5 -31.5t-37.5 -31 t-42.5 -25.5t-50 -18.5t-56 -6.5q-89 0 -156.5 21.5t-110 58t-69 92t-36.5 116.5t-10 138zM402 1226l223 271h305l-316 -271h-212z" />
<glyph unicode="&#xfb;" horiz-adv-x="1254" d="M148 391v667h318v-687q0 -28 1 -46t8 -43t19 -39.5t36 -25.5t58 -11q19 0 37 6.5t32 15t29.5 26t26 31t25 38.5t22.5 39.5t22 42.5q5 8 7 12v641h317v-833q0 -31 3.5 -64t7.5 -55t10.5 -55t9.5 -51h-295l-45 130q-8 -7 -22 -22.5t-27.5 -29.5t-31.5 -31.5t-37.5 -31 t-42.5 -25.5t-50 -18.5t-56 -6.5q-89 0 -156.5 21.5t-110 58t-69 92t-36.5 116.5t-10 138zM276 1219l240 278h204l231 -278h-220l-113 139l-121 -139h-221z" />
<glyph unicode="&#xfc;" horiz-adv-x="1254" d="M148 391v667h318v-687q0 -28 1 -46t8 -43t19 -39.5t36 -25.5t58 -11q19 0 37 6.5t32 15t29.5 26t26 31t25 38.5t22.5 39.5t22 42.5q5 8 7 12v641h317v-833q0 -31 3.5 -64t7.5 -55t10.5 -55t9.5 -51h-295l-45 130q-8 -7 -22 -22.5t-27.5 -29.5t-31.5 -31.5t-37.5 -31 t-42.5 -25.5t-50 -18.5t-56 -6.5q-89 0 -156.5 21.5t-110 58t-69 92t-36.5 116.5t-10 138zM298 1212v239h278v-239h-278zM676 1212v239h278v-239h-278z" />
<glyph unicode="&#xfd;" horiz-adv-x="1276" d="M79 1058h338l217 -658l232 658h333l-466 -1228q-21 -58 -48 -108.5t-65.5 -101.5t-84.5 -92t-108 -77t-135 -60l-109 258q91 24 138 61.5t65 88.5l93 245zM358 1226l223 271h305l-316 -271h-212z" />
<glyph unicode="&#xfe;" horiz-adv-x="1274" d="M111 -419q7 58 16 213.5t15 309t6 220.5v1197h318v-593q26 35 52 62t59 51t73 36.5t86 12.5q93 0 168.5 -29.5t126 -81t84.5 -122.5t49.5 -151.5t15.5 -171.5t-20 -175t-60.5 -155.5t-97.5 -124t-137 -82.5t-173 -30q-48 0 -89.5 14t-70 35.5t-46 41.5t-27.5 39l-54 -516 h-294zM461 375q69 -165 175 -165q33 0 60 6t58 26.5t52.5 53.5t36 93t14.5 141q0 44 -3.5 82t-9.5 67.5t-15 53.5t-19.5 41t-23.5 30t-26.5 21.5t-29.5 13.5t-31 7t-32 2q-20 0 -38 -7t-36 -23t-31.5 -30.5t-32.5 -43.5t-30 -47t-32 -54q-4 -8 -6 -11v-257z" />
<glyph unicode="&#xff;" d="M79 1058h338l217 -658l232 658h333l-466 -1228q-21 -58 -48 -108.5t-65.5 -101.5t-84.5 -92t-108 -77t-135 -60l-109 258q91 24 138 61.5t65 88.5l93 245zM345 1206v238h278v-238h-278zM722 1206v238h278v-238h-278z" />
<glyph unicode="&#x131;" horiz-adv-x="614" d="M150 0v1058h316v-1058h-316z" />
<glyph unicode="&#x152;" horiz-adv-x="2438" d="M132 742q0 136 24 251t79 215.5t139 170.5t210 110.5t286 40.5q141 0 261 -33h1044v-271h-685q64 -177 80 -316h557v-272h-555q-12 -186 -79 -367h704v-271h-1024q-127 -46 -305 -46q-118 0 -217 20t-174 57t-133.5 91.5t-98 120t-65 146.5t-37 167.5t-11.5 185.5z M495 742q0 -89 8.5 -160.5t23.5 -125t39.5 -93.5t54 -66.5t69 -42.5t82.5 -22.5t96 -6.5q188 0 265 119t77 398q0 149 -19.5 248.5t-63 159t-106 84.5t-154 25t-158 -26t-116 -85t-74 -160t-24.5 -246z" />
<glyph unicode="&#x153;" horiz-adv-x="2012" d="M95 534q0 91 19 171.5t61.5 152t105.5 123.5t156.5 82t207.5 30q234 0 387 -110q140 107 350 107q151 0 253 -40t164 -127.5t88.5 -215.5t26.5 -314h-726q20 -100 80 -146t148 -46q69 0 156 24.5t170 66.5l104 -241q-94 -42 -211.5 -63t-236.5 -21q-214 0 -366 117 q-155 -119 -387 -119q-115 0 -208.5 30t-156.5 82.5t-105 125t-61 155.5t-19 176zM419 534q0 -328 226 -328q225 0 225 328q0 96 -14 159t-44 97.5t-69.5 48t-97.5 13.5q-44 0 -77 -8t-62 -29t-47.5 -56.5t-29 -91.5t-10.5 -133zM1190 627h407q-6 64 -25 108.5t-49 68 t-63.5 34t-75.5 10.5q-19 0 -37.5 -3t-48 -15.5t-51 -34.5t-38.5 -65.5t-19 -102.5z" />
<glyph unicode="&#x178;" horiz-adv-x="1499" d="M31 1497h400l326 -523l329 523h383l-550 -824v-673h-352v664zM449 1643v243h273v-243h-273zM819 1643v243h276v-243h-276z" />
<glyph unicode="&#x192;" d="M227 -417l219 1262h-159l35 213h159l9 64q10 67 35 122.5t55 93.5t77.5 70t84 50t94 35t88 23.5t85.5 16.5q21 4 31 6l11 -271h-17q-117 0 -188 -47t-80 -122l-4 -41h194l-37 -213h-195l-217 -1262h-280z" />
<glyph unicode="&#x2c6;" horiz-adv-x="614" d="M-31 1219l241 278h205l230 -278h-219l-114 139l-120 -139h-223z" />
<glyph unicode="&#x2c7;" horiz-adv-x="614" d="M-31 1497h223l113 -141l121 141h219l-238 -278h-204z" />
<glyph unicode="&#x2d8;" horiz-adv-x="614" d="M-102 1361l160 92q9 -35 44.5 -69.5t94 -58.5t121.5 -24q80 0 151 48.5t89 103.5l162 -92q-17 -43 -56 -88.5t-91 -85t-120 -65t-135 -25.5q-72 0 -136 17.5t-110 44.5t-82.5 63t-58.5 70.5t-33 68.5z" />
<glyph unicode="&#x2d9;" horiz-adv-x="614" d="M144 1248v249h328v-249h-328z" />
<glyph unicode="&#x2da;" horiz-adv-x="614" d="M26 1363q0 79 56 134.5t136 55.5q54 0 97.5 -25t68.5 -68.5t25 -96.5q0 -80 -55.5 -135t-135.5 -55q-78 0 -135 56t-57 134zM128 1365q0 -33 26 -61.5t64 -28.5q42 0 64.5 26t22.5 64t-23.5 64t-63.5 26q-38 0 -64 -27.5t-26 -62.5z" />
<glyph unicode="&#x2db;" horiz-adv-x="614" d="M33 -261q0 53 24 106t59.5 91.5t68 64t56.5 36.5h309q-62 -28 -126 -76.5t-108.5 -106t-44.5 -102t32 -68.5t77 -24q37 0 61 8t39 18.5t27 12.5l98 -192q-156 -44 -256 -44q-91 0 -155 21t-98 60t-48.5 86t-14.5 109z" />
<glyph unicode="&#x2dc;" horiz-adv-x="614" d="M-93 1257q46 103 111 144t174 41q30 0 58 -11.5t49.5 -28.5t41.5 -33.5t42 -28t43 -11.5q45 0 79.5 35.5t44.5 72.5l159 -76q-31 -95 -108.5 -149.5t-169.5 -54.5q-40 0 -72.5 11.5t-54 27.5t-39.5 32.5t-37 28t-38 11.5q-93 0 -123 -85z" />
<glyph unicode="&#x2dd;" horiz-adv-x="614" d="M-79 1219l223 271h307l-319 -271h-211zM301 1219l222 271h305l-318 -271h-209z" />
<glyph unicode="&#x3c0;" d="M53 824v234h1181v-234h-172v-592q0 -60 9.5 -97.5t34 -65.5t65 -43.5t106.5 -25.5l-60 -215q-46 9 -86.5 21t-84 30.5t-78.5 42t-67.5 57.5t-54 74.5t-34.5 94.5t-13 118v601h-295v-824h-263v824h-188z" />
<glyph unicode="&#x2000;" horiz-adv-x="966" />
<glyph unicode="&#x2001;" horiz-adv-x="1932" />
<glyph unicode="&#x2002;" horiz-adv-x="966" />
<glyph unicode="&#x2003;" horiz-adv-x="1932" />
<glyph unicode="&#x2004;" horiz-adv-x="644" />
<glyph unicode="&#x2005;" horiz-adv-x="483" />
<glyph unicode="&#x2006;" horiz-adv-x="322" />
<glyph unicode="&#x2007;" horiz-adv-x="322" />
<glyph unicode="&#x2008;" horiz-adv-x="241" />
<glyph unicode="&#x2009;" horiz-adv-x="386" />
<glyph unicode="&#x200a;" horiz-adv-x="107" />
<glyph unicode="&#x2010;" horiz-adv-x="837" d="M60 371v258h717v-258h-717z" />
<glyph unicode="&#x2011;" horiz-adv-x="837" d="M60 371v258h717v-258h-717z" />
<glyph unicode="&#x2012;" horiz-adv-x="837" d="M60 371v258h717v-258h-717z" />
<glyph unicode="&#x2013;" horiz-adv-x="1157" d="M-2 433v231h1161v-231h-1161z" />
<glyph unicode="&#x2014;" horiz-adv-x="2314" d="M-2 409v255h2318v-255h-2318z" />
<glyph unicode="&#x2018;" horiz-adv-x="654" d="M104 1064l229 436h206l-197 -436h-238z" />
<glyph unicode="&#x2019;" horiz-adv-x="654" d="M99 1064l199 436h239l-230 -436h-208z" />
<glyph unicode="&#x201a;" horiz-adv-x="654" d="M99 -203l199 435h239l-230 -435h-208z" />
<glyph unicode="&#x201c;" horiz-adv-x="1001" d="M93 1064l229 436h206l-197 -436h-238zM475 1064l227 436h208l-197 -436h-238z" />
<glyph unicode="&#x201d;" horiz-adv-x="1001" d="M93 1064l196 436h239l-227 -436h-208zM477 1064l196 436h237l-230 -436h-203z" />
<glyph unicode="&#x201e;" horiz-adv-x="1001" d="M93 -203l196 435h239l-227 -435h-208zM477 -203l196 435h237l-230 -435h-203z" />
<glyph unicode="&#x2020;" d="M86 696v236h439v503h259v-503h440v-236h-440v-1113h-259v1113h-439z" />
<glyph unicode="&#x2021;" d="M86 347v234h439v340h-439v236h439v340h259v-340h440v-236h-440v-340h440v-234h-440v-347h-259v347h-439z" />
<glyph unicode="&#x2022;" d="M305 750q0 73 27.5 137.5t74.5 111t112 73.5t136 27q96 0 176.5 -46t127 -126.5t46.5 -176.5q0 -71 -27.5 -136.5t-73.5 -112.5t-111 -75t-138 -28q-96 0 -176.5 46.5t-127 127.5t-46.5 178z" />
<glyph unicode="&#x2026;" horiz-adv-x="1966" d="M164 0v287h326v-287h-326zM819 0v287h327v-287h-327zM1475 0v287h327v-287h-327z" />
<glyph unicode="&#x202f;" horiz-adv-x="386" />
<glyph unicode="&#x2030;" horiz-adv-x="2767" d="M88 1131q0 203 88 301t266 98q126 0 205.5 -44.5t115.5 -131.5t36 -223q0 -207 -86 -311.5t-273 -104.5q-186 0 -269 103.5t-83 312.5zM310 1131q0 -60 2.5 -98.5t10 -71.5t22.5 -50t38 -26.5t57 -9.5q75 0 104.5 61t29.5 195q0 93 -11.5 143t-40 73t-80.5 23 q-34 0 -57.5 -10.5t-38 -28.5t-23 -49.5t-11 -66t-2.5 -84.5zM398 0l838 1455h266l-840 -1455h-264zM1124 384q0 202 88.5 300t266.5 98q188 0 271 -97t83 -301q0 -208 -84.5 -312.5t-271.5 -104.5q-186 0 -269.5 104t-83.5 313zM1349 384q0 -43 1.5 -73t4.5 -58.5t9 -47 t15 -34.5t23 -25t32.5 -13.5t42.5 -4.5q75 0 104 61t29 195q0 138 -27 188.5t-104 50.5q-33 0 -56.5 -10.5t-38 -28.5t-22 -49.5t-10.5 -65.5t-3 -85zM1974 384q0 203 88 300.5t266 97.5q187 0 269.5 -97t82.5 -301q0 -208 -83.5 -312.5t-270.5 -104.5q-186 0 -269 104 t-83 313zM2197 384q0 -60 2.5 -98t10 -71.5t22 -50.5t37.5 -26.5t57 -9.5q75 0 104.5 61t29.5 195q0 137 -27.5 188t-104.5 51q-34 0 -57.5 -10.5t-38 -28.5t-22.5 -49.5t-10.5 -66t-2.5 -84.5z" />
<glyph unicode="&#x2039;" horiz-adv-x="654" d="M97 625l215 421h287l-224 -417l222 -417h-285z" />
<glyph unicode="&#x203a;" horiz-adv-x="654" d="M90 1046h287l215 -421l-215 -413h-284l222 417z" />
<glyph unicode="&#x2044;" horiz-adv-x="522" d="M-289 0l837 1455h267l-841 -1455h-263z" />
<glyph unicode="&#x205f;" horiz-adv-x="483" />
<glyph unicode="&#x20ac;" horiz-adv-x="1248" d="M-71 453l87 271h150v67h-237l87 271h183q119 468 680 468q102 0 214 -16.5t196 -44.5l-92 -281q-173 71 -318 71q-129 0 -205.5 -46.5t-110.5 -150.5h587l-88 -271h-532v-67h510l-89 -271h-395q29 -123 102.5 -175.5t207.5 -52.5q37 0 74 5.5t81.5 20.5t69 24t78.5 32 t69 29v-327q-143 -55 -366 -55q-153 0 -271.5 33.5t-200 99.5t-132.5 156.5t-76 209.5h-263z" />
<glyph unicode="&#x2122;" horiz-adv-x="2167" d="M141 1351v146h687v-146h-240v-678h-206v678h-241zM930 673v824h350l197 -572l199 572h338v-824h-207v621l-224 -621h-229l-225 621v-621h-199z" />
<glyph unicode="&#x2202;" d="M108 417q0 528 499 528q21 0 51 -5.5t72.5 -18.5t82 -44t62.5 -74q0 50 -7.5 97t-30 99.5t-57 91t-94.5 64t-138 25.5q-117 0 -247 -69l-100 285q68 18 179.5 32t179.5 14q78 0 147.5 -15t126 -41.5t105 -65t86 -84.5t68 -100t51.5 -112t35 -120t20.5 -124t6.5 -125 q0 -78 -6.5 -146.5t-24 -140.5t-45 -131t-71.5 -112t-101.5 -89t-138.5 -57t-178 -21q-81 0 -158 19.5t-145 59t-119 93.5t-81 128.5t-30 158.5zM455 479q0 -14 2 -35.5t2 -26.5q0 -54 15 -93.5t41.5 -61.5t57 -32t65.5 -10q40 0 68.5 6t58 25.5t48 53t30 93t11.5 141.5 q-18 46 -41 75.5t-67.5 49t-109.5 19.5q-181 0 -181 -204z" />
<glyph unicode="&#x2206;" horiz-adv-x="1841" d="M125 0l646 1497h300l647 -1497h-1593zM495 232h856l-428 1031z" />
<glyph unicode="&#x220f;" d="M46 -417v2042h1217v-2042h-258v1822h-700v-1822h-259z" />
<glyph unicode="&#x2211;" d="M93 -210l645 819l-615 809v207h1113v-229h-787l600 -787l-634 -797h846v-229h-1168v207z" />
<glyph unicode="&#x221a;" d="M44 421v237h345l269 -684l391 1755h267l-430 -2023h-423l-293 715h-126z" />
<glyph unicode="&#x221e;" horiz-adv-x="1841" d="M118 523q0 59 14 115t47 110t82 94.5t125 65t170 24.5q68 0 125 -14.5t101.5 -43.5t77.5 -60.5t68 -75.5q32 38 53.5 60.5t57 51.5t69.5 44.5t83.5 26.5t106.5 11q75 0 136.5 -12.5t105 -34t76.5 -53t53.5 -66.5t33 -77t17 -81.5t4.5 -84.5q0 -59 -11.5 -113.5 t-41.5 -109t-77 -94t-124 -64t-176 -24.5q-61 0 -122 19.5t-109 50t-84.5 64t-57.5 66.5q-35 -42 -69 -73.5t-80 -62.5t-102.5 -47.5t-119.5 -16.5q-97 0 -174 24.5t-124.5 63.5t-78.5 93.5t-43 109t-12 114.5zM426 523q0 -34 9 -62.5t23 -46.5t31.5 -30.5t33 -18t27.5 -5.5 q30 0 70.5 21t82 60.5t65.5 86.5q-36 67 -98 114t-114 47q-50 0 -90 -41.5t-40 -124.5zM1080 528q106 -168 214 -168q50 0 85 40t35 123q0 42 -10 74.5t-26.5 52t-36.5 29.5t-43 10q-61 0 -108 -38t-110 -123z" />
<glyph unicode="&#x222b;" d="M289 -120q84 17 131 42.5t68.5 69t21.5 114.5v1148q0 74 16 135t41.5 104t64 77.5t75.5 55t85 37t83 24t79 14.5l69 -243q-56 -8 -93.5 -20.5t-63 -29.5t-39 -43.5t-19 -57.5t-5.5 -75v-1148q0 -66 -15.5 -123t-41 -99t-62.5 -77t-74.5 -58t-83 -42t-82.5 -29.5 t-78 -19.5z" />
<glyph unicode="&#x2248;" d="M71 162q0 59 21 114t61 100t106 72t150 27q70 0 138 -22.5t115.5 -54t85 -63.5t61.5 -54t31 -22q42 0 67.5 5.5t47.5 23.5t31.5 54.5t9.5 94.5l245 -134q0 -59 -20.5 -113.5t-60 -99.5t-107.5 -72t-155 -27q-61 0 -123 23t-108.5 55.5t-85.5 65t-68 55t-43 22.5 q-41 0 -67.5 -6.5t-47.5 -26t-30.5 -56.5t-9.5 -95zM71 647q0 60 21 115t61 100t106 71.5t150 26.5q70 0 138 -22t115.5 -53.5t85 -63.5t61.5 -54t31 -22q42 0 67.5 5.5t47.5 23.5t31.5 54.5t9.5 94.5l245 -134q0 -47 -12.5 -91t-39.5 -84.5t-66 -70.5t-97 -48t-128 -18 q-61 0 -123 22.5t-108.5 55.5t-85.5 65.5t-68 55t-43 22.5q-33 0 -55.5 -4t-42.5 -15.5t-31.5 -32t-18.5 -53t-7 -79.5z" />
<glyph unicode="&#x2260;" d="M115 128v230h327l90 170h-417v231h543l187 354l222 -125l-122 -229h249v-231h-370l-93 -170h463v-230h-583l-194 -362l-223 126l126 236h-205z" />
<glyph unicode="&#x2264;" d="M115 -2v234h1079v-234h-1079zM115 512v312l1079 243v-299l-748 -99l748 -97v-296z" />
<glyph unicode="&#x2265;" d="M115 -2v234h1079v-234h-1079zM115 276v296l751 97l-751 99v299l1079 -243v-312z" />
<glyph unicode="&#x25ca;" d="M111 724l399 806h287l402 -806l-406 -810h-283zM364 724l289 -618l292 618l-292 618z" />
<glyph unicode="&#x25fc;" horiz-adv-x="1052" d="M0 0v1053h1053v-1053h-1053z" />
<glyph unicode="&#xfb01;" horiz-adv-x="1355" d="M20 815v243h161v25q0 86 23.5 154t65 116t107.5 84.5t140 59.5t172 42l112 -256q-61 -8 -106.5 -18t-84 -26t-62.5 -38.5t-37.5 -55t-13.5 -74.5v-13h195v-243h-195v-815h-316v815h-161zM881 1248v249h331v-249h-331zM888 0v1058h318v-1058h-318z" />
<glyph unicode="&#xfb02;" horiz-adv-x="1355" d="M20 815v243h161v25q0 86 23.5 154t65 116t107.5 84.5t140 59.5t172 42l112 -256q-61 -8 -106.5 -18t-84 -26t-62.5 -38.5t-37.5 -55t-13.5 -74.5v-13h195v-243h-195v-815h-316v815h-161zM898 0v1521h317v-1521h-317z" />
</font>
</defs>
</svg>
