<?xml version="1.0" standalone="no"?>
<!DOCTYPE svg PUBLIC "-//W3C//DTD SVG 1.1//EN" "http://www.w3.org/Graphics/SVG/1.1/DTD/svg11.dtd" >
<svg xmlns="http://www.w3.org/2000/svg" xmlns:xlink="http://www.w3.org/1999/xlink" version="1.1">
<metadata></metadata>
<defs>
<font id="colaborate-mediumregular" horiz-adv-x="1248" >
<font-face units-per-em="2048" ascent="1638" descent="-410" />
<missing-glyph horiz-adv-x="623" />
<glyph horiz-adv-x="0" />
<glyph horiz-adv-x="682" />
<glyph unicode=" "  horiz-adv-x="623" />
<glyph unicode="&#x09;" horiz-adv-x="623" />
<glyph unicode="&#xa0;" horiz-adv-x="623" />
<glyph unicode="!" horiz-adv-x="623" d="M174 0v254h277v-254h-277zM183 421v1076h259v-1076h-259z" />
<glyph unicode="&#x22;" horiz-adv-x="925" d="M174 1497h231l-19 -501h-194zM523 1497h230l-20 -501h-192z" />
<glyph unicode="#" d="M37 396v183h243l56 322h-208v182h243l71 414h218l-72 -414h187l73 414h216l-71 -414h219v-182h-254l-55 -322h219v-183h-252l-69 -396h-218l70 396h-187l-70 -396h-217l68 396h-210zM497 579h188l55 322h-187z" />
<glyph unicode="$" d="M88 1115q0 92 33.5 165.5t92.5 121.5t133 77.5t163 41.5v206h203v-201q83 -6 178.5 -23t163.5 -41l-90 -245q-44 20 -74 32.5t-80.5 27.5t-97.5 21v-428q48 -18 84.5 -34t81.5 -41t77.5 -50.5t65 -62.5t52.5 -78.5t33 -96.5t13 -118q0 -70 -13.5 -128t-40 -101t-62 -76 t-82.5 -56t-97.5 -37.5t-111.5 -23.5v-194h-203v183q-161 3 -413 72l91 245q12 -4 60 -23t68 -26t58.5 -19t70.5 -17.5t65 -6.5v479q-57 22 -88.5 35.5t-82.5 39t-81 48t-66.5 58t-56 73.5t-33.5 89.5t-14 111.5zM375 1115q0 -55 36 -92.5t103 -71.5v338q-40 -11 -68 -30 t-43 -43.5t-21.5 -49t-6.5 -51.5zM709 206q59 22 91.5 64.5t32.5 113.5q0 41 -17 76t-43 59t-64 48v-361z" />
<glyph unicode="%" horiz-adv-x="1919" d="M99 1129q0 399 334 399q93 0 159 -27t104 -80.5t55 -124.5t17 -167q0 -97 -17 -170t-55 -129t-104.5 -85.5t-160.5 -29.5t-159.5 29t-102.5 85t-53.5 129t-16.5 171zM287 1129q0 -60 2.5 -99.5t11 -76.5t24 -58t42 -33t64.5 -12q36 0 63 13t43.5 35.5t26.5 58.5 t13.5 76.5t3.5 95.5q0 47 -2.5 81t-8.5 65.5t-16.5 52t-26.5 36t-39.5 22.5t-54.5 7q-38 0 -64.5 -13.5t-42 -35.5t-24.5 -57.5t-12 -71.5t-3 -86zM417 0l837 1455h227l-840 -1455h-224zM1155 384q0 398 333 398q94 0 159.5 -27t103 -80t54.5 -123.5t17 -167.5t-17 -170 t-54.5 -129.5t-104 -86t-160.5 -29.5q-93 0 -158.5 29t-102.5 85.5t-53.5 129.5t-16.5 171zM1342 384q0 -60 3 -99t11.5 -76.5t24 -58.5t41.5 -33.5t64 -12.5q37 0 64 13t43.5 35.5t26 59t13 77t3.5 95.5q0 57 -3 96t-12.5 72.5t-26 53.5t-42.5 30.5t-63.5 10.5t-64.5 -13.5 t-42.5 -35t-24.5 -57t-12 -71.5t-3 -86z" />
<glyph unicode="&#x26;" d="M106 419q0 301 250 429q-6 4 -31 23t-38 30t-37 33t-38 42.5t-29.5 47t-22.5 57.5t-7 65q0 81 23.5 149.5t72.5 123t133 85.5t194 31q203 0 313.5 -97t110.5 -283q0 -53 -26.5 -103.5t-65 -88.5t-96.5 -75.5t-106.5 -61.5t-108.5 -51q-81 -34 -129.5 -82.5t-70.5 -113 t-22 -155.5q0 -24 3 -46t8.5 -45.5t15.5 -44.5t23 -40.5t31.5 -35t41.5 -27t52.5 -17.5t63.5 -6q24 0 47 5.5t44 16.5t39.5 24.5t37 32.5t34 36.5t32.5 40.5v181h-205v186h463v-361q0 -62 19.5 -187.5t20.5 -136.5h-245l-38 104q-39 -56 -123.5 -98.5t-154.5 -42.5 q-73 0 -139.5 13.5t-129.5 47t-108.5 84t-73.5 130.5t-28 181zM415 1148q0 -27 8 -51.5t24.5 -47t29 -36t34.5 -34t28 -25.5q33 14 57.5 26.5t53 32t46.5 39.5t30 47t12 58q0 179 -166 179q-82 0 -119.5 -51.5t-37.5 -136.5z" />
<glyph unicode="'" horiz-adv-x="623" d="M197 1497h231l-19 -501h-194z" />
<glyph unicode="(" horiz-adv-x="728" d="M125 588q0 157 13 277.5t44 228t71 196.5t105 207h239q-122 -225 -166.5 -419t-44.5 -490q0 -130 9 -228t32.5 -205t68 -215.5t113.5 -235.5h-238q-100 172 -152 306.5t-73 266t-21 311.5z" />
<glyph unicode=")" horiz-adv-x="728" d="M125 -296q70 127 114 235.5t67.5 215.5t32 205t8.5 228q0 296 -44.5 490t-165.5 419h238q66 -119 105.5 -207.5t71 -196t44.5 -228t13 -277.5q0 -180 -20.5 -311.5t-73 -266t-151.5 -306.5h-239z" />
<glyph unicode="*" horiz-adv-x="994" d="M23 1097l54 164l342 -126l21 15l-16 354h161l-15 -360l18 -13l340 126l44 -162l-347 -84l-2 -20l227 -297l-135 -95l-196 306h-24l-203 -308l-135 101l229 293l-6 20z" />
<glyph unicode="+" d="M120 412v199h394v387h222v-387h393v-199h-393v-412h-222v412h-394z" />
<glyph unicode="," horiz-adv-x="623" d="M64 -238l110 412h277l-188 -412h-199z" />
<glyph unicode="-" horiz-adv-x="809" d="M62 412v217h686v-217h-686z" />
<glyph unicode="." horiz-adv-x="623" d="M174 0v254h277v-254h-277z" />
<glyph unicode="/" horiz-adv-x="693" d="M-9 -26l493 1547h220l-489 -1547h-224z" />
<glyph unicode="0" d="M88 713q0 138 18 248t57.5 200.5t101 150.5t151.5 92.5t207 32.5q125 0 218.5 -33t154 -92t98 -151t53 -200t15.5 -248q0 -142 -15 -252.5t-52.5 -206.5t-98.5 -159t-155.5 -99t-220.5 -36q-124 0 -217.5 36t-153 98.5t-96 159t-51 206.5t-14.5 253zM380 713 q0 -61 0.5 -104.5t3.5 -94t8 -85.5t14 -73t21.5 -62.5t30.5 -48.5t41.5 -37t53.5 -21t67 -8q47 0 84 13.5t63 37t45 62.5t30 80.5t17.5 100t8.5 113t2 127.5q0 66 -1.5 114.5t-5.5 100t-12 87.5t-20.5 71.5t-31 58t-43.5 40.5t-58.5 26t-74.5 8q-48 0 -85 -14t-62 -37.5 t-43 -62t-28.5 -77.5t-16 -95.5t-7 -104.5t-1.5 -115z" />
<glyph unicode="1" d="M263 1127l362 278h282v-1407h-291v1129l-265 -211z" />
<glyph unicode="2" d="M111 238q18 14 60 44q73 52 114.5 82.5t120 90.5t127.5 103t111 104t97.5 109t61 102t25.5 99q0 72 -17 122.5t-49.5 77.5t-71.5 38.5t-89 11.5q-76 0 -158.5 -26.5t-199.5 -89.5l-86 239q173 61 254 78t196 17q56 0 108 -6.5t104.5 -22t96.5 -39.5t82 -60.5t64.5 -83 t42 -109.5t15.5 -138q0 -85 -44 -179t-109 -174t-153 -162t-163 -139t-152 -109h649v-218h-956z" />
<glyph unicode="3" d="M93 20l86 239q20 -10 55 -22.5t83.5 -26t108.5 -22.5t113 -9q118 0 186 62t68 155q0 44 -10.5 79t-29 60t-49.5 42.5t-64.5 28t-82.5 16.5t-94.5 8t-108.5 2v213q49 0 82.5 1t73 3t65.5 6t55 11.5t46.5 17.5t35 25t27 34.5t15 44.5t5.5 56q0 178 -206 178 q-132 0 -350 -107l-85 239q71 36 210.5 61t234.5 25q241 0 364.5 -98t123.5 -293q0 -71 -26 -127.5t-71.5 -93t-101 -58.5t-119.5 -30q52 -8 99.5 -23.5t94.5 -44t81.5 -65.5t56 -92.5t21.5 -121.5q0 -71 -17.5 -131.5t-47.5 -104t-73 -78t-91 -56.5t-104 -36.5t-110 -20.5 t-111 -6q-266 0 -439 60z" />
<glyph unicode="4" d="M35 594l627 811h314v-813h223v-219h-223v-373h-287v373h-559zM271 592h418v543z" />
<glyph unicode="5" d="M108 16l86 238q80 -32 185 -53.5t186 -21.5q67 0 117 15.5t81 40.5t49.5 62.5t25.5 76t7 85.5q0 233 -211 233q-30 0 -57 -3t-52 -9.5t-42 -11.5t-40 -17t-32.5 -17t-34 -19.5t-29.5 -17.5l-188 72v736h915v-217h-628v-309q93 35 209 35q107 0 193 -28t150 -83.5 t98.5 -144.5t34.5 -205q0 -117 -45 -211.5t-123 -155t-180.5 -93.5t-219.5 -33q-285 0 -455 56z" />
<glyph unicode="6" d="M104 655q0 82 10.5 161t34 157t58 146.5t85 128t112.5 101.5t143.5 66.5t174.5 24.5q68 0 167.5 -13t168.5 -31l-86 -239q-129 65 -239 65q-65 0 -119 -18.5t-92.5 -51.5t-67 -76t-45 -95t-24.5 -105t-8 -110q23 45 62 80t81 53.5t79.5 28t67.5 9.5q238 0 357.5 -131.5 t119.5 -379.5q0 -102 -41.5 -190.5t-110.5 -148t-160.5 -93.5t-190.5 -34q-93 0 -169.5 21t-131.5 57t-97 88.5t-68 111t-42.5 130.5t-22.5 140.5t-6 146.5zM398 546q0 -76 8 -134t24 -98t36.5 -67t49.5 -41.5t59 -20.5t68 -6q90 0 149.5 62t59.5 185v14q0 29 -1 49t-5 52 t-12 54t-23 47.5t-36.5 41t-54.5 26t-75 10.5q-44 0 -81 -10.5t-62.5 -26.5t-46.5 -40t-33.5 -47t-23.5 -50z" />
<glyph unicode="7" d="M123 1188v214h884l90 -185l-498 -1217h-310l548 1188h-714z" />
<glyph unicode="8" d="M88 358q0 152 88 248.5t250 133.5q-2 1 -25 10t-33 13t-35.5 16t-39.5 21t-38 25.5t-37.5 32t-31 38t-27 45.5t-16 52.5t-6.5 61.5q0 184 125 284.5t370 100.5q261 0 378 -92.5t117 -289.5q0 -52 -16.5 -97.5t-43.5 -78t-58.5 -59t-67 -43.5t-64.5 -27.5t-53 -14.5 q169 -43 253.5 -133t84.5 -247q0 -90 -28 -159.5t-76 -114t-118 -73t-147.5 -40t-172.5 -11.5q-93 0 -169.5 11.5t-145 40t-115.5 73t-74.5 114t-27.5 159.5zM373 366q0 -40 13.5 -73.5t42 -60t77.5 -41.5t114 -15q67 0 117 14t80.5 40t45 60t14.5 76q0 46 -14 85t-36 66.5 t-55.5 50.5t-67 38.5t-77.5 29.5q-47 -16 -79.5 -29.5t-68.5 -36.5t-57 -49t-35 -66t-14 -89zM419 1046q0 -30 8.5 -56.5t25 -46.5t35 -36.5t43.5 -29.5t45.5 -22t46.5 -18q222 74 222 209q0 33 -5 58t-19 48.5t-37 38.5t-61.5 24t-90.5 9q-63 0 -105.5 -12t-65.5 -36.5 t-32.5 -55t-9.5 -74.5z" />
<glyph unicode="9" d="M106 972q0 102 43 191t113.5 148.5t161 94t185.5 34.5t172.5 -21t132.5 -57t96.5 -88.5t67 -111t41 -131t21.5 -140.5t6 -146q0 -82 -10.5 -161t-34 -157t-58 -146.5t-85 -128t-112.5 -101.5t-143.5 -66.5t-174.5 -24.5q-68 0 -167.5 13t-168.5 32l86 238 q129 -64 238 -64q66 0 120 18t92.5 51t66.5 76t45 95t24.5 105t7.5 110q-22 -45 -61 -80t-81.5 -53.5t-80 -28t-66.5 -9.5q-239 0 -358 130.5t-119 378.5zM398 958q0 -29 0.5 -49t5 -51.5t12 -53.5t23 -47t37 -40.5t54.5 -26t75 -10.5q44 0 81 10.5t62.5 26.5t46.5 40 t33.5 47t23.5 50q0 90 -12 156t-32.5 106.5t-52.5 64t-67 32.5t-81 9q-90 0 -149.5 -63.5t-59.5 -186.5v-14z" />
<glyph unicode=":" horiz-adv-x="623" d="M174 0v254h277v-254h-277zM174 791v255h277v-255h-277z" />
<glyph unicode=";" horiz-adv-x="623" d="M64 -238l110 412h277l-188 -412h-199zM174 791v255h277v-255h-277z" />
<glyph unicode="&#x3c;" d="M104 426v278l1042 345v-252l-780 -232l780 -227v-252z" />
<glyph unicode="=" d="M104 159v199h1042v-199h-1042zM104 560v199h1042v-199h-1042z" />
<glyph unicode="&#x3e;" d="M104 86v252l780 232l-780 227v252l1042 -340v-278z" />
<glyph unicode="?" horiz-adv-x="1064" d="M118 1451q75 27 200 48.5t207 21.5q48 0 87.5 -3t89 -12.5t89 -26t78.5 -45.5t65.5 -69t42.5 -99t16 -131q0 -56 -21 -105.5t-54.5 -86.5t-74.5 -70.5t-81.5 -65t-74.5 -63t-55 -70.5t-21 -82v-185h-260v198q0 36 7.5 70t17.5 60t29 53t33.5 44.5t41 40.5t42 34.5 t43.5 33.5q31 23 46.5 35t38.5 33.5t34.5 38t20 39.5t8.5 48q0 86 -40.5 123.5t-147.5 37.5q-67 0 -186 -25.5t-180 -55.5zM342 0v254h278v-254h-278z" />
<glyph unicode="@" horiz-adv-x="2082" d="M185 740q0 161 48 292t132.5 222.5t202.5 153.5t255 91t292 29q72 0 144.5 -10t150.5 -33t147.5 -57t132.5 -86.5t108.5 -117.5t72 -153t26.5 -190q0 -96 -22 -177t-60 -141t-94 -107t-119.5 -77.5t-140 -50.5t-153 -28t-160.5 -8q-263 0 -402 116t-139 337 q0 74 17 138.5t54.5 120.5t93 96t137.5 62.5t184 22.5q67 0 142 -11t110 -21v-354h46l71 -190l-353 -30v395q-19 11 -38 11q-29 0 -52.5 -3.5t-54 -18t-51.5 -39t-35.5 -70.5t-14.5 -109q0 -52 12.5 -94t30.5 -69t45.5 -46.5t52.5 -30t56 -16t50.5 -7t42.5 -1.5 q64 0 112.5 3.5t101 13.5t90.5 27.5t73.5 47.5t57.5 71.5t35 100.5t13 134q0 67 -12.5 124.5t-35.5 100.5t-53.5 77.5t-69.5 58.5t-80 41.5t-88 27t-91 14t-91 4.5q-53 0 -106 -5t-121.5 -21t-127.5 -41.5t-118.5 -71t-101.5 -105t-68 -148t-26 -195.5q0 -96 20 -177 t56.5 -138t81.5 -102t101.5 -73.5t109.5 -47.5t113 -28.5t105 -13t91 -3.5q203 0 494 75l89 -216q-271 -60 -589 -60q-163 0 -303.5 29.5t-257 92t-199 154t-128 221t-45.5 287.5z" />
<glyph unicode="A" horiz-adv-x="1575" d="M67 0l609 1497h269l564 -1497h-321l-135 400h-534l-142 -400h-310zM599 620h380l-182 553z" />
<glyph unicode="B" horiz-adv-x="1446" d="M218 0v1497h530q88 0 160.5 -11.5t137.5 -40.5t109.5 -75t70.5 -118t26 -166q0 -114 -65.5 -192.5t-172.5 -109.5q144 -20 225.5 -107t81.5 -240q0 -99 -27 -176t-72 -125.5t-110 -79.5t-135 -43.5t-153 -12.5h-606zM510 225h300q45 0 81.5 10.5t67 34t47.5 66t17 101.5 q0 223 -239 223h-274v-435zM510 881h270q51 0 90.5 22t62.5 68t23 112q0 39 -10 71.5t-33 60t-65 42.5t-100 15h-238v-391z" />
<glyph unicode="C" horiz-adv-x="1330" d="M137 748q0 92 10.5 174.5t35 162t61.5 145.5t93 122t127 94.5t165 60t206 21.5q64 0 135 -7.5t138.5 -21.5t123.5 -32l-91 -245q-44 19 -74.5 30.5t-71.5 24.5t-80.5 19.5t-79.5 6.5q-108 0 -185.5 -37t-123.5 -110t-67.5 -172.5t-21.5 -233.5q0 -142 20.5 -245t65 -177 t119 -110.5t180.5 -36.5q26 0 50 2t51 8t44.5 10.5t48 15.5t43.5 16t49.5 20.5t48.5 19.5l91 -245q-106 -37 -203.5 -54.5t-218.5 -17.5q-689 0 -689 792z" />
<glyph unicode="D" horiz-adv-x="1557" d="M218 0v1497h488q185 0 316.5 -39t222 -127t133 -230t42.5 -346q0 -207 -41.5 -350.5t-131 -233.5t-221.5 -130.5t-320 -40.5h-488zM510 225h217q74 0 130 12.5t107.5 47.5t84 93t52 152t19.5 223q0 77 -7 141.5t-19 114t-31 88.5t-40 66.5t-50 47.5t-57 31.5t-65 18.5 t-70 9t-75 2h-196v-1047z" />
<glyph unicode="E" horiz-adv-x="1343" d="M218 0v1497h888v-225h-596v-386h548v-224h-548v-437h617v-225h-909z" />
<glyph unicode="F" horiz-adv-x="1226" d="M218 0v1497h888v-227h-596v-393h568v-222h-568v-655h-292z" />
<glyph unicode="G" horiz-adv-x="1466" d="M137 750q0 117 18 218t54.5 188.5t94.5 155.5t136 116.5t181 74t227 25.5q72 0 178.5 -18.5t197.5 -42.5l-89 -245q-64 27 -95.5 40t-87 27t-102.5 14q-77 0 -137 -15.5t-113 -54t-88 -100.5t-55 -158.5t-20 -224.5q0 -112 11.5 -198t39.5 -157.5t73 -117.5t113 -71 t159 -25q79 0 131.5 13t106.5 44v338h-331v225h591v-711q-123 -72 -233.5 -103t-271.5 -31q-115 0 -211 23t-166.5 63.5t-125 99t-89 126t-57 149t-31.5 162.5t-9 171z" />
<glyph unicode="H" horiz-adv-x="1601" d="M218 0v1497h292v-611h583v611h291v-1497h-291v660h-583v-660h-292z" />
<glyph unicode="I" horiz-adv-x="670" d="M190 0v1497h291v-1497h-291z" />
<glyph unicode="J" horiz-adv-x="1024" d="M33 0q18 4 55 10q57 11 87 17.5t83 23t83 35t68 51.5t58 74t34.5 102t14.5 136v1048h292v-1025q0 -83 -14.5 -156t-37 -130t-62 -107.5t-75.5 -86t-92.5 -69t-98.5 -54.5t-107.5 -44t-105.5 -35t-107 -31z" />
<glyph unicode="K" horiz-adv-x="1524" d="M218 0v1497h292v-631l552 631h329l-611 -704l713 -793h-378l-605 683v-683h-292z" />
<glyph unicode="L" horiz-adv-x="1144" d="M218 0v1497h292v-1265h621v-232h-913z" />
<glyph unicode="M" horiz-adv-x="2140" d="M218 0v1497h478l380 -1106l388 1106h459v-1497h-287v1188l-421 -1188h-299l-421 1188v-1188h-277z" />
<glyph unicode="N" horiz-adv-x="1681" d="M218 0v1497h432l527 -1152v1152h287v-1497h-437l-532 1153v-1153h-277z" />
<glyph unicode="O" horiz-adv-x="1676" d="M137 742q0 136 23 251t76 215.5t133.5 170t201.5 109.5t274 40q696 0 696 -786q0 -137 -22 -252.5t-74 -215.5t-131.5 -169.5t-199 -109t-272.5 -39.5q-114 0 -209 20t-167 57t-128 91.5t-93.5 120t-62 146t-35 167t-10.5 184.5zM437 742q0 -154 24 -261t74.5 -174 t125.5 -96.5t181 -29.5q211 0 305 138t94 423q0 296 -96.5 428.5t-302.5 132.5q-209 0 -307 -134t-98 -427z" />
<glyph unicode="P" horiz-adv-x="1387" d="M218 0v1497h524q95 0 173 -13.5t145.5 -46t113.5 -83t72 -128t26 -177.5q0 -464 -504 -464h-258v-585h-292zM510 810h240q226 0 226 239q0 43 -7 77t-19 57t-31 40t-38 26.5t-45 14.5t-47.5 6.5t-50.5 1.5h-228v-462z" />
<glyph unicode="Q" horiz-adv-x="1676" d="M137 742q0 137 22.5 251.5t75 215t133 170t202 109.5t275.5 40q696 0 696 -786q0 -137 -22 -252.5t-74 -215.5t-131.5 -169.5t-199 -109t-272.5 -39.5q-114 0 -209 20t-167 57t-128 91.5t-93.5 120t-62 146t-35 167t-10.5 184.5zM437 742q0 -154 24 -261t74.5 -174 t125.5 -96.5t181 -29.5q211 0 305 138t94 423q0 296 -96.5 428.5t-302.5 132.5q-209 0 -307 -134t-98 -427zM748 -261l100 162l522 -49l-100 -192z" />
<glyph unicode="R" horiz-adv-x="1484" d="M218 0v1497h559q55 0 104 -5t101 -18.5t95.5 -35t82.5 -55.5t66 -78t43 -105.5t16 -135.5q0 -62 -11.5 -117.5t-38.5 -108.5t-69 -93.5t-106 -70t-146 -42.5l473 -632h-358l-455 623h-64v-623h-292zM510 848h281q97 0 147 59t50 157q0 64 -21 110t-66 72t-112 26h-279 v-424z" />
<glyph unicode="S" horiz-adv-x="1374" d="M148 28l90 245q7 -2 20 -7q54 -20 84.5 -31t79.5 -26t92.5 -21.5t84.5 -6.5q50 0 89 3.5t76.5 11.5t64.5 23t48 37t31.5 54.5t10.5 73.5q0 24 -6 46t-15 39.5t-26.5 35.5t-31.5 30.5t-41 27.5t-44.5 24t-51.5 23t-53 21.5t-57 21.5q-28 10 -43 16q-49 19 -85 35t-81 40 t-76.5 48t-63.5 58t-51.5 72t-32 87.5t-12.5 105.5q0 86 34 156.5t91 117t132.5 79t156.5 46.5t167 14q84 0 209.5 -18t211.5 -48l-90 -245q-47 20 -72 30t-72.5 26t-95 23t-98.5 7q-63 0 -112.5 -11.5t-80 -29.5t-50 -43t-27.5 -50.5t-8 -53.5q0 -18 5 -35t12 -31t22 -27.5 t26.5 -23.5t34.5 -22t37.5 -19.5t43.5 -18.5t45.5 -17l49.5 -18q16 -6 25 -9q44 -16 73 -27t72 -30t72.5 -35.5t66 -41.5t61 -50.5t50.5 -60.5t41 -73t24.5 -86t9.5 -101q0 -76 -18.5 -138t-50 -106t-78.5 -78t-99 -54.5t-116 -33.5t-125 -18t-131 -5q-91 0 -216.5 21.5 t-232.5 50.5z" />
<glyph unicode="T" horiz-adv-x="1217" d="M51 1270v227h1115v-227h-411v-1270h-292v1270h-412z" />
<glyph unicode="U" horiz-adv-x="1672" d="M218 553v944h292v-921q0 -70 9 -127t25.5 -98t41 -71.5t52.5 -49t64 -30t71.5 -15.5t78.5 -4q71 0 126.5 20.5t98 65.5t65 123t22.5 186v921h291v-949q0 -197 -70.5 -330t-204.5 -197.5t-328 -64.5q-321 0 -477.5 148t-156.5 449z" />
<glyph unicode="V" horiz-adv-x="1508" d="M64 1497h322l385 -1139l364 1139h309l-546 -1497h-269z" />
<glyph unicode="W" horiz-adv-x="2237" d="M79 1497h307l250 -1143l329 1081h362l272 -1081l276 1143h284l-384 -1497h-361l-292 1046l-342 -1046h-361z" />
<glyph unicode="X" horiz-adv-x="1462" d="M69 0l501 773l-440 724h336l274 -470l294 470h313l-459 -713l492 -784h-346l-310 541l-342 -541h-313z" />
<glyph unicode="Y" horiz-adv-x="1431" d="M33 1497h331l363 -574l359 574h314l-539 -824v-673h-291v664z" />
<glyph unicode="Z" horiz-adv-x="1297" d="M99 236l785 1034h-699v227h937l77 -236l-782 -1034h763v-227h-1004z" />
<glyph unicode="[" horiz-adv-x="705" d="M192 -294v1858h405v-184h-182v-1482h182v-192h-405z" />
<glyph unicode="\" horiz-adv-x="693" d="M-9 1521h219l494 -1547h-225z" />
<glyph unicode="]" horiz-adv-x="705" d="M132 -102h183v1482h-183v184h405v-1858h-405v192z" />
<glyph unicode="^" d="M75 623l418 874h255l427 -874h-243l-309 675l-313 -675h-235z" />
<glyph unicode="_" horiz-adv-x="1157" d="M-2 -69h1161v-200h-1161v200z" />
<glyph unicode="`" horiz-adv-x="570" d="M44 1497h261l223 -271h-181z" />
<glyph unicode="a" horiz-adv-x="1207" d="M99 278q0 67 17 122.5t58.5 105.5t106.5 84.5t166 54t233 19.5h88v51q0 28 -2.5 49.5t-11.5 45.5t-24.5 39.5t-44 26t-67.5 10.5q-192 0 -386 -93l-91 216q105 38 235 58.5t256 20.5q89 0 161 -20.5t126 -61t83.5 -106t29.5 -150.5v-426q0 -36 7 -89.5t18 -122t17 -112.5 h-248l-40 106q-142 -137 -274 -137q-202 0 -307.5 79t-105.5 230zM373 289q0 -16 4 -30.5t11.5 -25.5t18 -20.5t24 -16t28 -11.5t31.5 -8t34.5 -4t35.5 -1q69 0 122.5 30.5t88.5 77.5v208h-58q-181 0 -260.5 -49.5t-79.5 -149.5z" />
<glyph unicode="b" horiz-adv-x="1228" d="M125 0q3 17 8 57t6.5 54.5t5 46t4.5 52t2.5 51t1.5 63.5v1197h262v-602q121 169 277 169q77 0 142 -20.5t112.5 -58t83 -88t57 -113t32 -130.5t10.5 -144q0 -91 -18.5 -174.5t-57 -155t-94 -123.5t-133.5 -82t-171 -30q-46 0 -88.5 13.5t-73 35.5t-51.5 44t-35 44 l-41 -106h-241zM409 320q69 -148 205 -148q247 0 247 358q0 84 -11.5 147t-31 102.5t-48 63.5t-59.5 33.5t-68 9.5q-24 0 -46 -6.5t-40 -16.5t-36 -26t-32 -32t-29.5 -39t-26 -41l-24.5 -42v-363z" />
<glyph unicode="c" horiz-adv-x="1073" d="M99 521q0 74 10.5 139.5t32 122.5t53.5 104.5t75.5 85t97 63t119.5 39t142 13.5q67 0 180.5 -24.5t175.5 -49.5l-89 -215q-174 87 -269 87q-67 0 -114.5 -19t-80.5 -62t-48.5 -113t-15.5 -171q0 -180 67 -264.5t190 -84.5q51 0 130 25t150 62l91 -215q-39 -19 -114 -36.5 t-146.5 -28t-112.5 -10.5q-128 0 -228 40.5t-164.5 114t-98 174t-33.5 223.5z" />
<glyph unicode="d" horiz-adv-x="1228" d="M99 534q0 90 16.5 171t51 151.5t85 121.5t123.5 80.5t162 29.5q156 0 278 -169v602h261v-1197q0 -39 1 -71t4.5 -67t5.5 -54.5t8 -64.5t9 -67h-241l-41 106q-14 -22 -35 -44t-51.5 -44t-72.5 -35.5t-89 -13.5q-103 0 -184.5 30t-135.5 81.5t-89 124.5t-50.5 154 t-15.5 175zM368 530q0 -104 16 -174t49 -110.5t76.5 -57t106.5 -16.5q134 0 203 148v363q-20 35 -35 59.5t-38 54t-45.5 47t-52.5 30t-63 12.5q-37 0 -67.5 -9.5t-59 -33.5t-48 -63.5t-31 -102.5t-11.5 -147z" />
<glyph unicode="e" horiz-adv-x="1205" d="M99 519q0 55 7.5 109t24.5 111t42.5 107t66 95t91 77.5t120 51t150.5 18.5q92 0 165 -18t128.5 -55t95 -91t64.5 -128.5t36.5 -164.5t11.5 -203h-727q8 -63 28 -112.5t52 -83t76 -51t98 -17.5q151 0 331 90l86 -201q-92 -42 -206 -63t-229 -21q-100 0 -184 29t-144 80 t-101.5 120.5t-62 150.5t-20.5 170zM375 616h475q-15 270 -251 270q-28 0 -55.5 -6.5t-57.5 -25.5t-53 -48t-39 -78t-19 -112z" />
<glyph unicode="f" horiz-adv-x="772" d="M26 857v201h159v30q0 93 34 171.5t87.5 130.5t124 90t139.5 57t139 25l64 -215q-163 -16 -245 -71.5t-82 -166.5v-51h241v-201h-241v-857h-261v857h-159z" />
<glyph unicode="g" horiz-adv-x="1261" d="M88 -166q0 134 171 201q-134 60 -134 197q0 94 122 185q-15 19 -22 28.5t-26 39.5t-29 55.5t-19.5 65.5t-9.5 81q0 30 4.5 61.5t18 72t35 76.5t58.5 72t85.5 61.5t120 41.5t157.5 16q17 0 31.5 -0.5t29.5 -2t23.5 -2t25.5 -3.5t21.5 -4t24.5 -5t23 -4q315 25 398 28 l-68 -176h-129q40 -40 73 -103.5t33 -130.5q0 -48 -10 -93.5t-31.5 -92t-59.5 -85t-89.5 -69t-126 -48t-164.5 -17.5q-40 0 -117.5 11.5t-114.5 28.5q-48 -26 -48 -77q0 -29 25 -45.5t91.5 -28t200.5 -21.5q125 -10 215.5 -28.5t149 -43.5t92.5 -61.5t47.5 -77.5t13.5 -96 q0 -68 -31 -121t-82.5 -87.5t-122.5 -57t-146.5 -32t-159.5 -9.5q-124 0 -218.5 14.5t-157 40t-102 63.5t-56 82t-16.5 100zM356 -157q0 -37 41.5 -64t104 -39.5t136.5 -12.5q156 0 215 24.5t59 89.5q0 14 -13 27t-46.5 26.5t-85.5 24t-138 18t-196 10.5 q-36 -17 -56.5 -44.5t-20.5 -59.5zM409 683q0 -55 16.5 -95.5t46.5 -64.5t68.5 -35t86.5 -11q39 0 71.5 9t55 24.5t39 36t26 45t14 49.5t4.5 51q0 94 -53.5 146t-158.5 52q-43 0 -79 -9.5t-68 -32t-50.5 -65t-18.5 -100.5z" />
<glyph unicode="h" horiz-adv-x="1223" d="M153 0v1521h262v-602q18 23 28.5 36.5t40 42.5t56 46t67 31.5t82.5 14.5q91 0 158.5 -21t110 -57t68.5 -91.5t35.5 -116t9.5 -137.5v-667h-261v678q0 26 -1 44.5t-4.5 42t-10.5 40t-19 33.5t-29 27t-42.5 16.5t-58.5 6.5q-39 0 -74 -16.5t-63.5 -46.5t-50 -62t-42.5 -74 v-689h-262z" />
<glyph unicode="i" horiz-adv-x="570" d="M148 1270v227h276v-227h-276zM155 0v1058h262v-1058h-262z" />
<glyph unicode="j" horiz-adv-x="563" d="M-69 -238q121 26 168 77t47 154v1065h261v-1044q0 -80 -20.5 -146t-54 -114.5t-84.5 -88.5t-105.5 -67t-122.5 -51zM137 1270v227h280v-227h-280z" />
<glyph unicode="k" horiz-adv-x="1126" d="M153 0v1521h262v-880l347 417h282l-384 -459l439 -599h-300l-384 530v-530h-262z" />
<glyph unicode="l" horiz-adv-x="566" d="M153 0v1521h262v-1521h-262z" />
<glyph unicode="m" horiz-adv-x="1873" d="M125 1058h241l41 -142q16 24 42 50.5t63 56t83.5 48.5t91.5 19q91 0 150 -17.5t99.5 -52t88.5 -101.5q31 50 76.5 87.5t109.5 60.5t138 23q188 0 280.5 -101.5t92.5 -312.5v-676h-262v671q0 117 -35 167t-115 50q-46 0 -86 -17.5t-70.5 -48t-53 -66.5t-38.5 -78v-678 h-261v671q0 66 -9 108.5t-30 66.5t-50 33t-74 9q-38 0 -75.5 -21t-66 -54t-48.5 -63t-33 -58v-692h-262v815q0 51 -13 135t-15 108z" />
<glyph unicode="n" horiz-adv-x="1223" d="M125 1058h241l41 -139q5 5 21 23.5t28.5 31t33 32t41 32.5t45.5 26t54 19.5t59 6.5q91 0 158.5 -21t110 -57t68.5 -91.5t35.5 -116t9.5 -137.5v-667h-261v678q0 26 -1 44.5t-4.5 42t-10.5 40t-19 33.5t-29 27t-42.5 16.5t-58.5 6.5q-133 0 -230 -199v-689h-262v833 q0 39 -4.5 76.5t-12.5 80.5t-11 68z" />
<glyph unicode="o" horiz-adv-x="1241" d="M99 534q0 91 18 171t58 151.5t99.5 123t148.5 81t200 29.5q80 0 149 -14.5t122 -41.5t95 -66t70.5 -86t47.5 -103t28 -116.5t9 -128.5q0 -93 -17.5 -175t-57 -155t-99 -124.5t-148.5 -82t-199 -30.5q-112 0 -201 30t-148.5 82t-99.5 124.5t-57.5 154.5t-17.5 176z M368 534q0 -181 62 -272.5t193 -91.5q124 0 188 88t64 276q0 130 -27 207.5t-81.5 112t-143.5 34.5q-129 0 -192 -82.5t-63 -271.5z" />
<glyph unicode="p" horiz-adv-x="1228" d="M125 1058h241l46 -139q13 16 23 29.5t26.5 32t32.5 33t37.5 29.5t42.5 25t47.5 16t54.5 6q96 0 173.5 -30t129 -82t86 -124.5t49.5 -154.5t15 -176q0 -90 -16 -171t-51 -151.5t-85.5 -122t-123.5 -81.5t-161 -30q-77 0 -155 38t-122 99v-521h-262v1150q0 25 -1 48 t-1.5 41.5t-2.5 40t-3 36t-4 37t-4.5 37t-5 41t-6.5 44.5zM409 322q85 -152 234 -152q37 0 68 9t59.5 34t48 64.5t31 103t11.5 147.5q0 103 -16 174t-48.5 111.5t-76.5 57.5t-106 17q-113 0 -205 -196v-370z" />
<glyph unicode="q" horiz-adv-x="1228" d="M99 523q0 93 17 175.5t52.5 155t88 124.5t128 82t168.5 30q37 0 74 -12t65.5 -30t54 -42t42.5 -45.5t28 -41.5l46 139h241q-3 -22 -9 -67t-8 -65t-5.5 -54.5t-4.5 -67t-1 -71.5v-1150h-261v521q-44 -61 -123 -99t-155 -38q-95 0 -170.5 30t-125 81t-82 123t-46.5 151.5 t-14 170.5zM368 528q0 -84 11.5 -147.5t31 -103t48 -64.5t59 -34t67.5 -9q149 0 234 152v370q-40 85 -92.5 140.5t-115.5 55.5q-62 0 -105.5 -17t-75 -57.5t-47 -111t-15.5 -174.5z" />
<glyph unicode="r" horiz-adv-x="901" d="M125 1058h241l41 -181q16 29 42 62t61 69t78 59t83 23q63 0 107 -12t94 -38l-90 -216q-84 64 -153 64q-22 0 -43.5 -9t-38 -21.5t-33.5 -34.5t-28 -39t-24.5 -44.5t-19.5 -41t-16 -38.5t-11 -28v-632h-262v822q0 46 -5 90t-13 88.5t-10 57.5z" />
<glyph unicode="s" horiz-adv-x="1042" d="M88 42l91 215q22 -9 64 -26t64.5 -25t56.5 -18t66 -14t67 -4q58 0 96.5 9t56.5 26.5t24 36t6 45.5q0 16 -6.5 30t-22.5 26t-31 20.5t-44 18.5t-47 16t-54 17q-35 10 -56.5 17t-55.5 19.5t-56.5 23.5t-51.5 28.5t-48 35.5t-39.5 43.5t-32 53t-19.5 63.5t-8 76 q0 74 26.5 130.5t69 91t102.5 56t121 29.5t131 8q150 0 363 -67l-90 -215q-9 4 -24 11q-58 26 -86.5 38t-71.5 21.5t-89 9.5q-91 0 -137 -25t-46 -81q0 -17 6.5 -31t21.5 -26t29 -20.5t41.5 -19t45.5 -16t53 -16.5q42 -13 64 -20.5t63 -22.5t64.5 -29.5t56.5 -35.5 t52.5 -45.5t38.5 -55.5t27.5 -70.5t8.5 -84.5q0 -71 -26 -127.5t-69.5 -92.5t-103.5 -59.5t-123 -33t-134 -9.5q-91 0 -203.5 21.5t-201.5 53.5z" />
<glyph unicode="t" horiz-adv-x="775" d="M31 857v203h175v282h262v-282h247v-203h-247v-600q0 -107 72 -165t215 -92l-70 -225q-99 25 -183.5 68.5t-152 105t-105.5 146.5t-38 183v579h-175z" />
<glyph unicode="u" horiz-adv-x="1207" d="M153 391v667h262v-678q0 -36 2 -61.5t11 -56t25.5 -49t46.5 -31t72 -12.5q39 0 73 16t61 46.5t47 62t40 73.5v690h262v-833q0 -39 4.5 -76.5t12.5 -80.5t11 -68h-241l-41 139q-6 -7 -24.5 -28.5t-33 -37t-40 -37t-49.5 -35.5t-57.5 -24t-68.5 -10q-86 0 -151.5 21 t-107.5 58t-68.5 91.5t-37 116t-10.5 137.5z" />
<glyph unicode="v" horiz-adv-x="1241" d="M84 1058h280l265 -751l257 751h273l-409 -1058h-257z" />
<glyph unicode="w" horiz-adv-x="1844" d="M69 1058h278l234 -738l234 645h256l223 -645l212 738h269l-349 -1058h-273l-218 647l-241 -647h-275z" />
<glyph unicode="x" horiz-adv-x="1142" d="M53 0l382 534l-356 524h294l208 -331l218 331h272l-360 -508l379 -550h-293l-227 351l-241 -351h-276z" />
<glyph unicode="y" horiz-adv-x="1226" d="M84 1058h280l270 -720l236 720h274l-442 -1228q-52 -144 -146 -242.5t-258 -154.5l-88 216q91 24 138.5 62t66.5 88l92 245z" />
<glyph unicode="z" horiz-adv-x="1027" d="M60 215l613 642h-539v201h743l90 -216l-607 -641h570v-201h-780z" />
<glyph unicode="{" horiz-adv-x="901" d="M111 514v201q36 1 63 11.5t45 34t29.5 44.5t20 62t12 66.5t8.5 76.5q5 44 8 67t9.5 65.5t14.5 66.5t21 61.5t30.5 60t41 51.5t54.5 46t69 33.5t87.5 25t106.5 10.5v-201q-55 0 -93.5 -18.5t-59 -51.5t-32 -75.5t-17 -92.5t-10 -102t-15 -103.5t-28.5 -96.5t-53 -83.5 t-85 -61.5q52 -18 87.5 -53.5t53.5 -79.5t28.5 -95.5t15 -104t9.5 -103.5t16.5 -95.5t31.5 -78t58 -53t93 -19.5v-202q-63 1 -115.5 12t-91.5 26t-71.5 42.5t-53.5 50.5t-38.5 62.5t-27 66t-18 73t-11.5 72t-8 73.5q-6 52 -9.5 78.5t-12 68.5t-20.5 64t-31 47t-47 36.5 t-65 14.5z" />
<glyph unicode="|" horiz-adv-x="623" d="M201 -384v2009h223v-2009h-223z" />
<glyph unicode="}" horiz-adv-x="901" d="M172 -71q50 0 86 16t56 43.5t33.5 65.5t18 81t10.5 91t10 94.5t16.5 91.5t30.5 83t51.5 68.5t80.5 47.5q-51 23 -86 61.5t-52.5 83.5t-28 96.5t-15 103.5t-10 102t-17.5 92.5t-32 75.5t-58.5 51.5t-93.5 18.5v201q63 -2 117 -13.5t93.5 -27t72 -44t54.5 -52t39.5 -63.5 t27 -66.5t17.5 -73.5t11.5 -72.5t8.5 -74.5l7.5 -66t9 -59t14 -56t20.5 -44t30 -37.5t41.5 -22t55.5 -10.5v-201q-37 -3 -65 -14.5t-47 -36.5t-31 -47t-20.5 -64t-12 -68.5t-8.5 -78.5q-5 -44 -8 -66.5t-9.5 -64.5t-14.5 -66t-20.5 -61t-30 -59t-40.5 -50t-53.5 -45t-68 -33 t-86 -24t-104.5 -9v202z" />
<glyph unicode="~" d="M67 475q0 58 20.5 110t59.5 92t99.5 63.5t135.5 23.5q64 0 127 -21t110 -51t86.5 -60t69 -51t44.5 -21q41 0 68 7t48.5 25.5t31 53t9.5 87.5l207 -110q0 -58 -21 -110t-60 -92t-100.5 -64t-138.5 -24q-58 0 -117 21.5t-105 52t-86.5 61t-73.5 52t-53 21.5q-54 0 -86 -14 t-50.5 -53.5t-18.5 -109.5z" />
<glyph unicode="&#xa1;" horiz-adv-x="623" d="M174 1243v254h277v-254h-277zM183 0v1076h259v-1076h-259z" />
<glyph unicode="&#xa2;" horiz-adv-x="1062" d="M99 521q0 232 104.5 378.5t308.5 178.5v218h210v-218q130 -19 252 -64l-90 -215q-78 41 -162 69v-680q73 21 172 71l89 -215q-70 -36 -261 -64v-212h-210v212q-134 21 -228 95.5t-139.5 187.5t-45.5 258zM368 521q0 -260 144 -327v674q-74 -30 -109 -113.5t-35 -233.5z " />
<glyph unicode="&#xa3;" d="M102 692v202h174v13q0 84 12.5 156t34.5 128t56.5 103t72 81.5t88 62t98 46t108 33.5t112.5 23.5t116 16.5l77 -241h-18q-71 -4 -106 -7t-94 -13t-89.5 -25.5t-70 -45.5t-58.5 -71t-33.5 -103.5t-14.5 -143.5v-13h349v-202h-349v-460h632v-232h-1071v232h148v460h-174z " />
<glyph unicode="&#xa5;" d="M0 1497h324l310 -581l311 581h305l-431 -738h241v-199h-292v-118h292v-199h-292v-243h-291v243h-292v199h292v118h-292v199h239z" />
<glyph unicode="&#xa7;" horiz-adv-x="1042" d="M81 771q0 85 34.5 146.5t94.5 93.5q-92 81 -92 201q0 74 26 130.5t68.5 91t102.5 56.5t121 30t131 8q133 0 340 -68l-90 -212q-15 6 -46 21.5t-48 22.5t-43.5 17t-53.5 14t-56 4q-61 0 -100.5 -11t-61.5 -35t-22 -62q0 -28 20 -49.5t53.5 -36.5t76.5 -28.5t91 -28.5 t95.5 -33.5t91 -46t76.5 -63t53 -88.5t20 -118q0 -151 -113 -234q66 -77 66 -208q0 -72 -25.5 -128.5t-68 -92.5t-101.5 -59t-122 -32.5t-133 -9.5q-163 0 -371 74l90 215q19 -8 64.5 -29.5t69 -30.5t66 -18.5t85.5 -9.5q47 0 80.5 6.5t52 17t29 27t13 31.5t2.5 36 q0 30 -19 52t-52 36.5t-75.5 27.5t-89.5 27t-93.5 31.5t-89 44.5t-75.5 62t-52.5 88t-19.5 120zM345 773q0 -16 7 -30t18.5 -25t30.5 -21.5t38 -18.5t46 -17t49.5 -16t53 -16.5t53.5 -17.5q18 11 30 24.5t17.5 28.5t7.5 29t2 31q0 20 -8 38t-18.5 31t-33.5 27t-40 22.5 t-51 20.5t-53.5 18.5t-60.5 19.5q-88 -29 -88 -128z" />
<glyph unicode="&#xa8;" horiz-adv-x="570" d="M-16 1283v214h236v-214h-236zM351 1283v214h237v-214h-237z" />
<glyph unicode="&#xa9;" horiz-adv-x="1665" d="M58 750.5q0 160.5 60.5 304t164 246t247 162.5t303.5 60q162 0 306 -59.5t247 -161.5t162.5 -245.5t59.5 -306.5q0 -160 -60.5 -303.5t-164 -246t-247 -163t-303.5 -60.5t-303.5 60.5t-247 163t-164 246t-60.5 304zM218 750q0 -126 48.5 -242t130.5 -200t196 -134.5 t240 -50.5t240 50.5t196.5 134.5t131 200t48.5 242q0 102 -30.5 197.5t-87 173t-132 135.5t-170 89.5t-196.5 31.5q-129 0 -243.5 -49.5t-195.5 -133.5t-128.5 -199.5t-47.5 -244.5zM424 745q0 64 9 121t28 110.5t52 96t78 74t109 48.5t142 17q135 0 238 -35l-55 -148 q-108 49 -183 49q-127 0 -182 -83.5t-55 -246.5q0 -85 12 -147t38.5 -107t71 -67t108.5 -22q35 0 73 9t58.5 17t70.5 30l53 -149q-113 -41 -253 -41q-413 0 -413 474z" />
<glyph unicode="&#xaa;" d="M329 1058q0 217 349 217h51v28q0 40 -17.5 60.5t-73.5 20.5q-123 0 -231 -51l-53 127q134 44 293 44q113 0 183.5 -47t70.5 -138v-236q0 -21 4 -49.5t10.5 -67.5t9.5 -61h-161l-24 60q-88 -77 -164 -77q-121 0 -184 43.5t-63 126.5zM497 1064q0 -17 8.5 -28.5t24.5 -17 t33 -7.5t42 -2q75 0 126 65v88h-35q-75 0 -118.5 -10.5t-62 -31t-18.5 -56.5z" />
<glyph unicode="&#xab;" horiz-adv-x="948" d="M53 625l216 421h241l-225 -417l222 -417h-238zM442 625l216 421h240l-225 -417l223 -417h-238z" />
<glyph unicode="&#xac;" d="M69 607v199h1099v-603h-221v404h-878z" />
<glyph unicode="&#xad;" horiz-adv-x="809" d="M62 412v217h686v-217h-686z" />
<glyph unicode="&#xae;" horiz-adv-x="1665" d="M58 750.5q0 160.5 60.5 304t164 246t247 162.5t303.5 60q162 0 306 -59.5t247 -161.5t162.5 -245.5t59.5 -306.5q0 -160 -60.5 -303.5t-164 -246t-247 -163t-303.5 -60.5t-303.5 60.5t-247 163t-164 246t-60.5 304zM218 750q0 -126 48.5 -242t130.5 -200t196 -134.5 t240 -50.5t240 50.5t196.5 134.5t131 200t48.5 242q0 102 -30.5 197.5t-87 173t-132 135.5t-170 89.5t-196.5 31.5q-129 0 -243.5 -49.5t-195.5 -133.5t-128.5 -199.5t-47.5 -244.5zM510 298v903h335q38 0 72.5 -5t70 -16t64 -31.5t51.5 -48.5t35 -70t12 -93q0 -48 -11 -88 t-36 -76t-69.5 -61t-105.5 -34l282 -380h-212l-276 375h-37v-375h-175zM685 808h169q59 0 88.5 35t29.5 94q0 28 -7.5 51t-22 39.5t-37.5 25.5t-53 9h-167v-254z" />
<glyph unicode="&#xaf;" horiz-adv-x="570" d="M-14 1259v192h599v-192h-599z" />
<glyph unicode="&#xb0;" horiz-adv-x="994" d="M104 1037.5q0 109.5 54 199.5t144 139.5t195.5 49.5t195.5 -49.5t143.5 -139.5t53.5 -200q0 -109 -54.5 -197.5t-144.5 -136.5t-196 -48t-195 48t-142.5 136.5t-53.5 198zM273 1037q0 -91 66.5 -156.5t155.5 -65.5t157 65.5t68 156.5q0 101 -62.5 165t-160.5 64 q-64 0 -115 -29t-80 -81t-29 -119z" />
<glyph unicode="&#xb1;" d="M104 0v199h1042v-199h-1042zM120 550v200h394v248h222v-248h393v-200h-393v-272h-222v272h-394z" />
<glyph unicode="&#xb4;" horiz-adv-x="570" d="M44 1226l223 271h261l-303 -271h-181z" />
<glyph unicode="&#xb5;" d="M174 -417v1475h261v-678q0 -36 2 -61.5t11.5 -56t25.5 -49t46 -31t72 -12.5q31 0 60.5 14t50.5 34t43.5 53t36.5 58t32 62v667h261v-833q0 -39 4.5 -77t12.5 -80.5t11 -67.5h-241l-41 139q-7 -7 -25.5 -28.5t-33 -37t-39.5 -37t-49 -35.5t-58 -24t-69 -10q-67 0 -113 26 v-410h-261z" />
<glyph unicode="&#xb6;" d="M93 1049q0 38 4 75t16.5 83t32 85.5t54 78t79 66t110.5 44t145 16.5h660v-1932h-222v1731h-232q-110 0 -181 -72.5t-71 -205.5q0 -51 21 -100t54 -85t72.5 -61.5t79.5 -35.5v-1171h-222v1032q-86 13 -155.5 47t-114 79t-75 101t-43 111.5t-12.5 113.5z" />
<glyph unicode="&#xb7;" horiz-adv-x="623" d="M185 499v258h255v-258h-255z" />
<glyph unicode="&#xb8;" horiz-adv-x="570" d="M0 -479l55 181q23 -3 64 -9t65 -8.5t45 -2.5q48 0 79.5 20t31.5 66q0 32 -11.5 48.5t-52.5 26t-121 9.5l48 183h206l-23 -93q33 0 60.5 -11t46 -28.5t31 -40t18.5 -45.5t6 -44q0 -66 -27 -119t-72 -85t-98.5 -49t-109.5 -17q-108 0 -241 18z" />
<glyph unicode="&#xba;" d="M305 1222q0 62 19 116t56.5 97t101 68t145.5 25q84 0 147.5 -24t101 -66.5t55.5 -96.5t18 -119t-18.5 -120t-56.5 -98.5t-101 -68.5t-146 -25t-146.5 24.5t-101 68t-56 98.5t-18.5 121zM475 1222q0 -193 152 -193q33 0 60 10.5t47.5 32.5t31.5 60t11 90q0 68 -18 110 t-50 58.5t-82 16.5q-73 0 -112.5 -42.5t-39.5 -142.5z" />
<glyph unicode="&#xbb;" horiz-adv-x="948" d="M53 1046h241l216 -421l-216 -413h-239l223 417zM442 1046h241l215 -421l-215 -413h-239l223 417z" />
<glyph unicode="&#xbf;" horiz-adv-x="1064" d="M118 364q0 49 16 93.5t43 77.5t61.5 65.5t70 58t70 54.5t61.5 56.5t43 62.5t16 73v185h260v-196q0 -57 -15.5 -105.5t-41 -83.5t-58 -67t-66 -55.5t-66 -49.5t-58 -49.5t-41 -54.5t-15.5 -65q0 -86 40.5 -124.5t146.5 -38.5q68 0 187 25.5t179 55.5l42 -236 q-49 -17 -124 -33t-152.5 -26t-131.5 -10q-47 0 -86.5 3t-89.5 12.5t-89 26t-78.5 46t-65.5 69t-42 98.5t-16 132zM490 1243v254h278v-254h-278z" />
<glyph unicode="&#xc0;" horiz-adv-x="1575" d="M67 0l609 1497h269l564 -1497h-321l-135 400h-534l-142 -400h-310zM556 1872h261l223 -271h-181zM599 620h380l-182 553z" />
<glyph unicode="&#xc1;" horiz-adv-x="1575" d="M67 0l609 1497h269l564 -1497h-321l-135 400h-534l-142 -400h-310zM572 1601l225 271h258l-302 -271h-181zM599 620h380l-182 553z" />
<glyph unicode="&#xc2;" horiz-adv-x="1575" d="M67 0l609 1497h269l564 -1497h-321l-135 400h-534l-142 -400h-310zM486 1606l229 271h181l222 -271h-190l-122 148l-130 -148h-190zM599 620h380l-182 553z" />
<glyph unicode="&#xc3;" horiz-adv-x="1575" d="M67 0l609 1497h269l564 -1497h-321l-135 400h-534l-142 -400h-310zM440 1641q42 98 100 136t158 38q34 0 68 -16.5t57 -36t51 -36t51 -16.5q44 0 76.5 34t42.5 71l139 -66q-18 -56 -56.5 -99t-89.5 -65.5t-107 -22.5q-34 0 -64 10.5t-51.5 26t-40.5 31t-39 26.5t-39 11 q-45 0 -74.5 -25.5t-42.5 -65.5zM599 620h380l-182 553z" />
<glyph unicode="&#xc4;" horiz-adv-x="1575" d="M67 0l609 1497h269l564 -1497h-321l-135 400h-534l-142 -400h-310zM499 1564v216h237v-216h-237zM599 620h380l-182 553zM868 1564v216h236v-216h-236z" />
<glyph unicode="&#xc5;" horiz-adv-x="1575" d="M67 0l609 1497h269l564 -1497h-321l-135 400h-534l-142 -400h-310zM599 620h380l-182 553zM629 1742q0 80 56.5 135t136.5 55q53 0 97 -24.5t69.5 -68t25.5 -97.5q0 -79 -56.5 -134t-135.5 -55t-136 56t-57 133zM724 1745q0 -36 28 -66.5t70 -30.5q30 0 52 13.5t32 35 t10 48.5q0 41 -25.5 69t-68.5 28q-28 0 -51 -14.5t-35 -36.5t-12 -46z" />
<glyph unicode="&#xc6;" horiz-adv-x="2285" d="M67 0l849 1497h1132v-225h-773l63 -386h661v-224h-622l76 -437h616v-225h-866l-59 400h-528l-216 -400h-333zM733 620h378l-82 555z" />
<glyph unicode="&#xc7;" horiz-adv-x="1330" d="M137 748q0 92 10.5 175t35 162.5t61.5 145.5t93 122t127 95t165 60.5t206 21.5q96 0 203 -17.5t194 -45.5l-91 -245q-64 27 -101 41t-95 28t-110 14q-108 0 -185.5 -37t-123.5 -110.5t-67.5 -173.5t-21.5 -234q0 -142 20.5 -245.5t65 -178t119 -111t180.5 -36.5 q30 0 61 4t53.5 9t56.5 16.5t50.5 18t57.5 23.5t56 23l91 -245q-103 -36 -198.5 -54.5t-212.5 -19.5l-2 -12q40 0 73.5 -16.5t54 -42.5t31.5 -54.5t11 -55.5q0 -66 -28.5 -119t-75 -85t-101 -49t-111.5 -17q-107 0 -240 18l55 183q22 -3 51.5 -7t47 -6.5t38.5 -4t37 -1.5 q111 0 111 83q0 32 -11.5 48.5t-52 26t-120.5 9.5l31 120q-499 103 -499 776z" />
<glyph unicode="&#xc8;" horiz-adv-x="1343" d="M218 0v1497h888v-225h-596v-386h548v-224h-548v-437h617v-225h-909zM393 1872h262l222 -271h-181z" />
<glyph unicode="&#xc9;" horiz-adv-x="1343" d="M218 0v1497h888v-225h-596v-386h548v-224h-548v-437h617v-225h-909zM375 1566l222 271h262l-303 -271h-181z" />
<glyph unicode="&#xca;" horiz-adv-x="1343" d="M218 0v1497h888v-225h-596v-386h548v-224h-548v-437h617v-225h-909zM342 1601l230 271h181l221 -271h-190l-122 148l-130 -148h-190z" />
<glyph unicode="&#xcb;" horiz-adv-x="1343" d="M218 0v1497h888v-225h-596v-386h548v-224h-548v-437h617v-225h-909zM384 1564v216h236v-216h-236zM753 1564v216h235v-216h-235z" />
<glyph unicode="&#xcc;" horiz-adv-x="670" d="M35 1872h261l223 -271h-181zM190 0v1497h291v-1497h-291z" />
<glyph unicode="&#xcd;" horiz-adv-x="670" d="M106 1601l223 271h261l-303 -271h-181zM190 0v1497h291v-1497h-291z" />
<glyph unicode="&#xce;" horiz-adv-x="670" d="M20 1592l230 271h181l222 -271h-190l-123 148l-130 -148h-190zM190 0v1497h291v-1497h-291z" />
<glyph unicode="&#xcf;" horiz-adv-x="670" d="M40 1657v215h236v-215h-236zM190 0v1497h291v-1497h-291zM407 1657v215h236v-215h-236z" />
<glyph unicode="&#xd0;" horiz-adv-x="1557" d="M67 738v201h151v558h488q185 0 316.5 -39t222 -127t133 -230t42.5 -346q0 -207 -41.5 -350.5t-131 -233.5t-221.5 -130.5t-320 -40.5h-488v738h-151zM510 225h217q74 0 130 12.5t107.5 47.5t84 93t52 152t19.5 223q0 77 -7 141.5t-19 114t-31 88.5t-40 66.5t-50 47.5 t-57 31.5t-65 18.5t-70 9t-75 2h-196v-333h232v-201h-232v-513z" />
<glyph unicode="&#xd1;" horiz-adv-x="1681" d="M218 0v1497h432l527 -1152v1152h287v-1497h-437l-532 1153v-1153h-277zM470 1638q42 99 100.5 137t158.5 38q33 0 67 -16.5t57 -36.5t51.5 -36.5t51.5 -16.5q43 0 75 34t43 72l138 -66q-18 -57 -56 -99.5t-88.5 -65.5t-107.5 -23q-34 0 -64 11t-51 26.5t-40 31t-39 26 t-39 10.5q-46 0 -75.5 -25t-42.5 -65z" />
<glyph unicode="&#xd2;" horiz-adv-x="1676" d="M137 742q0 136 23 251t76 215.5t133.5 170t201.5 109.5t274 40q696 0 696 -786q0 -137 -22 -252.5t-74 -215.5t-131.5 -169.5t-199 -109t-272.5 -39.5q-114 0 -209 20t-167 57t-128 91.5t-93.5 120t-62 146t-35 167t-10.5 184.5zM437 742q0 -154 24 -261t74.5 -174 t125.5 -96.5t181 -29.5q211 0 305 138t94 423q0 296 -96.5 428.5t-302.5 132.5q-209 0 -307 -134t-98 -427zM504 1872h262l222 -271h-180z" />
<glyph unicode="&#xd3;" horiz-adv-x="1676" d="M137 742q0 136 23 251t76 215.5t133.5 170t201.5 109.5t274 40q696 0 696 -786q0 -137 -22 -252.5t-74 -215.5t-131.5 -169.5t-199 -109t-272.5 -39.5q-114 0 -209 20t-167 57t-128 91.5t-93.5 120t-62 146t-35 167t-10.5 184.5zM437 742q0 -154 24 -261t74.5 -174 t125.5 -96.5t181 -29.5q211 0 305 138t94 423q0 296 -96.5 428.5t-302.5 132.5q-209 0 -307 -134t-98 -427zM614 1601l221 271h262l-304 -271h-179z" />
<glyph unicode="&#xd4;" horiz-adv-x="1676" d="M137 742q0 136 23 251t76 215.5t133.5 170t201.5 109.5t274 40q696 0 696 -786q0 -137 -22 -252.5t-74 -215.5t-131.5 -169.5t-199 -109t-272.5 -39.5q-114 0 -209 20t-167 57t-128 91.5t-93.5 120t-62 146t-35 167t-10.5 184.5zM437 742q0 -154 24 -261t74.5 -174 t125.5 -96.5t181 -29.5q211 0 305 138t94 423q0 296 -96.5 428.5t-302.5 132.5q-209 0 -307 -134t-98 -427zM519 1601l229 271h180l222 -271h-190l-123 148l-128 -148h-190z" />
<glyph unicode="&#xd5;" horiz-adv-x="1676" d="M137 742q0 136 23 251t76 215.5t133.5 170t201.5 109.5t274 40q696 0 696 -786q0 -137 -22 -252.5t-74 -215.5t-131.5 -169.5t-199 -109t-272.5 -39.5q-114 0 -209 20t-167 57t-128 91.5t-93.5 120t-62 146t-35 167t-10.5 184.5zM437 742q0 -154 24 -261t74.5 -174 t125.5 -96.5t181 -29.5q211 0 305 138t94 423q0 296 -96.5 428.5t-302.5 132.5q-209 0 -307 -134t-98 -427zM484 1641q42 98 100 136t158 38q34 0 68 -16.5t57 -36t51 -36t52 -16.5q43 0 75.5 34t42.5 71l138 -66q-28 -85 -97 -136t-155 -51q-34 0 -64 10.5t-51.5 26 t-40.5 31t-39 26.5t-39 11q-45 0 -74.5 -25.5t-42.5 -65.5z" />
<glyph unicode="&#xd6;" horiz-adv-x="1676" d="M137 742q0 136 23 251t76 215.5t133.5 170t201.5 109.5t274 40q696 0 696 -786q0 -137 -22 -252.5t-74 -215.5t-131.5 -169.5t-199 -109t-272.5 -39.5q-114 0 -209 20t-167 57t-128 91.5t-93.5 120t-62 146t-35 167t-10.5 184.5zM437 742q0 -154 24 -261t74.5 -174 t125.5 -96.5t181 -29.5q211 0 305 138t94 423q0 296 -96.5 428.5t-302.5 132.5q-209 0 -307 -134t-98 -427zM541 1564v216h236v-216h-236zM910 1564v216h236v-216h-236z" />
<glyph unicode="&#xd8;" horiz-adv-x="1676" d="M37 -2l208 245q-108 184 -108 499q0 136 23 251t76 215.5t133.5 170t201.5 109.5t274 40q247 0 412 -102l171 201l190 -174l-183 -215q106 -182 106 -496q0 -137 -22 -252.5t-74 -215.5t-131.5 -169.5t-199 -109t-272.5 -39.5q-252 0 -416 102l-199 -234zM437 742 q0 -140 22 -249l629 735q-91 75 -246 75q-209 0 -307 -134t-98 -427zM590 250q88 -69 252 -69q211 0 305 138t94 423q0 134 -22 243z" />
<glyph unicode="&#xd9;" horiz-adv-x="1672" d="M218 553v944h292v-921q0 -70 9 -127t25.5 -98t41 -71.5t52.5 -49t64 -30t71.5 -15.5t78.5 -4q71 0 126.5 20.5t98 65.5t65 123t22.5 186v921h291v-949q0 -197 -70.5 -330t-204.5 -197.5t-328 -64.5q-321 0 -477.5 148t-156.5 449zM504 1872h262l222 -271h-180z" />
<glyph unicode="&#xda;" horiz-adv-x="1672" d="M218 553v944h292v-921q0 -70 9 -127t25.5 -98t41 -71.5t52.5 -49t64 -30t71.5 -15.5t78.5 -4q71 0 126.5 20.5t98 65.5t65 123t22.5 186v921h291v-949q0 -197 -70.5 -330t-204.5 -197.5t-328 -64.5q-321 0 -477.5 148t-156.5 449zM653 1566l222 271h262l-304 -271h-180z " />
<glyph unicode="&#xdb;" horiz-adv-x="1672" d="M218 553v944h292v-921q0 -70 9 -127t25.5 -98t41 -71.5t52.5 -49t64 -30t71.5 -15.5t78.5 -4q71 0 126.5 20.5t98 65.5t65 123t22.5 186v921h291v-949q0 -197 -70.5 -330t-204.5 -197.5t-328 -64.5q-321 0 -477.5 148t-156.5 449zM523 1601l230 271h179l223 -271h-190 l-123 148l-129 -148h-190z" />
<glyph unicode="&#xdc;" horiz-adv-x="1672" d="M218 553v944h292v-921q0 -70 9 -127t25.5 -98t41 -71.5t52.5 -49t64 -30t71.5 -15.5t78.5 -4q71 0 126.5 20.5t98 65.5t65 123t22.5 186v921h291v-949q0 -197 -70.5 -330t-204.5 -197.5t-328 -64.5q-321 0 -477.5 148t-156.5 449zM548 1564v216h236v-216h-236zM916 1564 v216h237v-216h-237z" />
<glyph unicode="&#xdd;" horiz-adv-x="1431" d="M33 1497h331l363 -574l359 574h314l-539 -824v-673h-291v664zM400 1601l223 271h261l-303 -271h-181z" />
<glyph unicode="&#xde;" horiz-adv-x="1387" d="M218 0v1497h292v-280h232q95 0 173 -13.5t145.5 -46t113.5 -83t72 -128t26 -178.5q0 -463 -504 -463h-258v-305h-292zM510 530h240q226 0 226 238q0 60 -14 102.5t-35 66t-55 36.5t-63.5 16.5t-70.5 3.5h-228v-463z" />
<glyph unicode="&#xdf;" horiz-adv-x="1241" d="M153 0v1090q0 215 108.5 323t305.5 108q64 0 120.5 -9t115.5 -33.5t101 -64t69 -105.5t27 -152q0 -53 -12 -100.5t-34 -82.5t-46.5 -63t-55 -50t-53.5 -36.5t-48 -28t-33 -19.5q13 -5 41 -15t50 -18t53.5 -22.5t57 -28.5t55 -36t52 -46.5t44.5 -58t36.5 -71.5t23 -87 t8.5 -105q0 -80 -20.5 -149t-57 -120.5t-87.5 -93t-109.5 -69t-126 -46t-134.5 -26.5t-136 -8l90 223q76 0 136.5 24.5t98 65.5t57.5 93.5t20 110.5q0 43 -7.5 80.5t-18 66t-30 54t-36.5 43t-44.5 34t-46.5 26t-50 20.5t-47.5 15.5t-46.5 12.5q-23 6 -33 9v206q4 3 14 9 q22 15 35.5 23.5t38 27.5t40 34.5t35 40t31 48.5t19.5 55.5t8 64.5q0 49 -23.5 85t-60 53t-80.5 17q-32 0 -57.5 -9t-48 -30.5t-34.5 -63t-12 -101.5v-1115h-262z" />
<glyph unicode="&#xe0;" horiz-adv-x="1207" d="M99 278q0 67 17 122.5t58.5 105.5t106.5 84.5t166 54t233 19.5h88v51q0 28 -2.5 49.5t-11.5 45.5t-24.5 39.5t-44 26t-67.5 10.5q-192 0 -386 -93l-91 216q105 38 235 58.5t256 20.5q89 0 161 -20.5t126 -61t83.5 -106t29.5 -150.5v-426q0 -36 7 -89.5t18 -122t17 -112.5 h-248l-40 106q-142 -137 -274 -137q-202 0 -307.5 79t-105.5 230zM257 1497h262l221 -271h-180zM373 289q0 -16 4 -30.5t11.5 -25.5t18 -20.5t24 -16t28 -11.5t31.5 -8t34.5 -4t35.5 -1q69 0 122.5 30.5t88.5 77.5v208h-58q-181 0 -260.5 -49.5t-79.5 -149.5z" />
<glyph unicode="&#xe1;" horiz-adv-x="1207" d="M99 278q0 67 17 122.5t58.5 105.5t106.5 84.5t166 54t233 19.5h88v51q0 28 -2.5 49.5t-11.5 45.5t-24.5 39.5t-44 26t-67.5 10.5q-192 0 -386 -93l-91 216q105 38 235 58.5t256 20.5q89 0 161 -20.5t126 -61t83.5 -106t29.5 -150.5v-426q0 -36 7 -89.5t18 -122t17 -112.5 h-248l-40 106q-142 -137 -274 -137q-202 0 -307.5 79t-105.5 230zM358 1226l223 271h261l-303 -271h-181zM373 289q0 -16 4 -30.5t11.5 -25.5t18 -20.5t24 -16t28 -11.5t31.5 -8t34.5 -4t35.5 -1q69 0 122.5 30.5t88.5 77.5v208h-58q-181 0 -260.5 -49.5t-79.5 -149.5z" />
<glyph unicode="&#xe2;" horiz-adv-x="1207" d="M99 278q0 67 17 122.5t58.5 105.5t106.5 84.5t166 54t233 19.5h88v51q0 28 -2.5 49.5t-11.5 45.5t-24.5 39.5t-44 26t-67.5 10.5q-192 0 -386 -93l-91 216q105 38 235 58.5t256 20.5q89 0 161 -20.5t126 -61t83.5 -106t29.5 -150.5v-426q0 -36 7 -89.5t18 -122t17 -112.5 h-248l-40 106q-142 -137 -274 -137q-202 0 -307.5 79t-105.5 230zM245 1226l230 271h180l222 -271h-190l-122 149l-130 -149h-190zM373 289q0 -16 4 -30.5t11.5 -25.5t18 -20.5t24 -16t28 -11.5t31.5 -8t34.5 -4t35.5 -1q69 0 122.5 30.5t88.5 77.5v208h-58 q-181 0 -260.5 -49.5t-79.5 -149.5z" />
<glyph unicode="&#xe3;" horiz-adv-x="1207" d="M99 278q0 67 17 122.5t58.5 105.5t106.5 84.5t166 54t233 19.5h88v51q0 28 -2.5 49.5t-11.5 45.5t-24.5 39.5t-44 26t-67.5 10.5q-192 0 -386 -93l-91 216q105 38 235 58.5t256 20.5q89 0 161 -20.5t126 -61t83.5 -106t29.5 -150.5v-426q0 -36 7 -89.5t18 -122t17 -112.5 h-248l-40 106q-142 -137 -274 -137q-202 0 -307.5 79t-105.5 230zM197 1266q42 98 100 136t158 38q34 0 68 -16.5t57 -36t51 -35.5t52 -16q15 0 30 5t26.5 12.5t25 19.5t22 21.5t20.5 24t19 21.5l113 -65q-28 -85 -97 -136t-155 -51q-34 0 -64 10.5t-51.5 26t-40.5 30.5 t-39 26t-39 11q-45 0 -74.5 -25.5t-42.5 -65.5zM373 289q0 -16 4 -30.5t11.5 -25.5t18 -20.5t24 -16t28 -11.5t31.5 -8t34.5 -4t35.5 -1q69 0 122.5 30.5t88.5 77.5v208h-58q-181 0 -260.5 -49.5t-79.5 -149.5z" />
<glyph unicode="&#xe4;" horiz-adv-x="1207" d="M99 278q0 67 17 122.5t58.5 105.5t106.5 84.5t166 54t233 19.5h88v51q0 28 -2.5 49.5t-11.5 45.5t-24.5 39.5t-44 26t-67.5 10.5q-192 0 -386 -93l-91 216q105 38 235 58.5t256 20.5q89 0 161 -20.5t126 -61t83.5 -106t29.5 -150.5v-426q0 -36 7 -89.5t18 -122t17 -112.5 h-248l-40 106q-142 -137 -274 -137q-202 0 -307.5 79t-105.5 230zM287 1222v229h238v-229h-238zM373 289q0 -16 4 -30.5t11.5 -25.5t18 -20.5t24 -16t28 -11.5t31.5 -8t34.5 -4t35.5 -1q69 0 122.5 30.5t88.5 77.5v208h-58q-181 0 -260.5 -49.5t-79.5 -149.5zM660 1222v229 h238v-229h-238z" />
<glyph unicode="&#xe5;" horiz-adv-x="1207" d="M99 278q0 67 17 122.5t58.5 105.5t106.5 84.5t166 54t233 19.5h88v51q0 28 -2.5 49.5t-11.5 45.5t-24.5 39.5t-44 26t-67.5 10.5q-192 0 -386 -93l-91 216q105 38 235 58.5t256 20.5q89 0 161 -20.5t126 -61t83.5 -106t29.5 -150.5v-426q0 -36 7 -89.5t18 -122t17 -112.5 h-248l-40 106q-142 -137 -274 -137q-202 0 -307.5 79t-105.5 230zM373 289q0 -16 4 -30.5t11.5 -25.5t18 -20.5t24 -16t28 -11.5t31.5 -8t34.5 -4t35.5 -1q69 0 122.5 30.5t88.5 77.5v208h-58q-181 0 -260.5 -49.5t-79.5 -149.5zM384 1363q0 79 56 134.5t136 55.5 q54 0 98 -25t69 -68.5t25 -96.5q0 -80 -56 -135t-136 -55q-78 0 -135 56t-57 134zM479 1365q0 -35 28 -66t69 -31q31 0 53 14t32 35.5t10 47.5q0 41 -25.5 69t-69.5 28q-41 0 -69 -29.5t-28 -67.5z" />
<glyph unicode="&#xe6;" horiz-adv-x="1862" d="M99 278q0 67 17 122.5t58.5 105.5t106.5 84.5t166 54t233 19.5h88v51q0 28 -2.5 49.5t-11.5 45.5t-24.5 39.5t-44 26t-67.5 10.5q-192 0 -386 -93l-91 216q105 38 235 58.5t256 20.5q96 0 176.5 -32.5t133.5 -88.5q134 121 312 121q116 0 202 -27.5t144 -79.5t93 -134.5 t50 -185.5t15 -240h-726q15 -126 80 -191.5t175 -65.5q142 0 323 90l86 -201q-185 -84 -428 -84q-140 0 -245 56t-142 137q-167 -193 -369 -193t-307.5 79t-105.5 230zM373 289q0 -16 4 -30.5t11.5 -25.5t18 -20.5t24 -16t28 -11.5t31.5 -8t34.5 -4t35.5 -1q116 0 211 131 v172h-58q-184 0 -262 -44t-78 -142zM1032 616h465q-8 144 -70 207t-170 63q-29 0 -56.5 -6.5t-57.5 -25.5t-53 -48t-39.5 -78t-18.5 -112z" />
<glyph unicode="&#xe7;" horiz-adv-x="1062" d="M99 521q0 74 10.5 139.5t32 122.5t53.5 104.5t75.5 85t97 63t119.5 39t142 13.5q45 0 113.5 -12.5t130 -29.5t101.5 -32l-90 -215q-52 26 -86.5 41.5t-84 30.5t-86.5 15q-67 0 -114.5 -19t-80.5 -62t-48.5 -113t-15.5 -171q0 -180 67 -264.5t190 -84.5q99 0 269 87 l89 -215q-47 -23 -139 -44t-168 -28l-9 -34q40 0 72.5 -16t51 -41t28 -53t9.5 -55q0 -66 -27 -119t-71 -85t-97.5 -49t-109.5 -17q-107 0 -241 18l56 174q22 -3 63.5 -8.5t65.5 -8t45 -2.5q47 0 82 23t35 69q0 31 -13.5 48t-55.5 26.5t-123 9.5l35 134q-182 43 -277.5 184 t-95.5 351z" />
<glyph unicode="&#xe8;" horiz-adv-x="1205" d="M99 519q0 55 7.5 109t24.5 111t42.5 107t66 95t91 77.5t120 51t150.5 18.5q92 0 165 -18t128.5 -55t95 -91t64.5 -128.5t36.5 -164.5t11.5 -203h-727q8 -63 28 -112.5t52 -83t76 -51t98 -17.5q151 0 331 90l86 -201q-92 -42 -206 -63t-229 -21q-100 0 -184 29t-144 80 t-101.5 120.5t-62 150.5t-20.5 170zM285 1497h261l222 -271h-180zM375 616h475q-15 270 -251 270q-28 0 -55.5 -6.5t-57.5 -25.5t-53 -48t-39 -78t-19 -112z" />
<glyph unicode="&#xe9;" horiz-adv-x="1205" d="M99 519q0 55 7.5 109t24.5 111t42.5 107t66 95t91 77.5t120 51t150.5 18.5q92 0 165 -18t128.5 -55t95 -91t64.5 -128.5t36.5 -164.5t11.5 -203h-727q8 -63 28 -112.5t52 -83t76 -51t98 -17.5q151 0 331 90l86 -201q-92 -42 -206 -63t-229 -21q-100 0 -184 29t-144 80 t-101.5 120.5t-62 150.5t-20.5 170zM375 616h475q-15 270 -251 270q-28 0 -55.5 -6.5t-57.5 -25.5t-53 -48t-39 -78t-19 -112zM428 1226l222 271h262l-303 -271h-181z" />
<glyph unicode="&#xea;" horiz-adv-x="1205" d="M99 519q0 55 7.5 109t24.5 111t42.5 107t66 95t91 77.5t120 51t150.5 18.5q92 0 165 -18t128.5 -55t95 -91t64.5 -128.5t36.5 -164.5t11.5 -203h-727q8 -63 28 -112.5t52 -83t76 -51t98 -17.5q151 0 331 90l86 -201q-92 -42 -206 -63t-229 -21q-100 0 -184 29t-144 80 t-101.5 120.5t-62 150.5t-20.5 170zM305 1226l229 271h181l222 -271h-189l-123 149l-130 -149h-190zM375 616h475q-15 270 -251 270q-28 0 -55.5 -6.5t-57.5 -25.5t-53 -48t-39 -78t-19 -112z" />
<glyph unicode="&#xeb;" horiz-adv-x="1205" d="M99 519q0 55 7.5 109t24.5 111t42.5 107t66 95t91 77.5t120 51t150.5 18.5q92 0 165 -18t128.5 -55t95 -91t64.5 -128.5t36.5 -164.5t11.5 -203h-727q8 -63 28 -112.5t52 -83t76 -51t98 -17.5q151 0 331 90l86 -201q-92 -42 -206 -63t-229 -21q-100 0 -184 29t-144 80 t-101.5 120.5t-62 150.5t-20.5 170zM322 1236v215h236v-215h-236zM375 616h475q-15 270 -251 270q-28 0 -55.5 -6.5t-57.5 -25.5t-53 -48t-39 -78t-19 -112zM689 1236v215h236v-215h-236z" />
<glyph unicode="&#xec;" horiz-adv-x="570" d="M11 1497h262l222 -271h-180zM155 0v1058h262v-1058h-262z" />
<glyph unicode="&#xed;" horiz-adv-x="570" d="M42 1226l221 271h262l-302 -271h-181zM155 0v1058h262v-1058h-262z" />
<glyph unicode="&#xee;" horiz-adv-x="570" d="M-11 1226l229 271h180l222 -271h-189l-124 149l-128 -149h-190zM155 0v1058h262v-1058h-262z" />
<glyph unicode="&#xef;" horiz-adv-x="570" d="M-16 1289v215h236v-215h-236zM155 0v1058h262v-1058h-262zM351 1289v215h237v-215h-237z" />
<glyph unicode="&#xf0;" d="M106 426q0 123 29.5 217.5t88 160t149 99.5t210.5 34q29 0 66.5 -9.5t80 -28t81.5 -53.5t61 -80q0 165 -61 280t-177 173l-181 -120l-182 107l131 90q-35 7 -117 7h-58l-86 238q289 -3 500 -81l143 102l179 -107l-135 -92q318 -209 318 -708q0 -78 -6.5 -146.5 t-22.5 -140.5t-42 -130.5t-68 -111t-97 -88.5t-131.5 -57t-169.5 -21q-100 0 -191 34t-160.5 93.5t-110.5 148t-41 190.5zM398 426q0 -63 17 -111.5t46 -77.5t66 -43.5t80 -14.5q46 0 81 8.5t67 32t52.5 64t32.5 106.5t12 156q-14 35 -32 63t-46.5 54.5t-71.5 41.5t-97 15 q-42 0 -75 -10.5t-54.5 -26t-37 -41t-23 -47.5t-12 -54t-5 -52t-0.5 -49v-14z" />
<glyph unicode="&#xf1;" horiz-adv-x="1084" d="M125 1058h241l41 -139q5 5 21 23.5t28.5 31t33 32t41 32.5t45.5 26t54 19.5t59 6.5q91 0 158.5 -21t110 -57t68.5 -91.5t35.5 -116t9.5 -137.5v-667h-261v678q0 26 -1 44.5t-4.5 42t-10.5 40t-19 33.5t-29 27t-42.5 16.5t-58.5 6.5q-133 0 -230 -199v-689h-262v833 q0 39 -4.5 76.5t-12.5 80.5t-11 68zM229 1266q43 98 101 136t158 38q34 0 67.5 -16.5t56.5 -36t51.5 -35.5t51.5 -16q41 0 69 29t28 61q0 2 -1 6.5t-1 7.5l162 -65q-28 -85 -97.5 -136t-154.5 -51q-34 0 -64.5 10.5t-51.5 26t-40 30.5t-39 26t-39 11q-45 0 -75 -25.5 t-43 -65.5z" />
<glyph unicode="&#xf2;" horiz-adv-x="1241" d="M99 534q0 91 18 171t58 151.5t99.5 123t148.5 81t200 29.5q80 0 149 -14.5t122 -41.5t95 -66t70.5 -86t47.5 -103t28 -116.5t9 -128.5q0 -93 -17.5 -175t-57 -155t-99 -124.5t-148.5 -82t-199 -30.5q-112 0 -201 30t-148.5 82t-99.5 124.5t-57.5 154.5t-17.5 176z M336 1497h261l222 -271h-181zM368 534q0 -181 62 -272.5t193 -91.5q124 0 188 88t64 276q0 130 -27 207.5t-81.5 112t-143.5 34.5q-129 0 -192 -82.5t-63 -271.5z" />
<glyph unicode="&#xf3;" horiz-adv-x="1241" d="M99 534q0 91 18 171t58 151.5t99.5 123t148.5 81t200 29.5q80 0 149 -14.5t122 -41.5t95 -66t70.5 -86t47.5 -103t28 -116.5t9 -128.5q0 -93 -17.5 -175t-57 -155t-99 -124.5t-148.5 -82t-199 -30.5q-112 0 -201 30t-148.5 82t-99.5 124.5t-57.5 154.5t-17.5 176z M368 534q0 -181 62 -272.5t193 -91.5q124 0 188 88t64 276q0 130 -27 207.5t-81.5 112t-143.5 34.5q-129 0 -192 -82.5t-63 -271.5zM419 1226l222 271h262l-304 -271h-180z" />
<glyph unicode="&#xf4;" horiz-adv-x="1241" d="M99 534q0 91 18 171t58 151.5t99.5 123t148.5 81t200 29.5q80 0 149 -14.5t122 -41.5t95 -66t70.5 -86t47.5 -103t28 -116.5t9 -128.5q0 -93 -17.5 -175t-57 -155t-99 -124.5t-148.5 -82t-199 -30.5q-112 0 -201 30t-148.5 82t-99.5 124.5t-57.5 154.5t-17.5 176z M307 1226l230 271h181l221 -271h-189l-123 149l-130 -149h-190zM368 534q0 -181 62 -272.5t193 -91.5q124 0 188 88t64 276q0 130 -27 207.5t-81.5 112t-143.5 34.5q-129 0 -192 -82.5t-63 -271.5z" />
<glyph unicode="&#xf5;" horiz-adv-x="1241" d="M99 534q0 91 18 171t58 151.5t99.5 123t148.5 81t200 29.5q80 0 149 -14.5t122 -41.5t95 -66t70.5 -86t47.5 -103t28 -116.5t9 -128.5q0 -93 -17.5 -175t-57 -155t-99 -124.5t-148.5 -82t-199 -30.5q-112 0 -201 30t-148.5 82t-99.5 124.5t-57.5 154.5t-17.5 176z M234 1266q42 98 100.5 136t158.5 38q33 0 67 -16.5t57 -36t51 -35.5t52 -16q43 0 75 33.5t42 70.5l139 -65q-27 -85 -96.5 -136t-155.5 -51q-34 0 -64 10.5t-51.5 26t-40 30.5t-38.5 26t-40 11q-45 0 -74.5 -25.5t-42.5 -65.5zM368 534q0 -181 62 -272.5t193 -91.5 q124 0 188 88t64 276q0 130 -27 207.5t-81.5 112t-143.5 34.5q-129 0 -192 -82.5t-63 -271.5z" />
<glyph unicode="&#xf6;" horiz-adv-x="1241" d="M99 534q0 91 18 171t58 151.5t99.5 123t148.5 81t200 29.5q80 0 149 -14.5t122 -41.5t95 -66t70.5 -86t47.5 -103t28 -116.5t9 -128.5q0 -93 -17.5 -175t-57 -155t-99 -124.5t-148.5 -82t-199 -30.5q-112 0 -201 30t-148.5 82t-99.5 124.5t-57.5 154.5t-17.5 176z M327 1236v215h236v-215h-236zM368 534q0 -181 62 -272.5t193 -91.5q124 0 188 88t64 276q0 130 -27 207.5t-81.5 112t-143.5 34.5q-129 0 -192 -82.5t-63 -271.5zM694 1236v215h236v-215h-236z" />
<glyph unicode="&#xf7;" d="M104 421v176h1042v-176h-1042zM486 18v255h278v-255h-278zM486 745v255h278v-255h-278z" />
<glyph unicode="&#xf8;" horiz-adv-x="1241" d="M37 79l127 141q-65 126 -65 314q0 91 18 171t58 151.5t99.5 123t148.5 81t200 29.5q163 0 282 -63l115 126l174 -170l-118 -129q68 -132 68 -320q0 -93 -17.5 -175t-57 -155t-99 -124.5t-148.5 -82t-199 -30.5q-174 0 -294 73l-119 -130zM368 534q0 -33 5 -90l382 417 q-53 27 -132 27q-129 0 -192 -82.5t-63 -271.5zM484 208q55 -38 139 -38q124 0 188 88t64 276q0 34 -5 95z" />
<glyph unicode="&#xf9;" horiz-adv-x="1207" d="M153 391v667h262v-678q0 -36 2 -61.5t11 -56t25.5 -49t46.5 -31t72 -12.5q39 0 73 16t61 46.5t47 62t40 73.5v690h262v-833q0 -39 4.5 -76.5t12.5 -80.5t11 -68h-241l-41 139q-6 -7 -24.5 -28.5t-33 -37t-40 -37t-49.5 -35.5t-57.5 -24t-68.5 -10q-86 0 -151.5 21 t-107.5 58t-68.5 91.5t-37 116t-10.5 137.5zM298 1497h262l222 -271h-181z" />
<glyph unicode="&#xfa;" horiz-adv-x="1207" d="M153 391v667h262v-678q0 -36 2 -61.5t11 -56t25.5 -49t46.5 -31t72 -12.5q39 0 73 16t61 46.5t47 62t40 73.5v690h262v-833q0 -39 4.5 -76.5t12.5 -80.5t11 -68h-241l-41 139q-6 -7 -24.5 -28.5t-33 -37t-40 -37t-49.5 -35.5t-57.5 -24t-68.5 -10q-86 0 -151.5 21 t-107.5 58t-68.5 91.5t-37 116t-10.5 137.5zM396 1226l222 271h261l-303 -271h-180z" />
<glyph unicode="&#xfb;" horiz-adv-x="1207" d="M153 391v667h262v-678q0 -36 2 -61.5t11 -56t25.5 -49t46.5 -31t72 -12.5q39 0 73 16t61 46.5t47 62t40 73.5v690h262v-833q0 -39 4.5 -76.5t12.5 -80.5t11 -68h-241l-41 139q-6 -7 -24.5 -28.5t-33 -37t-40 -37t-49.5 -35.5t-57.5 -24t-68.5 -10q-86 0 -151.5 21 t-107.5 58t-68.5 91.5t-37 116t-10.5 137.5zM280 1226l230 271h179l223 -271h-190l-123 149l-129 -149h-190z" />
<glyph unicode="&#xfc;" horiz-adv-x="1207" d="M153 391v667h262v-678q0 -36 2 -61.5t11 -56t25.5 -49t46.5 -31t72 -12.5q39 0 73 16t61 46.5t47 62t40 73.5v690h262v-833q0 -39 4.5 -76.5t12.5 -80.5t11 -68h-241l-41 139q-6 -7 -24.5 -28.5t-33 -37t-40 -37t-49.5 -35.5t-57.5 -24t-68.5 -10q-86 0 -151.5 21 t-107.5 58t-68.5 91.5t-37 116t-10.5 137.5zM301 1236v215h236v-215h-236zM669 1236v215h236v-215h-236z" />
<glyph unicode="&#xfd;" horiz-adv-x="1226" d="M84 1058h280l270 -720l236 720h274l-442 -1228q-52 -144 -146 -242.5t-258 -154.5l-88 216q91 24 138.5 62t66.5 88l92 245zM371 1226l221 271h262l-304 -271h-179z" />
<glyph unicode="&#xfe;" horiz-adv-x="1228" d="M125 -466q11 84 19.5 369t8.5 421v1197h262v-602q121 169 277 169q77 0 142 -20.5t112.5 -58t83 -88t57 -113t32 -130.5t10.5 -144q0 -91 -18.5 -174.5t-57 -155t-94 -123.5t-133.5 -82t-171 -30q-46 0 -88.5 13.5t-73 35.5t-51.5 44t-35 44l-41 -572h-241zM409 320 q69 -148 205 -148q247 0 247 358q0 84 -11.5 147t-31 102.5t-48 63.5t-59.5 33.5t-68 9.5q-24 0 -46 -6.5t-40 -16.5t-36 -26t-32 -32t-29.5 -39t-26 -41l-24.5 -42v-363z" />
<glyph unicode="&#xff;" horiz-adv-x="1226" d="M84 1058h280l270 -720l236 720h274l-442 -1228q-52 -144 -146 -242.5t-258 -154.5l-88 216q91 24 138.5 62t66.5 88l92 245zM338 1236v215h236v-215h-236zM706 1236v215h236v-215h-236z" />
<glyph unicode="&#x131;" horiz-adv-x="570" d="M155 0v1058h262v-1058h-262z" />
<glyph unicode="&#x152;" horiz-adv-x="2348" d="M137 742q0 136 23 251t76 215.5t133.5 170t201.5 109.5t274 40q140 0 243 -31h1023v-225h-711q96 -154 113 -386h549v-224h-547q-10 -268 -113 -437h729v-225h-1004q-124 -44 -285 -44q-114 0 -209 20t-167 57t-128 91.5t-93.5 120t-62 146t-35 167t-10.5 184.5zM437 742 q0 -154 24 -261t74.5 -174t125.5 -96.5t181 -29.5q107 0 179.5 34.5t115.5 107t61.5 174t18.5 245.5q0 301 -85.5 431t-289.5 130q-209 0 -307 -134t-98 -427z" />
<glyph unicode="&#x153;" horiz-adv-x="1968" d="M99 534q0 91 18 171t58 151.5t99.5 123t148.5 81t200 29.5q250 0 386 -151q130 149 352 149q115 0 201 -27.5t144 -79.5t93.5 -134.5t51 -185.5t15.5 -240h-727q10 -84 42.5 -141.5t85.5 -86.5t126 -29q144 0 325 90l84 -201q-185 -84 -427 -84q-229 0 -366 156 q-136 -158 -386 -158q-112 0 -201 30t-148.5 82t-99.5 124.5t-57.5 154.5t-17.5 176zM368 534q0 -181 62 -272.5t193 -91.5q124 0 188 88t64 276q0 130 -27 207.5t-81.5 112t-143.5 34.5q-129 0 -192 -82.5t-63 -271.5zM1139 616h464q-8 144 -69.5 207t-170.5 63 q-29 0 -56 -6.5t-57 -25.5t-53 -48t-39 -78t-19 -112z" />
<glyph unicode="&#x178;" horiz-adv-x="1431" d="M33 1497h331l363 -574l359 574h314l-539 -824v-673h-291v664zM440 1652v220h231v-220h-231zM801 1652v220h233v-220h-233z" />
<glyph unicode="&#x192;" d="M227 -417l224 1296h-159l30 179h159l14 88q10 63 34.5 116t53 89t74 66.5t80 48t89.5 34t84.5 23t82.5 16.5l12 -225q-125 -3 -195 -51.5t-83 -133.5l-12 -71h195l-31 -179h-194l-224 -1296h-234z" />
<glyph unicode="&#x2c6;" horiz-adv-x="570" d="M-31 1226l230 271h181l221 -271h-189l-123 149l-130 -149h-190z" />
<glyph unicode="&#x2c7;" horiz-adv-x="570" d="M-31 1497h190l123 -148l130 148h189l-228 -271h-181z" />
<glyph unicode="&#x2d8;" horiz-adv-x="570" d="M-90 1372l141 81q15 -56 84 -104t159 -48q77 0 143 48t84 104l141 -81q-13 -34 -38.5 -68.5t-61.5 -66t-77.5 -56.5t-91.5 -39.5t-99 -14.5q-64 0 -121.5 15t-99.5 40t-76 57.5t-55 66t-32 66.5z" />
<glyph unicode="&#x2d9;" horiz-adv-x="570" d="M148 1270v227h276v-227h-276z" />
<glyph unicode="&#x2da;" horiz-adv-x="570" d="M26 1363q0 79 56 134.5t136 55.5q54 0 97.5 -25t68.5 -68.5t25 -96.5q0 -80 -55.5 -135t-135.5 -55q-78 0 -135 56t-57 134zM120 1365q0 -35 28.5 -66t69.5 -31q46 0 70 28t24 69q0 42 -25 69.5t-69 27.5q-42 0 -70 -29.5t-28 -67.5z" />
<glyph unicode="&#x2db;" horiz-adv-x="570" d="M33 -245q0 43 16.5 85t40.5 73t54 57.5t53.5 42t43.5 24.5h280q-65 -29 -127.5 -73t-107.5 -98t-45 -98t31.5 -67t76.5 -23q31 0 54 6.5t42.5 15t31.5 11.5l81 -174q-129 -34 -231 -34q-294 0 -294 252z" />
<glyph unicode="&#x2dc;" horiz-adv-x="570" d="M-86 1266q42 98 101 136t159 38q33 0 67 -16.5t57 -36t51 -35.5t51 -16q44 0 76 33.5t43 70.5l139 -65q-28 -85 -98 -136t-155 -51q-35 0 -65 10.5t-51 26t-39.5 30.5t-38.5 26t-39 11q-31 0 -56 -13t-40 -32.5t-23 -45.5z" />
<glyph unicode="&#x2dd;" horiz-adv-x="570" d="M-69 1222l222 271h262l-304 -271h-180zM282 1222l222 271h262l-303 -271h-181z" />
<glyph unicode="&#x3c0;" d="M53 859v199h1118v-199h-171v-627q0 -58 9.5 -95.5t34 -66t65.5 -44.5t106 -26l-51 -183q-65 13 -118 31.5t-104.5 51t-86.5 75.5t-56.5 106t-21.5 142v636h-314v-859h-222v859h-188z" />
<glyph unicode="&#x2000;" horiz-adv-x="966" />
<glyph unicode="&#x2001;" horiz-adv-x="1932" />
<glyph unicode="&#x2002;" horiz-adv-x="966" />
<glyph unicode="&#x2003;" horiz-adv-x="1932" />
<glyph unicode="&#x2004;" horiz-adv-x="644" />
<glyph unicode="&#x2005;" horiz-adv-x="483" />
<glyph unicode="&#x2006;" horiz-adv-x="322" />
<glyph unicode="&#x2007;" horiz-adv-x="322" />
<glyph unicode="&#x2008;" horiz-adv-x="241" />
<glyph unicode="&#x2009;" horiz-adv-x="386" />
<glyph unicode="&#x200a;" horiz-adv-x="107" />
<glyph unicode="&#x2010;" horiz-adv-x="809" d="M62 412v217h686v-217h-686z" />
<glyph unicode="&#x2011;" horiz-adv-x="809" d="M62 412v217h686v-217h-686z" />
<glyph unicode="&#x2012;" horiz-adv-x="809" d="M62 412v217h686v-217h-686z" />
<glyph unicode="&#x2013;" horiz-adv-x="1157" d="M-2 451v199h1161v-199h-1161z" />
<glyph unicode="&#x2014;" horiz-adv-x="2314" d="M-2 433v217h2318v-217h-2318z" />
<glyph unicode="&#x2018;" horiz-adv-x="623" d="M104 1064l229 436h177l-198 -436h-208z" />
<glyph unicode="&#x2019;" horiz-adv-x="623" d="M104 1064l197 436h209l-228 -436h-178z" />
<glyph unicode="&#x201a;" horiz-adv-x="623" d="M104 -203l197 435h209l-228 -435h-178z" />
<glyph unicode="&#x201c;" horiz-adv-x="948" d="M93 1064l229 436h175l-196 -436h-208zM451 1064l227 436h179l-197 -436h-209z" />
<glyph unicode="&#x201d;" horiz-adv-x="948" d="M93 1064l196 436h208l-226 -436h-178zM451 1064l196 436h210l-230 -436h-176z" />
<glyph unicode="&#x201e;" horiz-adv-x="948" d="M93 -203l196 435h208l-226 -435h-178zM451 -203l196 435h210l-230 -435h-176z" />
<glyph unicode="&#x2020;" d="M86 733v199h428v503h222v-503h428v-199h-428v-1150h-222v1150h-428z" />
<glyph unicode="&#x2021;" d="M86 358v200h428v389h-428v199h428v351h222v-351h428v-199h-428v-389h428v-200h-428v-358h-222v358h-428z" />
<glyph unicode="&#x2022;" d="M294 750q0 139 96 234.5t235 95.5t235 -95.5t96 -234.5q0 -54 -16.5 -105t-47 -92t-71 -72t-91 -47.5t-105.5 -16.5q-141 0 -236 96t-95 237z" />
<glyph unicode="&#x2026;" horiz-adv-x="1873" d="M174 0v254h277v-254h-277zM799 0v254h277v-254h-277zM1424 0v254h277v-254h-277z" />
<glyph unicode="&#x202f;" horiz-adv-x="386" />
<glyph unicode="&#x2030;" horiz-adv-x="2661" d="M99 1129q0 399 334 399q93 0 159 -27t104 -80.5t55 -124.5t17 -167q0 -97 -17 -170t-55 -129t-104.5 -85.5t-160.5 -29.5t-159.5 29t-102.5 85t-53.5 129t-16.5 171zM287 1129q0 -60 2.5 -99.5t11 -76.5t24 -58t42 -33t64.5 -12q36 0 63 13t43.5 35.5t26.5 58.5 t13.5 76.5t3.5 95.5q0 47 -2.5 81t-8.5 65.5t-16.5 52t-26.5 36t-39.5 22.5t-54.5 7q-38 0 -64.5 -13.5t-42 -35.5t-24.5 -57.5t-12 -71.5t-3 -86zM382 0l837 1455h227l-839 -1455h-225zM1086 384q0 398 332 398q94 0 159.5 -27t103 -80t54.5 -123.5t17 -167.5 q0 -77 -10.5 -138.5t-34.5 -114t-62 -87.5t-96 -55t-133 -20t-132 19.5t-94.5 54.5t-60.5 87.5t-33 114t-10 139.5zM1272 384q0 -60 3 -99t11.5 -76.5t24 -58.5t41.5 -33.5t64 -12.5q37 0 63.5 13t43.5 35.5t26.5 59t13 77t3.5 95.5q0 47 -2 81t-8 65.5t-16.5 52t-27 36 t-40 22t-54.5 6.5q-27 0 -48 -6.5t-36.5 -18.5t-26.5 -31t-17.5 -40t-10.5 -49t-5.5 -55.5t-1.5 -62.5zM1895 384q0 398 333 398q94 0 159.5 -27t103 -80t54.5 -123.5t17 -167.5t-17 -170t-54.5 -129.5t-104 -86t-160.5 -29.5q-93 0 -158.5 29t-102.5 85.5t-53.5 129.5 t-16.5 171zM2083 384q0 -60 2.5 -99t11 -76.5t24 -58.5t41.5 -33.5t64 -12.5q37 0 64 13t43.5 35.5t26 59t13 77t3.5 95.5q0 57 -3 96t-12.5 72.5t-26 53.5t-42.5 30.5t-64 10.5q-31 0 -55 -8.5t-39.5 -26.5t-26 -39.5t-15.5 -53.5t-7 -63t-2 -72z" />
<glyph unicode="&#x2039;" horiz-adv-x="623" d="M97 625l215 421h241l-224 -417l221 -417h-238z" />
<glyph unicode="&#x203a;" horiz-adv-x="623" d="M97 1046h241l215 -421l-215 -413h-239l223 417z" />
<glyph unicode="&#x2044;" horiz-adv-x="485" d="M-289 0l837 1455h227l-839 -1455h-225z" />
<glyph unicode="&#x205f;" horiz-adv-x="483" />
<glyph unicode="&#x2122;" horiz-adv-x="2140" d="M157 1372v125h669v-125h-247v-699h-174v699h-248zM932 673v824h287l230 -609l231 609h276v-824h-172v654l-252 -654h-181l-252 654v-654h-167z" />
<glyph unicode="&#x2202;" d="M106 426q0 123 29.5 217.5t88 160t149 99.5t210.5 34q29 0 66.5 -9.5t80 -28t81.5 -53.5t61 -80q0 69 -10.5 131.5t-37 122.5t-66 104t-102 71t-140.5 27q-109 0 -238 -65l-86 239q69 18 168.5 31t167.5 13q93 0 174.5 -24.5t143.5 -66.5t112.5 -101.5t85 -128t58 -146.5 t34 -157t10.5 -161q0 -78 -6.5 -146.5t-22.5 -140.5t-42 -130.5t-68 -111t-97 -88.5t-131.5 -57t-169.5 -21q-100 0 -191 34t-160.5 93.5t-110.5 148t-41 190.5zM398 426q0 -63 17 -111.5t46 -77.5t66 -43.5t80 -14.5q46 0 81 8.5t67 32t52.5 64t32.5 106.5t12 156 q-14 35 -32 63t-46.5 54.5t-71.5 41.5t-97 15q-42 0 -75 -10.5t-54.5 -26t-37 -41t-23 -47.5t-12 -54t-5 -52t-0.5 -49v-14z" />
<glyph unicode="&#x2206;" horiz-adv-x="1780" d="M125 0l646 1497h240l646 -1497h-1532zM442 197h903l-451 1083z" />
<glyph unicode="&#x220f;" d="M46 -417v2042h1157v-2042h-222v1854h-712v-1854h-223z" />
<glyph unicode="&#x2211;" d="M81 -245l646 854l-616 844v172h1066v-194h-786l600 -822l-635 -832h847v-194h-1122v172z" />
<glyph unicode="&#x221a;" d="M44 421v199h314l271 -682l391 1791h228l-429 -2023h-347l-296 715h-132z" />
<glyph unicode="&#x221e;" horiz-adv-x="1780" d="M120 523q0 58 14 112.5t46.5 105.5t79 88.5t116 60t154.5 22.5q64 0 119 -16t99.5 -47t78.5 -65t69 -80q34 40 56 64t58 55t69.5 48t80.5 29t101 12q92 0 163 -22t115 -58.5t72 -88t39 -105t11 -115.5q0 -41 -6 -80t-20.5 -77.5t-36.5 -72t-54.5 -63t-73 -50t-95.5 -32 t-118 -11.5q-59 0 -117.5 20t-105 52.5t-83 68.5t-61.5 73q-36 -45 -69.5 -78t-79 -66.5t-100.5 -51.5t-116 -18q-87 0 -157 22t-115.5 59.5t-76 88t-43.5 104.5t-13 112zM375 523q0 -83 48 -134t102 -51q56 0 124.5 57t114.5 133q-20 34 -47.5 66.5t-58 58.5t-64.5 42 t-64 16q-66 0 -110.5 -50.5t-44.5 -137.5zM1023 528q26 -41 50 -71t53.5 -59t63 -44.5t67.5 -15.5q65 0 106.5 49t41.5 136q0 86 -40 137t-104 51q-34 0 -66 -14t-63 -42.5t-54.5 -56.5t-54.5 -70z" />
<glyph unicode="&#x222b;" d="M282 -159q124 24 172 73.5t48 154.5v1216q0 66 14 121.5t36.5 95t57 71.5t68.5 52t77.5 36t78 24.5t76.5 15.5l57 -204q-67 -10 -109.5 -27t-67 -45.5t-33.5 -65t-9 -91.5v-1215q0 -83 -26 -151t-65.5 -111t-96 -76t-106 -50t-107.5 -29z" />
<glyph unicode="&#x2248;" d="M67 174q0 59 20.5 111t59.5 92t99.5 63t135.5 23q64 0 127 -21t110 -51t86.5 -60t69 -51t44.5 -21q41 0 68 7t48.5 26t31 53.5t9.5 87.5l207 -111q0 -38 -9 -74t-27 -68.5t-45.5 -59.5t-62 -46.5t-79.5 -30t-97 -10.5q-49 0 -99 15.5t-89.5 38.5t-78.5 50t-68 50 t-56 38.5t-44 15.5q-81 0 -118 -38t-37 -141zM67 636q0 59 20.5 111t59.5 92t99.5 63t135.5 23q54 0 108 -15t95 -37.5t80 -49t66.5 -49t51 -37.5t36.5 -15q41 0 68 7t48.5 26t31 53.5t9.5 87.5l207 -112q0 -58 -21 -109.5t-60 -92t-100.5 -64t-138.5 -23.5q-58 0 -117 21.5 t-105 52t-86.5 61.5t-73.5 52.5t-53 21.5q-54 0 -86 -14.5t-50.5 -54t-18.5 -110.5z" />
<glyph unicode="&#x2260;" d="M104 159v199h329l106 202h-435v199h541l186 350l189 -107l-130 -243h256v-199h-360l-108 -202h468v-199h-572l-185 -347l-190 107l128 240h-223z" />
<glyph unicode="&#x2264;" d="M104 0v199h1042v-199h-1042zM104 512v268l1042 269v-252l-769 -152l769 -146v-252z" />
<glyph unicode="&#x2265;" d="M104 0v199h1042v-199h-1042zM104 247v252l768 146l-768 152v252l1042 -269v-268z" />
<glyph unicode="&#x25ca;" d="M111 724l391 806h240l397 -806l-399 -810h-238zM327 724l296 -640l298 640l-298 641z" />
<glyph unicode="&#x25fc;" horiz-adv-x="1052" d="M0 0v1053h1053v-1053h-1053z" />
<glyph unicode="&#xfb01;" d="M26 857v201h159v30q0 67 17 125.5t44 100.5t66 77.5t78 58.5t86.5 42t84.5 29t77 18l91 -216q-71 -11 -119.5 -25.5t-87.5 -39t-57.5 -61.5t-18.5 -88v-51h195v-201h-195v-857h-261v857h-159zM826 1270v227h276v-227h-276zM833 0v1058h262v-1058h-262z" />
<glyph unicode="&#xfb02;" d="M26 857v201h159v30q0 67 17 125.5t44 100.5t66 77.5t78 58.5t86.5 42t84.5 29t77 18l91 -216q-71 -11 -119.5 -25.5t-87.5 -39t-57.5 -61.5t-18.5 -88v-51h195v-201h-195v-857h-261v857h-159zM840 0v1521h262v-1521h-262z" />
</font>
</defs>
</svg>
